<svg width="71" height="71" viewBox="0 0 71 71" fill="none" xmlns="http://www.w3.org/2000/svg">
<g clip-path="url(#clip0)">
<path d="M35.7294 15.688C55.7995 13.4809 62.3215 0.784492 62.3428 0.784492C62.6721 0.151625 63.4521 -0.0942833 64.0849 0.235013C64.4041 0.401081 64.6396 0.692942 64.7345 1.03998C71.4056 23.6649 67.7649 39.264 60.1073 48.5183C57.1427 52.1255 53.3457 54.9581 49.0432 56.772C45.0798 58.4529 40.7776 59.1821 36.4817 58.9011C28.2564 58.3263 20.7478 53.9333 17.2632 46.0628C16.3704 44.0508 15.7935 41.9132 15.5529 39.7253C15.0662 35.3399 15.9225 30.91 18.0084 27.0218C20.2478 22.8727 23.8135 19.5943 28.1357 17.7106C30.5474 16.648 33.109 15.9659 35.7294 15.688Z" fill="#45B549"/>
<path d="M62.2008 1.26005C62.2183 0.546984 62.8106 -0.0170434 63.5236 0.000521434C64.2367 0.0180863 64.8007 0.610323 64.7832 1.32339C64.7819 1.3759 64.7773 1.42807 64.7697 1.48005C64.7697 1.54392 63.6413 16.3836 49.1565 31.4006L49.0216 31.5426C45.6187 35.033 41.8846 38.1846 37.8724 40.9531L46.5732 42.5712C47.2667 42.7385 47.6933 43.4363 47.526 44.1296C47.3744 44.7574 46.7827 45.1768 46.1403 45.1119L34.7852 42.9828C24.4308 49.5403 6.88016 55.594 5.34723 69.8801C5.25231 70.5871 4.60223 71.0834 3.8952 70.9884C3.22223 70.8981 2.73414 70.3022 2.77814 69.6246C4.60915 52.4997 22.0108 48.0926 33.7491 40.6053L33.9123 40.4989C38.5968 37.5341 42.9362 34.0565 46.85 30.1303L45.8209 19.9462C45.726 19.2392 46.2223 18.5891 46.9293 18.4942C47.6363 18.3993 48.2864 18.8955 48.3813 19.6025C48.3852 19.6318 48.3882 19.6613 48.39 19.6907L49.1707 27.5967C61.2427 14.0416 62.1937 1.31682 62.2008 1.26005Z" fill="#009549"/>
</g>
<defs>
<clipPath id="clip0">
<rect width="71" height="71" fill="white"/>
</clipPath>
</defs>
</svg>
