<svg width="71" height="71" viewBox="0 0 71 71" fill="none" xmlns="http://www.w3.org/2000/svg">
<g clip-path="url(#clip0)">
<path d="M70.9885 31.4029C70.9281 30.8279 70.6324 30.3036 70.1716 29.9546L64.5475 25.6944L66.5938 18.9425C66.7614 18.3892 66.6926 17.7913 66.4036 17.2907C66.1145 16.7901 65.6311 16.4314 65.0682 16.3L58.1973 14.6957L57.3202 7.69525C57.2482 7.12171 56.9422 6.60335 56.4746 6.26361C56.007 5.92372 55.4197 5.79295 54.8519 5.90167L47.9227 7.2307L44.2737 1.19224C43.9747 0.697595 43.4842 0.348558 42.9189 0.228468C42.3534 0.108239 41.7633 0.227497 41.2892 0.557813L35.4999 4.59039L29.7105 0.557813C29.2361 0.227497 28.6462 0.108239 28.0807 0.228468C27.5152 0.348696 27.0248 0.697456 26.7259 1.19238L23.0773 7.23098L16.1481 5.90195C15.5805 5.79337 14.993 5.924 14.5252 6.26388C14.0576 6.60377 13.7515 7.12185 13.6796 7.69553L12.8025 14.696L5.93161 16.3003C5.3686 16.4317 4.88533 16.7903 4.5962 17.2909C4.30707 17.7917 4.23829 18.3895 4.40594 18.9427L6.4519 25.6947L0.828345 29.9547C0.367538 30.3038 0.0718895 30.8279 0.0114286 31.4029C-0.0488937 31.9778 0.13138 32.5521 0.509538 32.9893L5.12468 38.3255L1.71973 44.5047C1.44086 45.011 1.38386 45.6102 1.56247 46.1601C1.74108 46.7096 2.13935 47.161 2.6627 47.4066L9.04937 50.4041L8.45183 57.4342C8.40288 58.0103 8.59452 58.5809 8.98142 59.0105C9.36817 59.4401 9.91565 59.6903 10.4935 59.7019L17.5477 59.8425L19.8609 66.5077C20.0505 67.0537 20.4576 67.4972 20.9857 67.7323C21.5139 67.9673 22.1157 67.9733 22.6484 67.7489L29.15 65.0083L33.9745 70.1564C34.3697 70.5782 34.9221 70.8176 35.5002 70.8176C36.0783 70.8176 36.6305 70.5782 37.0259 70.1564L41.8504 65.0083L48.3516 67.7489C48.8842 67.9731 49.4861 67.9673 50.0143 67.7323C50.5425 67.4971 50.9496 67.054 51.1391 66.5078L53.4527 59.8425L60.5065 59.7019C61.0846 59.6904 61.6319 59.4401 62.0187 59.0105C62.4054 58.5809 62.5972 58.0104 62.5483 57.4342L61.9507 50.4041L68.3378 47.4066C68.861 47.161 69.2594 46.7096 69.438 46.1599C69.6167 45.6104 69.5598 45.011 69.2807 44.5046L65.8753 38.3255L70.4909 32.9893C70.8686 32.5521 71.0489 31.9778 70.9885 31.4029ZM61.5095 39.0684L64.5409 44.5691L58.8552 47.2374C58.0629 47.6093 57.586 48.4354 57.6602 49.3074L58.1922 55.5653L51.9128 55.6906C51.0378 55.708 50.2663 56.2685 49.9792 57.0953L47.9196 63.0288L42.1323 60.589C41.3258 60.249 40.393 60.4473 39.7946 61.0859L35.4999 65.6684L31.2052 61.0857C30.8016 60.6549 30.2456 60.4244 29.679 60.4244C29.4058 60.4244 29.1299 60.4781 28.8674 60.5887L23.0798 63.0285L21.0205 57.0952C20.7334 56.2683 19.962 55.7076 19.0869 55.6903L12.8071 55.5651L13.339 49.3071C13.4132 48.4351 12.9363 47.609 12.1441 47.2371L6.45884 44.5687L9.48993 39.0678C9.91232 38.3012 9.81248 37.3529 9.24018 36.6909L5.13175 31.9406L10.1381 28.1484C10.8357 27.6199 11.1304 26.713 10.8766 25.8753L9.05533 19.8645L15.1717 18.4365C16.024 18.2375 16.662 17.5286 16.771 16.6603L17.5518 10.4286L23.72 11.6116C24.5795 11.7766 25.4508 11.3885 25.9034 10.6394L29.1514 5.26406L34.3051 8.85372C35.0233 9.35391 35.9771 9.35391 36.6951 8.85372L41.8486 5.26406L45.0968 10.6395C45.5493 11.3885 46.4202 11.7766 47.2802 11.6116L53.4485 10.4286L54.2292 16.6603C54.3381 17.5286 54.9762 18.2375 55.8285 18.4365L61.9449 19.8645L60.1233 25.8751C59.8694 26.7127 60.1641 27.6199 60.8618 28.1484L65.8684 31.9406L61.7597 36.6909C61.1868 37.3531 61.087 38.3018 61.5095 39.0684Z" fill="#F8C440"/>
<path d="M35.5 15.4927C24.4678 15.4927 15.4927 24.4679 15.4927 35.4998C15.4927 46.5317 24.4681 55.5071 35.5 55.5071C46.5319 55.5071 55.5073 46.5319 55.5073 35.5C55.5073 24.4681 46.532 15.4927 35.5 15.4927ZM35.5 51.3255C26.7738 51.3255 19.6745 44.2262 19.6745 35.5C19.6745 26.7738 26.7738 19.6745 35.5 19.6745C44.2262 19.6745 51.3255 26.7738 51.3255 35.5C51.3255 44.2262 44.2262 51.3255 35.5 51.3255Z" fill="#F8C440"/>
<path d="M43.6972 29.5424C42.8804 28.7258 41.5565 28.7258 40.74 29.5424L33.2603 37.022L30.2596 34.0214C29.4431 33.2047 28.1192 33.205 27.3027 34.0214C26.4863 34.8379 26.4863 36.1618 27.3028 36.9783L31.7821 41.4574C32.1903 41.8656 32.7254 42.0697 33.2604 42.0697C33.7956 42.0697 34.3307 41.8655 34.7388 41.4574L43.697 32.4993C44.5135 31.6829 44.5135 30.3589 43.6972 29.5424Z" fill="#F8C440"/>
</g>
<defs>
<clipPath id="clip0">
<rect width="71" height="71" fill="white"/>
</clipPath>
</defs>
</svg>
