<svg width="71" height="71" viewBox="0 0 71 71" fill="none" xmlns="http://www.w3.org/2000/svg">
<g clip-path="url(#clip0)">
<path d="M34.1448 59.1665H7.09838C4.48428 59.1665 2.36523 57.0473 2.36523 54.4334V49.7H38.6913L34.1448 59.1665Z" fill="#D3DCFB"/>
<path d="M63.9031 21.3V41.1852V54.4331H7.09838C4.48428 54.4331 2.36523 52.3139 2.36523 49.6998V21.3L35.5009 9.46655L63.9031 21.3Z" fill="#EBF5FC"/>
<path d="M10.724 30.7667H8.20947C7.59682 30.7667 7.1001 30.27 7.1001 29.6574V27.1428C7.1001 26.5302 7.59682 26.0334 8.20947 26.0334H10.724C11.3367 26.0334 11.8334 26.5302 11.8334 27.1428V29.6574C11.8334 30.27 11.3367 30.7667 10.724 30.7667Z" fill="#3C58A0"/>
<path d="M20.1908 30.7667H17.6763C17.0636 30.7667 16.5669 30.27 16.5669 29.6574V27.1428C16.5669 26.5302 17.0636 26.0334 17.6763 26.0334H20.1908C20.8035 26.0334 21.3002 26.5302 21.3002 27.1428V29.6574C21.3002 30.27 20.8035 30.7667 20.1908 30.7667Z" fill="#3C58A0"/>
<path d="M29.6571 30.7667H27.1426C26.5299 30.7667 26.0332 30.27 26.0332 29.6574V27.1428C26.0332 26.5302 26.5299 26.0334 27.1426 26.0334H29.6571C30.2698 26.0334 30.7665 26.5302 30.7665 27.1428V29.6574C30.7665 30.27 30.2699 30.7667 29.6571 30.7667Z" fill="#3C58A0"/>
<path d="M39.1244 30.7667H36.6099C35.9972 30.7667 35.5005 30.27 35.5005 29.6574V27.1428C35.5005 26.5302 35.9972 26.0334 36.6099 26.0334H39.1244C39.7371 26.0334 40.2338 26.5302 40.2338 27.1428V29.6574C40.2338 30.27 39.7371 30.7667 39.1244 30.7667Z" fill="#3C58A0"/>
<path d="M48.5888 30.7667H46.0742C45.4616 30.7667 44.9648 30.27 44.9648 29.6574V27.1428C44.9648 26.5302 45.4616 26.0334 46.0742 26.0334H48.5888C49.2014 26.0334 49.6981 26.5302 49.6981 27.1428V29.6574C49.6981 30.27 49.2015 30.7667 48.5888 30.7667Z" fill="#3C58A0"/>
<path d="M58.056 30.7667H55.5415C54.9289 30.7667 54.4321 30.27 54.4321 29.6574V27.1428C54.4321 26.5302 54.9289 26.0334 55.5415 26.0334H58.056C58.6687 26.0334 59.1654 26.5302 59.1654 27.1428V29.6574C59.1654 30.27 58.6687 30.7667 58.056 30.7667Z" fill="#3C58A0"/>
<path d="M10.724 40.2333H8.20947C7.59682 40.2333 7.1001 39.7366 7.1001 39.1239V36.6094C7.1001 35.9967 7.59682 35.5 8.20947 35.5H10.724C11.3367 35.5 11.8334 35.9967 11.8334 36.6094V39.1239C11.8334 39.7367 11.3367 40.2333 10.724 40.2333Z" fill="#3C58A0"/>
<path d="M20.1908 40.2333H17.6763C17.0636 40.2333 16.5669 39.7366 16.5669 39.1239V36.6094C16.5669 35.9967 17.0636 35.5 17.6763 35.5H20.1908C20.8035 35.5 21.3002 35.9967 21.3002 36.6094V39.1239C21.3002 39.7367 20.8035 40.2333 20.1908 40.2333Z" fill="#3C58A0"/>
<path d="M29.6571 40.2333H27.1426C26.5299 40.2333 26.0332 39.7366 26.0332 39.1239V36.6094C26.0332 35.9967 26.5299 35.5 27.1426 35.5H29.6571C30.2698 35.5 30.7665 35.9967 30.7665 36.6094V39.1239C30.7665 39.7367 30.2699 40.2333 29.6571 40.2333Z" fill="#3C58A0"/>
<path d="M40.2338 40.2333V36.6833C40.2338 36.0297 39.7041 35.5 39.0505 35.5H36.6838C36.0302 35.5 35.5005 36.0297 35.5005 36.6833V39.05C35.5005 39.7036 36.0304 40.2333 36.6838 40.2333H40.2338Z" fill="#3C58A0"/>
<path d="M10.724 49.7001H8.20947C7.59682 49.7001 7.1001 49.2034 7.1001 48.5907V46.0762C7.1001 45.4635 7.59682 44.9668 8.20947 44.9668H10.724C11.3367 44.9668 11.8334 45.4635 11.8334 46.0762V48.5907C11.8334 49.2034 11.3367 49.7001 10.724 49.7001Z" fill="#3C58A0"/>
<path d="M20.1908 49.7001H17.6763C17.0636 49.7001 16.5669 49.2034 16.5669 48.5907V46.0762C16.5669 45.4635 17.0636 44.9668 17.6763 44.9668H20.1908C20.8035 44.9668 21.3002 45.4635 21.3002 46.0762V48.5907C21.3002 49.2034 20.8035 49.7001 20.1908 49.7001Z" fill="#3C58A0"/>
<path d="M29.6571 49.7001H27.1426C26.5299 49.7001 26.0332 49.2034 26.0332 48.5907V46.0762C26.0332 45.4635 26.5299 44.9668 27.1426 44.9668H29.6571C30.2698 44.9668 30.7665 45.4635 30.7665 46.0762V48.5907C30.7665 49.2034 30.2699 49.7001 29.6571 49.7001Z" fill="#3C58A0"/>
<path d="M58.0224 26.0332H55.5748C55.4267 26.0332 55.2857 26.0623 55.1558 26.1135C55.5794 26.2807 55.8795 26.6929 55.8795 27.176V29.6236C55.8795 30.1067 55.5793 30.5188 55.1558 30.6861C55.2857 30.7374 55.4267 30.7665 55.5748 30.7665H58.0224C58.6536 30.7665 59.1653 30.2548 59.1653 29.6237V27.1761C59.1652 26.5449 58.6535 26.0332 58.0224 26.0332Z" fill="#2A428C"/>
<path d="M48.5556 26.0332H46.108C45.9599 26.0332 45.8189 26.0623 45.689 26.1135C46.1126 26.2807 46.4127 26.6929 46.4127 27.176V29.6236C46.4127 30.1067 46.1125 30.5188 45.689 30.6861C45.8189 30.7374 45.9599 30.7665 46.108 30.7665H48.5556C49.1868 30.7665 49.6984 30.2548 49.6984 29.6237V27.1761C49.6984 26.5449 49.1868 26.0332 48.5556 26.0332Z" fill="#2A428C"/>
<path d="M39.0907 26.0332H36.6432C36.4951 26.0332 36.3541 26.0623 36.2241 26.1135C36.6478 26.2807 36.948 26.6929 36.948 27.176V29.6236C36.948 30.1067 36.6478 30.5188 36.2241 30.6861C36.3541 30.7374 36.4951 30.7665 36.6432 30.7665H39.0907C39.722 30.7665 40.2337 30.2548 40.2337 29.6237V27.1761C40.2335 26.5449 39.7218 26.0332 39.0907 26.0332Z" fill="#2A428C"/>
<path d="M29.624 26.0332H27.1764C27.0283 26.0332 26.8873 26.0623 26.7573 26.1135C27.181 26.2807 27.4812 26.6929 27.4812 27.176V29.6236C27.4812 30.1067 27.181 30.5188 26.7573 30.6861C26.8873 30.7374 27.0283 30.7665 27.1764 30.7665H29.624C30.2552 30.7665 30.7669 30.2548 30.7669 29.6237V27.1761C30.7667 26.5449 30.2552 26.0332 29.624 26.0332Z" fill="#2A428C"/>
<path d="M20.1571 26.0332H17.7096C17.5615 26.0332 17.4205 26.0623 17.2905 26.1135C17.7142 26.2807 18.0143 26.6929 18.0143 27.176V29.6236C18.0143 30.1067 17.714 30.5188 17.2905 30.6861C17.4205 30.7374 17.5615 30.7665 17.7096 30.7665H20.1571C20.7884 30.7665 21.3001 30.2548 21.3001 29.6237V27.1761C21.3001 26.5449 20.7884 26.0332 20.1571 26.0332Z" fill="#2A428C"/>
<path d="M10.6904 26.0332H8.2428C8.0947 26.0332 7.95367 26.0623 7.82373 26.1135C8.24737 26.2807 8.5476 26.6929 8.5476 27.176V29.6236C8.5476 30.1067 8.24737 30.5188 7.82373 30.6861C7.95367 30.7374 8.0947 30.7665 8.2428 30.7665H10.6904C11.3216 30.7665 11.8333 30.2548 11.8333 29.6237V27.1761C11.8331 26.5449 11.3214 26.0332 10.6904 26.0332Z" fill="#2A428C"/>
<path d="M10.6904 35.5H8.2428C8.0947 35.5 7.95367 35.5291 7.82373 35.5803C8.24737 35.7475 8.5476 36.1597 8.5476 36.6428V39.0905C8.5476 39.5736 8.24737 39.9858 7.82373 40.153C7.95367 40.2043 8.0947 40.2334 8.2428 40.2334H10.6904C11.3216 40.2334 11.8333 39.7217 11.8333 39.0906V36.6429C11.8331 36.0117 11.3214 35.5 10.6904 35.5Z" fill="#2A428C"/>
<path d="M10.6904 44.9668H8.2428C8.0947 44.9668 7.95367 44.9959 7.82373 45.0471C8.24737 45.2143 8.5476 45.6265 8.5476 46.1096V48.5573C8.5476 49.0404 8.24737 49.4526 7.82373 49.6198C7.95367 49.6711 8.0947 49.7002 8.2428 49.7002H10.6904C11.3216 49.7002 11.8333 49.1885 11.8333 48.5574V46.1097C11.8331 45.4784 11.3214 44.9668 10.6904 44.9668Z" fill="#2A428C"/>
<path d="M20.1571 35.5H17.7096C17.5615 35.5 17.4205 35.5291 17.2905 35.5803C17.7142 35.7475 18.0143 36.1597 18.0143 36.6428V39.0905C18.0143 39.5736 17.714 39.9858 17.2905 40.153C17.4205 40.2043 17.5615 40.2334 17.7096 40.2334H20.1571C20.7884 40.2334 21.3001 39.7217 21.3001 39.0906V36.6429C21.3001 36.0117 20.7884 35.5 20.1571 35.5Z" fill="#2A428C"/>
<path d="M20.1571 44.9668H17.7096C17.5615 44.9668 17.4205 44.9959 17.2905 45.0471C17.7142 45.2143 18.0143 45.6265 18.0143 46.1096V48.5573C18.0143 49.0404 17.714 49.4526 17.2905 49.6198C17.4205 49.6711 17.5615 49.7002 17.7096 49.7002H20.1571C20.7884 49.7002 21.3001 49.1885 21.3001 48.5574V46.1097C21.3001 45.4784 20.7884 44.9668 20.1571 44.9668Z" fill="#2A428C"/>
<path d="M29.624 35.5H27.1764C27.0283 35.5 26.8873 35.5291 26.7573 35.5803C27.181 35.7475 27.4812 36.1597 27.4812 36.6428V39.0905C27.4812 39.5736 27.181 39.9858 26.7573 40.153C26.8873 40.2043 27.0283 40.2334 27.1764 40.2334H29.624C30.2552 40.2334 30.7669 39.7217 30.7669 39.0906V36.6429C30.7667 36.0117 30.2552 35.5 29.624 35.5Z" fill="#2A428C"/>
<path d="M40.2332 40.2333V36.6428C40.2332 36.0116 39.7215 35.5 39.0903 35.5H36.6427C36.4946 35.5 36.3536 35.5291 36.2236 35.5803C36.6473 35.7475 36.9475 36.1597 36.9475 36.6428V39.0905C36.9475 39.5736 36.6473 39.9858 36.2236 40.153C36.3536 40.2043 36.4946 40.2334 36.6427 40.2334H40.2332V40.2333Z" fill="#2A428C"/>
<path d="M29.624 44.9668H27.1764C27.0283 44.9668 26.8873 44.9959 26.7573 45.0471C27.181 45.2143 27.4812 45.6265 27.4812 46.1096V48.5573C27.4812 49.0404 27.181 49.4526 26.7573 49.6198C26.8873 49.6711 27.0283 49.7002 27.1764 49.7002H29.624C30.2552 49.7002 30.7669 49.1885 30.7669 48.5574V46.1097C30.7667 45.4784 30.2552 44.9668 29.624 44.9668Z" fill="#2A428C"/>
<path d="M60.6152 19.9301V41.1853V54.4333H63.9033V41.1853V21.3L60.6152 19.9301Z" fill="#D3DCFB"/>
<path d="M63.9031 21.3V9.46655C63.9031 6.85244 61.7839 4.7334 59.1699 4.7334H7.09838C4.48428 4.7334 2.36523 6.85244 2.36523 9.46655V21.3H63.9031Z" fill="#FF4155"/>
<path d="M17.2797 10.538H14.1988C13.607 10.538 13.1274 10.0584 13.1274 9.46664C13.1274 8.87493 13.6071 8.39526 14.1988 8.39526H17.2797C17.8715 8.39526 18.3511 8.87493 18.3511 9.46664C18.3511 10.0584 17.8714 10.538 17.2797 10.538Z" fill="#E80054"/>
<path d="M24.8485 10.538H21.7677C21.1758 10.538 20.6963 10.0584 20.6963 9.46664C20.6963 8.87493 21.176 8.39526 21.7677 8.39526H24.8485C25.4404 8.39526 25.9199 8.87493 25.9199 9.46664C25.9199 10.0584 25.4404 10.538 24.8485 10.538Z" fill="#E80054"/>
<path d="M44.4981 10.538H41.4171C40.8252 10.538 40.3457 10.0584 40.3457 9.46664C40.3457 8.87493 40.8254 8.39526 41.4171 8.39526H44.4981C45.0899 8.39526 45.5695 8.87493 45.5695 9.46664C45.5695 10.0584 45.0899 10.538 44.4981 10.538Z" fill="#E80054"/>
<path d="M52.0669 10.538H48.9859C48.3941 10.538 47.9146 10.0584 47.9146 9.46664C47.9146 8.87493 48.3942 8.39526 48.9859 8.39526H52.0669C52.6588 8.39526 53.1383 8.87493 53.1383 9.46664C53.1383 10.0584 52.6587 10.538 52.0669 10.538Z" fill="#E80054"/>
<path d="M22.482 8.875C22.482 10.5088 21.1575 11.8333 19.5237 11.8333C17.8899 11.8333 16.5654 10.5088 16.5654 8.875V2.95829C16.5653 1.32446 17.8897 0 19.5236 0C21.1574 0 22.4819 1.32446 22.4819 2.95829V8.875H22.482Z" fill="#EBF5FC"/>
<path d="M49.6999 8.875C49.6999 10.5088 48.3755 11.8333 46.7416 11.8333C45.1078 11.8333 43.7832 10.5088 43.7832 8.875V2.95829C43.7832 1.32446 45.1077 0 46.7415 0C48.3753 0 49.6998 1.32446 49.6998 2.95829V8.875H49.6999Z" fill="#EBF5FC"/>
<path d="M46.7419 0C46.1345 0 45.5704 0.183602 45.1006 0.497555C45.8945 1.02811 46.4177 1.93184 46.4177 2.95843V8.875C46.4177 9.90145 45.8945 10.8053 45.1006 11.3359C45.5703 11.6497 46.1345 11.8334 46.7419 11.8334C48.3757 11.8334 49.7002 10.509 49.7002 8.87514V2.95829C49.7003 1.32446 48.3759 0 46.7419 0V0Z" fill="#D3DCFB"/>
<path d="M19.5236 0C18.9163 0 18.3521 0.183602 17.8823 0.497555C18.6762 1.02811 19.1994 1.93184 19.1994 2.95843V8.875C19.1994 9.90145 18.6762 10.8053 17.8823 11.3359C18.352 11.6497 18.9163 11.8334 19.5236 11.8334C21.1575 11.8334 22.4819 10.509 22.4819 8.87514V2.95829C22.4821 1.32446 21.1576 0 19.5236 0V0Z" fill="#D3DCFB"/>
<path d="M59.1698 4.73328H55.8828C58.4969 4.73328 60.616 6.85232 60.616 9.46642V21.3H63.9028V9.46656C63.9029 6.85246 61.7837 4.73328 59.1698 4.73328Z" fill="#E80054"/>
<path d="M2.36523 15.4952H63.9032V17.6381H2.36523V15.4952Z" fill="#E80054"/>
<path d="M50.8843 71C60.6873 71 68.6343 63.0531 68.6343 53.25C68.6343 43.4469 60.6873 35.5 50.8843 35.5C41.0812 35.5 33.1343 43.4469 33.1343 53.25C33.1343 63.0531 41.0812 71 50.8843 71Z" fill="#4FABF7"/>
<path d="M50.8844 66.2667C58.0733 66.2667 63.9011 60.4389 63.9011 53.25C63.9011 46.0611 58.0733 40.2333 50.8844 40.2333C43.6955 40.2333 37.8677 46.0611 37.8677 53.25C37.8677 60.4389 43.6955 66.2667 50.8844 66.2667Z" fill="#EBF5FC"/>
<path d="M50.8839 51.9546C50.292 51.9546 49.8125 51.4749 49.8125 50.8832V44.9665C49.8125 44.3748 50.2922 43.8951 50.8839 43.8951C51.4757 43.8951 51.9553 44.3748 51.9553 44.9665V50.8832C51.9553 51.4749 51.4756 51.9546 50.8839 51.9546Z" fill="#3C58A0"/>
<path d="M56.8007 54.3215H53.2506C52.6587 54.3215 52.1792 53.8418 52.1792 53.2501C52.1792 52.6584 52.6589 52.1787 53.2506 52.1787H56.8007C57.3926 52.1787 57.8721 52.6584 57.8721 53.2501C57.8721 53.8418 57.3924 54.3215 56.8007 54.3215Z" fill="#3C58A0"/>
<path d="M50.8842 35.5C50.3302 35.5 49.7824 35.5268 49.2414 35.5764C58.274 36.4055 65.3484 44.001 65.3484 53.25C65.3484 62.499 58.2739 70.0945 49.2412 70.9236C49.7823 70.9732 50.3301 71 50.8841 71C60.687 71 68.6341 63.053 68.6341 53.25C68.6341 43.447 60.6872 35.5 50.8842 35.5Z" fill="#1886EA"/>
<path d="M50.8844 40.2333C50.3283 40.2333 49.7804 40.2684 49.2427 40.336C55.6565 41.1432 60.6177 46.6172 60.6177 53.25C60.6177 59.8828 55.6565 65.3567 49.2427 66.1639C49.7804 66.2316 50.3283 66.2667 50.8844 66.2667C58.0733 66.2667 63.9011 60.4389 63.9011 53.25C63.9011 46.0611 58.0733 40.2333 50.8844 40.2333Z" fill="#D3DCFB"/>
<path d="M50.8843 55.6167C52.1914 55.6167 53.251 54.5571 53.251 53.25C53.251 51.9429 52.1914 50.8833 50.8843 50.8833C49.5772 50.8833 48.5176 51.9429 48.5176 53.25C48.5176 54.5571 49.5772 55.6167 50.8843 55.6167Z" fill="#FFDD40"/>
</g>
<defs>
<clipPath id="clip0">
<rect width="71" height="71" fill="white"/>
</clipPath>
</defs>
</svg>
