<svg width="71" height="71" viewBox="0 0 71 71" fill="none" xmlns="http://www.w3.org/2000/svg">
<path d="M4.43701 54.3594H2.21826V35.8106C2.21826 30.5633 5.74275 25.8906 10.7893 24.4484C10.8869 24.4207 10.9901 24.4062 11.0933 24.4062H13.312V26.625H11.253C7.23264 27.8431 4.43701 31.5983 4.43701 35.8106V54.3594Z" fill="#A8B0BC"/>
<path d="M25.5142 54.3594H27.7329V58.7969H25.5142V54.3594Z" fill="#A8B0BC"/>
<path d="M29.9541 54.3594H32.1728V58.7969H29.9541V54.3594Z" fill="#A8B0BC"/>
<path d="M44.3745 8.875L44.0018 8.31587C42.7981 6.51092 42.1558 4.38869 42.1558 2.21875L39.6597 4.09027C38.4371 5.00772 37.7183 6.44658 37.7183 7.97419C37.7183 9.26106 38.2297 10.4958 39.1405 11.4066L39.937 12.2031" fill="#A8B0BC"/>
<path d="M57.6865 8.875L58.0593 8.31587C59.2629 6.51092 59.9053 4.38869 59.9053 2.21875L62.4014 4.09027C63.6239 5.00772 64.3428 6.44658 64.3428 7.97419C64.3428 9.26106 63.8314 10.4958 62.9206 11.4066L62.124 12.2031" fill="#A8B0BC"/>
<path d="M62.6865 13.3125H64.0078C65.6042 13.3125 67.0941 14.1101 67.9793 15.4381C68.503 16.2224 68.7814 17.1432 68.7814 18.0861V21.0781H67.4302C66.1644 21.0781 64.9496 20.5756 64.0544 19.6803L63.2346 18.8594L63.0903 18.6519" fill="#C66B60"/>
<path d="M3.54951 58.6859C2.71193 58.0569 2.21826 57.0707 2.21826 56.0234V52.1406L4.81642 53.4397C5.94354 54.0033 6.65576 55.1559 6.65576 56.4162V61.0156L3.54951 58.6859Z" fill="#52565A"/>
<path d="M35.499 49.9219C35.499 52.9849 32.5192 55.4688 28.8428 55.4688C25.1663 55.4688 22.1865 52.9849 22.1865 49.9219" fill="#C66B60"/>
<path d="M53.2483 62.2815V62.1251L53.6122 60.6696C54.8436 55.7417 55.4671 50.6819 55.4671 45.602V45.4023C54.3976 47.1108 52.991 48.614 51.2637 49.7655L51.0296 49.9219L50.9586 49.9774C50.841 53.6417 50.5803 57.3004 50.1754 60.9447L49.979 62.7086C50.6202 62.348 51.3502 62.1251 52.139 62.1251C52.5239 62.1251 52.8922 62.1894 53.2483 62.2815Z" fill="#A8B0BC"/>
<path d="M18.8998 62.2946L18.8599 62.1249L19.3413 58.7524C19.7596 55.827 19.9692 52.876 19.9692 49.9218V49.4991C19.5699 49.3815 19.1661 49.2839 18.7711 49.153L17.8947 48.8612C16.163 53.1012 14.9937 57.5565 14.4246 62.1127L14.4224 62.1249H13.313C14.1284 62.1249 14.885 62.3512 15.5373 62.7373C16.1907 62.3579 16.9406 62.1249 17.7505 62.1249C18.151 62.1249 18.5315 62.1948 18.8998 62.2946Z" fill="#A8B0BC"/>
<path d="M57.6848 37.7188V37.7665C57.6848 42.5889 55.2752 47.0919 51.2626 49.7666L51.0285 49.9219L50.9575 49.9773C50.8399 53.6416 50.5792 57.3003 50.1743 60.9446L49.9191 63.2344H45.4816L45.1577 61.7767C44.2125 57.5233 43.619 53.199 43.3827 48.848L43.3805 48.8125H43.2629L42.2423 49.1531C38.5092 50.3967 34.6009 51.0312 30.6659 51.0312H30.3442C26.4093 51.0312 22.4998 50.3967 18.7668 49.1531L17.8904 48.8613C16.1586 53.1013 14.9893 57.5566 14.4202 62.1128L14.4025 62.2615L11.2829 62.8949L7.76287 48.8125L6.75778 33.7361C6.689 32.6999 6.78218 31.6582 7.03401 30.6509L7.15272 30.1772C8.18222 26.057 11.7056 23.0395 15.9345 22.6557L33.2785 21.0781V18.0739C33.2785 15.4447 35.4107 13.3125 38.0399 13.3125H41.0441" fill="#E3E4E5"/>
<path d="M39.937 32.1719L38.8498 16.9457C38.8354 16.7427 38.8276 16.5386 38.8276 16.3355C38.8276 11.6018 42.6639 7.76562 47.3964 7.76562H54.664C59.3977 7.76562 63.2339 11.6018 63.2339 16.3344C63.2339 16.5386 63.2261 16.7416 63.2117 16.9446L62.1245 32.1719" fill="#EBF7FE"/>
<path d="M38.8286 16.3344C38.8286 15.2683 39.0316 14.2533 39.3877 13.3125H38.0554C36.459 13.3125 34.9691 14.1101 34.0838 15.4381C33.5602 16.2224 33.2817 17.1432 33.2817 18.0861V21.0781H34.633C35.8988 21.0781 37.1135 20.5756 38.0088 19.6803L38.8286 18.8594L38.9451 18.2758L38.8497 16.9457C38.8364 16.7427 38.8286 16.5386 38.8286 16.3344Z" fill="#C66B60"/>
<path d="M47.7021 26.625C48.8947 26.625 50.0207 26.8225 51.0303 27.1664C52.0398 26.8225 53.1658 26.625 54.3584 26.625C58.6472 26.625 62.124 29.1089 62.124 32.1719C62.124 35.2349 58.6472 37.7188 54.3584 37.7188C53.1658 37.7188 52.0398 37.5213 51.0303 37.1774C50.0207 37.5213 48.8947 37.7188 47.7021 37.7188C43.4133 37.7188 39.9365 35.2349 39.9365 32.1719C39.9365 29.1089 43.4133 26.625 47.7021 26.625Z" fill="#C66B60"/>
<path d="M54.6661 7.76562H54.037C52.1944 9.39197 51.0317 11.7716 51.0317 14.4219C51.0317 19.3231 55.0055 23.2969 59.9067 23.2969C60.9196 23.2969 61.8881 23.1183 62.7944 22.8065L63.2127 16.9457C63.2271 16.7427 63.2349 16.5386 63.2349 16.3355C63.2349 11.6018 59.3986 7.76562 54.6661 7.76562Z" fill="#52565A"/>
<path d="M28.8423 33.2812C31.2929 33.2812 33.2798 35.2681 33.2798 37.7188C33.2798 37.7742 33.2654 37.8252 33.2631 37.8807C33.6248 37.7853 33.9976 37.7188 34.3892 37.7188C36.8398 37.7188 38.8267 39.7056 38.8267 42.1562C38.8267 44.6069 36.8398 46.5938 34.3892 46.5938C31.9386 46.5938 29.9517 44.6069 29.9517 42.1562C29.9517 42.1008 29.9661 42.0498 29.9683 41.9943C29.6066 42.0897 29.2339 42.1562 28.8423 42.1562C26.3917 42.1562 24.4048 40.1694 24.4048 37.7188C24.4048 35.2681 26.3917 33.2812 28.8423 33.2812Z" fill="#52565A"/>
<path d="M57.1323 33.2812C56.2149 33.2812 55.4683 32.5346 55.4683 31.6172C55.4683 30.6997 56.2149 29.9531 57.1323 29.9531C58.0498 29.9531 58.7964 30.6997 58.7964 31.6172C58.7964 32.5346 58.0498 33.2812 57.1323 33.2812Z" fill="#E47C6E"/>
<path d="M44.9282 33.2812C44.0108 33.2812 43.2642 32.5346 43.2642 31.6172C43.2642 30.6997 44.0108 29.9531 44.9282 29.9531C45.8457 29.9531 46.5923 30.6997 46.5923 31.6172C46.5923 32.5346 45.8457 33.2812 44.9282 33.2812Z" fill="#E47C6E"/>
<path d="M58.2417 19.9688C57.3242 19.9688 56.5776 19.2221 56.5776 18.3047C56.5776 17.3872 57.3242 16.6406 58.2417 16.6406C59.1592 16.6406 59.9058 17.3872 59.9058 18.3047C59.9058 19.2221 59.1592 19.9688 58.2417 19.9688Z" fill="#243242"/>
<path d="M43.8188 19.9688C42.9014 19.9688 42.1548 19.2221 42.1548 18.3047C42.1548 17.3872 42.9014 16.6406 43.8188 16.6406C44.7363 16.6406 45.4829 17.3872 45.4829 18.3047C45.4829 19.2221 44.7363 19.9688 43.8188 19.9688Z" fill="#243242"/>
<path d="M17.7505 62.125C20.2011 62.125 22.188 64.1119 22.188 66.5625V68.7812H13.313V66.5625C13.313 64.1119 15.2999 62.125 17.7505 62.125Z" fill="#243242"/>
<path d="M13.311 62.125C15.7616 62.125 17.7485 64.1119 17.7485 66.5625V68.7812H8.87354V66.5625C8.87354 64.1119 10.8604 62.125 13.311 62.125Z" fill="#52565A"/>
<path d="M12.2041 65.4531H14.4229V68.7812H12.2041V65.4531Z" fill="#243242"/>
<path d="M52.1416 62.125C54.5922 62.125 56.5791 64.1119 56.5791 66.5625V68.7812H47.7041V66.5625C47.7041 64.1119 49.691 62.125 52.1416 62.125Z" fill="#243242"/>
<path d="M47.7017 62.125C50.1523 62.125 52.1392 64.1119 52.1392 66.5625V68.7812H43.2642V66.5625C43.2642 64.1119 45.2511 62.125 47.7017 62.125Z" fill="#52565A"/>
<path d="M46.5918 65.4531H48.8105V68.7812H46.5918V65.4531Z" fill="#243242"/>
<path d="M16.6377 25.5156C16.6377 28.5786 19.1216 31.0625 22.1846 31.0625C25.2476 31.0625 27.7314 28.5786 27.7314 25.5156C27.7314 24.0435 27.1479 22.7133 26.2116 21.7205L17.533 22.5092C16.9716 23.3768 16.6377 24.4051 16.6377 25.5156Z" fill="#52565A"/>
<path d="M7.76232 35.5C7.46057 35.5 7.16992 35.5422 6.88037 35.5888L7.61256 46.5782C7.66359 46.5804 7.71129 46.5938 7.76232 46.5938C10.8253 46.5938 13.3092 44.1099 13.3092 41.0469C13.3092 37.9839 10.8253 35.5 7.76232 35.5Z" fill="#52565A"/>
</svg>
