<svg width="71" height="71" viewBox="0 0 71 71" fill="none" xmlns="http://www.w3.org/2000/svg">
<g clip-path="url(#clip0)">
<path d="M35.0673 35.9324L29.1507 30.0158C28.5732 29.4384 27.6369 29.4384 27.0592 30.0158L21.1425 35.9324C20.5651 36.51 20.5651 37.4463 21.1425 38.024L27.0592 43.9406C27.6367 44.518 28.573 44.518 29.1507 43.9406L35.0673 38.024C35.6448 37.4463 35.6448 36.51 35.0673 35.9324Z" fill="#455A64"/>
<path d="M64.6502 6.34969L58.7336 0.433066C58.156 -0.144355 57.2197 -0.144355 56.642 0.433066L50.7255 6.34969C50.1481 6.92725 50.1481 7.86354 50.7255 8.44124L56.6422 14.3579C57.2197 14.9353 58.156 14.9353 58.7337 14.3579L64.6504 8.44124C65.2276 7.86354 65.2276 6.92725 64.6502 6.34969Z" fill="#455A64"/>
<path d="M61.6919 15.2245L49.8588 3.39144C49.2812 2.81402 48.3449 2.81402 47.7672 3.39144L24.101 27.0576C23.5236 27.6352 23.5236 28.5715 24.101 29.1492L35.9341 40.9823C36.5117 41.5597 37.448 41.5597 38.0257 40.9823L46.1078 32.9002C46.6852 32.3227 46.6852 31.3864 46.1078 30.8087C43.7575 28.5386 43.6923 24.793 45.9625 22.4426C48.2325 20.0923 51.9781 20.0271 54.3285 22.2971C54.3779 22.3447 54.4263 22.3932 54.4739 22.4426C55.0514 23.02 55.9877 23.02 56.5654 22.4426L61.6891 17.3189C62.2683 16.7428 62.2708 15.8063 61.6947 15.227C61.6937 15.2262 61.6929 15.2254 61.6919 15.2245Z" fill="#90A4AE"/>
<path d="M60.6447 59.1669H59.8608C67.2031 48.9142 66.7644 35.0133 58.7899 25.2443C58.2747 24.6103 57.3431 24.5138 56.7091 25.0289C56.337 25.3312 56.1345 25.7952 56.1658 26.2738L56.2073 26.6258C56.195 29.308 54.3799 31.6462 51.7847 32.3235C50.995 32.5325 50.5242 33.342 50.7332 34.1318C50.7692 34.2678 50.8244 34.398 50.8972 34.5185C55.5454 42.184 53.0994 52.1663 45.4339 56.8147C42.8849 58.3603 39.9595 59.1741 36.9785 59.1671C33.0909 59.3078 29.2506 58.2772 25.9559 56.2088H34.0203C34.8372 56.2088 35.4995 55.5465 35.4995 54.7296V48.813C35.4995 47.9961 34.8372 47.3338 34.0203 47.3338H7.39569C6.57879 47.3338 5.9165 47.9961 5.9165 48.813V54.7296C5.9165 55.5465 6.57879 56.2088 7.39569 56.2088H11.0639C12.5794 59.5481 14.8718 62.4765 17.7496 64.7493V69.5211C17.7496 70.338 18.4119 71.0003 19.2288 71.0003H60.6449C61.4618 71.0003 62.1241 70.338 62.1241 69.5211V60.6462C62.1239 59.8292 61.4616 59.1669 60.6447 59.1669Z" fill="#455A64"/>
<path d="M50.2909 35.5006C55.1923 35.5006 59.1657 31.5272 59.1657 26.6257C59.1657 21.7243 55.1923 17.7509 50.2909 17.7509C45.3894 17.7509 41.416 21.7243 41.416 26.6257C41.416 31.5272 45.3894 35.5006 50.2909 35.5006Z" fill="#607D8B"/>
</g>
<defs>
<clipPath id="clip0">
<rect width="71" height="71" fill="white"/>
</clipPath>
</defs>
</svg>
