<svg width="182" height="25" viewBox="0 0 182 25" fill="none" xmlns="http://www.w3.org/2000/svg">
<path d="M131.335 8.40112C131.691 7.58737 131.844 6.70582 131.844 5.97684C131.844 2.92529 129.199 0.534912 125.826 0.534912H117.213V23.5232H128.25C133.183 23.5232 135.777 19.5901 135.777 15.7079C135.777 12.792 134.268 9.7065 131.335 8.40112ZM126.69 7.70605H121.197V4.45106H125.69C126.792 4.45106 127.894 5.01051 127.894 6.09551C127.894 6.24808 127.86 7.70605 126.69 7.70605ZM121.197 11.5713H127.996C130.589 11.5713 131.742 13.6227 131.742 15.657C131.742 18.5729 129.725 19.6071 127.996 19.6071H121.197V11.5713Z" fill="#CAD1E1"/>
<path d="M72.4913 23.5571L79.4929 6.265L86.325 23.5571H90.7327L81.7307 0.772217H77.289L68.0835 23.5571H72.4913Z" fill="#CAD1E1"/>
<path d="M151.696 23.54H157.935L146.102 11.6898L157.036 0.755127H150.798L142.965 8.57048V0.755127H138.558V23.54H142.965V14.8261L142.982 14.8092L151.696 23.54Z" fill="#CAD1E1"/>
<path d="M112.602 17.9965L110.788 13.4192L105.855 0.890869H101.413L96.2084 13.7582L94.4284 18.183L92.2075 23.6757H96.6323L97.7512 20.8954C99.4295 21.8109 101.379 22.3365 103.447 22.3365C105.583 22.3365 107.584 21.777 109.313 20.7937L110.449 23.6757H114.857L112.602 17.9965ZM103.447 18.4712C101.888 18.4712 100.43 18.0304 99.2091 17.2675L103.617 6.3667L107.872 17.1488C106.618 17.9965 105.092 18.4712 103.447 18.4712Z" fill="#CAD1E1"/>
<path d="M179.278 17.9965L177.464 13.4192L172.514 0.890869H168.089L162.885 13.7582L161.105 18.183L158.884 23.6588H163.309L164.427 20.8785C166.106 21.794 168.055 22.3195 170.124 22.3195C172.26 22.3195 174.26 21.7601 175.989 20.7768L177.125 23.6588H181.533L179.278 17.9965ZM170.124 18.4712C168.564 18.4712 167.106 18.0304 165.885 17.2675L170.293 6.3667L174.548 17.1488C173.294 17.9965 171.768 18.4712 170.124 18.4712Z" fill="#CAD1E1"/>
<path d="M4.40779 19.1492V16.7249H11.1042V12.3002H4.40779V5.19685H15.0373V0.789062H0V23.5739H15.6985V19.1492H4.40779Z" fill="#CAD1E1"/>
<path d="M32.3299 23.574H38.5686L26.7184 11.7239L37.6531 0.772217H31.4144L23.5821 8.60452V0.772217H19.1743V23.574H23.5821V14.8432H23.5991L32.3299 23.574Z" fill="#CAD1E1"/>
<path d="M50.0624 0.12793C43.4168 0.12793 38.0088 5.33251 38.0088 11.7408C38.0088 12.6223 38.1105 13.47 38.297 14.3007H42.4844C42.1792 13.5039 42.0267 12.6393 42.0267 11.7408C42.0267 7.51945 45.6377 4.07799 50.0624 4.07799C54.4702 4.07799 58.0642 7.51945 58.0642 11.7408C58.0642 12.6393 57.8947 13.5039 57.6065 14.3007H61.7939C61.9804 13.47 62.0821 12.6223 62.0821 11.7408C62.0821 5.34946 56.691 0.12793 50.0624 0.12793Z" fill="#CAD1E1"/>
<path d="M61.3528 16.7249C59.6575 21.1665 55.2497 24.3537 50.0621 24.3537C44.8744 24.3537 40.4327 21.1665 38.7544 16.7249H61.3528Z" fill="#CAD1E1"/>
</svg>
