<svg width="151" height="44" viewBox="0 0 151 44" fill="none" xmlns="http://www.w3.org/2000/svg">
<g clip-path="url(#clip0)">
<path fill-rule="evenodd" clip-rule="evenodd" d="M44.974 22.821C44.1689 16.6467 49.1049 11.3542 54.6049 10.7808C61.0547 10.1083 66.1738 14.7668 66.7816 20.4872C67.4518 26.7931 62.6854 31.9009 57.1487 32.4961C50.7188 33.1875 45.7272 28.5965 44.974 22.821ZM131.919 9.97777C136.523 8.59744 138.722 16.8506 138.914 20.9489C139.126 25.5099 137.597 32.9228 133.767 33.9571C129.01 35.2417 126.935 26.9193 126.745 22.9879C126.521 18.337 128.141 11.1105 131.919 9.97777ZM150.438 23.8417C151.504 13.549 144.286 5.69743 134.863 4.7805C124.451 3.76725 116.222 10.5016 115.254 19.9217C114.156 30.6149 121.488 38.373 130.933 39.1618C141.782 40.0678 149.443 33.4362 150.438 23.8417ZM76.6942 34.4589C76.7205 37.571 81.0787 39.6689 84.7463 39.1321C94.58 37.6929 94.0684 19.0403 94.5425 11.3162C95.529 11.0414 98.9352 11.1778 100.149 11.2206L100.174 38.2073C101.122 38.4062 110.415 38.407 111.249 38.1789L111.275 5.84946C109.029 4.73178 101.023 4.26455 97.8764 4.27144C93.7024 4.28062 88.0939 4.70217 84.4359 5.805C84.2986 16.4282 83.2735 28.8001 76.6942 34.4589ZM14.3735 18.4239C14.5067 12.9839 15.7242 7.69306 11.4854 5.10495C7.20226 2.48976 0.318199 5.02461 0 7.76829C1.09617 8.48437 1.72868 8.5327 2.3425 9.64401C3.75908 12.2088 3.18227 17.6247 3.18227 21.1199C3.18227 26.5343 3.04727 32.1529 3.22015 37.5435C4.03207 37.8469 13.4529 37.8124 14.702 37.6252L14.4351 23.5337L16.1602 23.4251C17.2555 28.1293 17.8272 33.9922 22.5309 37.1272C24.6479 38.5382 28.0166 39.1339 30.7899 38.3853C32.8108 37.8398 35.4906 35.5726 35.237 33.0777C34.8897 32.7593 33.4289 32.1385 32.7926 31.643C30.6568 29.9798 29.2943 27.6339 27.9019 25.3007C25.3398 21.0073 25.1928 18.3563 20.4526 17.7698C19.8706 15.3286 21.539 10.0384 24.6182 11.8808C24.7746 12.3118 24.7534 13.3477 24.9514 13.7552C25.4312 14.6625 32.8873 15.8551 34.4776 10.7748C37.4712 1.21096 16.9583 0.416931 15.9263 16.5444C15.8146 18.2892 16.2834 18.4128 14.3735 18.4239ZM52.9763 0.36989C46.5905 1.3396 42.2845 4.29431 39.1631 8.10446C35.9036 12.0829 33.615 17.8995 34.5795 24.7347C36.1144 35.6121 46.3034 44.6703 59.0219 42.9073C69.9901 41.387 78.8476 31.12 77.2014 18.6016C75.8021 7.96094 65.4269 -1.52075 52.9763 0.36989Z" fill="#CAD1E1"/>
<path d="M49.4195 19.6492C48.8696 19.6492 48.5029 19.2759 48.5029 18.8094C48.5029 18.3429 48.8696 17.9696 49.4195 17.9696H54.7361V18.7161C54.7361 18.9961 54.8278 19.2759 55.0111 19.4626C55.1028 19.5559 55.1028 19.5559 55.1028 19.6492H49.4195ZM56.4777 19.1826C56.2027 19.4626 55.7444 19.4626 55.4694 19.0894C55.1944 18.8094 55.1944 18.3429 55.4694 18.063L59.7777 14.0509C60.1444 13.7709 60.6027 13.7709 60.8777 14.1442C61.1527 14.4241 61.1527 14.8906 60.8777 15.1705L56.4777 19.1826ZM49.6945 20.3956L50.4279 26.3672C50.4279 26.3672 50.5196 28.14 52.0779 28.14C54.7361 28.14 57.3944 28.14 60.0527 28.14C61.611 28.14 61.7026 26.3672 61.7026 26.3672L62.4359 20.3956C58.2194 20.3956 54.0028 20.3956 49.6945 20.3956ZM52.2612 22.7283C52.2612 22.355 52.6279 21.9818 52.9945 21.9818C53.4528 21.9818 53.8195 22.355 53.8195 22.7283V26.0872C53.8195 26.4604 53.4528 26.8337 52.9945 26.8337C52.6279 26.8337 52.2612 26.4604 52.2612 26.0872V22.7283ZM58.3111 22.7283C58.3111 22.355 58.6777 21.9818 59.1361 21.9818C59.5027 21.9818 59.8694 22.355 59.8694 22.7283V26.0872C59.8694 26.4604 59.5027 26.8337 59.1361 26.8337C58.6777 26.8337 58.3111 26.4604 58.3111 26.0872V22.7283ZM55.2861 22.7283C55.2861 22.355 55.6527 21.9818 56.1111 21.9818C56.4777 21.9818 56.8444 22.355 56.8444 22.7283V26.0872C56.8444 26.4604 56.4777 26.8337 56.1111 26.8337C55.6527 26.8337 55.2861 26.4604 55.2861 26.0872V22.7283ZM59.3194 17.9696H62.3443C62.8026 17.9696 63.1692 18.3429 63.1692 18.8094C63.1692 19.2759 62.8026 19.6492 62.3443 19.6492H56.8444V19.5559C57.2111 19.2759 57.6694 18.9027 58.0361 18.5295C58.4028 18.1563 58.8611 17.9696 59.3194 17.9696Z" fill="#CAD1E1"/>
</g>
<defs>
<clipPath id="clip0">
<rect width="151" height="43" fill="white" transform="translate(0 0.12793)"/>
</clipPath>
</defs>
</svg>
