<svg width="169" height="76" viewBox="0 0 169 76" fill="none" xmlns="http://www.w3.org/2000/svg">
<g clip-path="url(#clip0)">
<path d="M37.7346 48.6069C37.7368 47.1724 37.7814 46.9931 37.7826 46.1862L37.7876 42.9136C37.7886 42.286 37.7462 41.0307 37.747 40.4927C37.7471 40.4031 37.7031 40.2237 37.8363 40.0894C37.9695 39.9551 38.0138 40 38.014 39.8655C38.0142 39.7311 37.8369 39.686 37.7482 39.6858C37.3936 39.6853 37.1718 39.7746 36.9058 39.7742L36.1078 39.773C35.9305 39.7727 35.7976 39.7277 35.6202 39.7274C35.5316 39.7272 35.3986 39.727 35.3983 39.9064C35.398 40.0857 35.6197 40.086 35.6637 40.3102C35.6636 40.3551 35.6635 40.4447 35.6634 40.4896C35.6633 40.5344 35.574 40.9377 35.5709 42.955L35.5661 46.0931C35.565 46.8552 35.608 47.707 35.6064 48.7381C35.6058 49.1416 35.5172 49.0966 35.3841 49.1861C35.2509 49.2755 35.2948 49.5894 35.6051 49.5899C35.9154 49.5904 35.7382 49.5453 36.2258 49.546L37.2455 49.5476C37.5558 49.5481 37.6887 49.5931 37.8661 49.5934C37.9991 49.5936 38.0879 49.504 38.1324 49.3696C38.1325 49.28 38.1326 49.2351 38.044 49.1902C37.8669 49.0554 37.7337 49.1449 37.7346 48.6069ZM36.6422 38.2047C36.6427 37.8909 36.3771 37.6215 36.0668 37.6211L36.0224 37.621C35.4461 37.6201 34.9578 38.0677 34.9126 38.6504C34.9121 38.9642 35.1777 39.2336 35.4881 39.1892L35.5324 39.1893C36.0643 39.2349 36.597 38.7875 36.6422 38.2047ZM57.24 49.1299C57.063 48.9503 56.9747 48.7261 56.9751 48.4571C56.9314 48.0535 56.8876 47.65 56.8004 46.7085C56.6691 45.6323 56.5816 44.8253 56.494 44.1527C56.0995 41.2382 55.8348 40.386 55.7466 40.072C55.6584 39.7581 55.4813 39.6233 54.6831 39.7566C54.5501 39.7564 54.4171 39.801 54.284 39.8457L53.9737 39.8452C53.752 39.8448 53.5747 39.7997 53.3531 39.7994C53.1314 39.7991 52.9539 39.9333 52.9537 40.0678C52.9534 40.2471 53.0419 40.3817 53.1748 40.4267C53.3962 40.5616 53.6178 40.6516 53.439 41.5927C52.9931 43.2956 52.6357 45.0434 52.3671 46.7913C52.3223 47.0602 52.3219 47.3292 52.2771 47.5981C52.2769 47.7326 52.2324 47.867 52.2321 48.0463C52.1873 48.3601 52.187 48.5394 52.1425 48.6738C52.0531 49.1668 51.8316 49.032 51.654 49.211C51.4764 49.3901 51.4759 49.7039 51.7863 49.7044C51.9637 49.6598 52.141 49.6601 52.3183 49.6603C52.806 49.6611 52.8502 49.706 53.1162 49.7064C53.2049 49.7065 53.4266 49.7069 53.4268 49.5276C53.427 49.3931 53.3386 49.2584 53.2056 49.2582C52.8511 49.168 52.8515 48.8542 52.8519 48.6301C52.9428 47.1957 53.1222 45.8062 53.3903 44.4169C53.4797 43.9688 53.6141 43.0724 54.013 43.073C54.3234 43.0735 54.3227 43.5217 54.3223 43.7459C54.3653 44.6426 54.4526 45.5393 54.5843 46.3913C54.8036 47.9158 54.8918 48.2297 54.8912 48.5884C54.8904 49.1712 54.713 49.1709 54.5799 49.2603C54.2693 49.4392 54.4018 49.7532 54.7121 49.7537C54.8895 49.7539 55.0225 49.7093 55.1999 49.7096C55.3329 49.665 55.4659 49.6652 55.5546 49.6653L56.3082 49.6665C56.4412 49.6667 56.6186 49.6669 56.7515 49.712C56.8844 49.757 57.0617 49.7573 57.1947 49.7575C57.3277 49.7577 57.4609 49.6682 57.5055 49.489C57.5055 49.489 57.5055 49.489 57.5055 49.4441C57.5059 49.22 57.3286 49.2197 57.24 49.1299ZM34.4226 40.1738C34.5113 40.1291 34.5558 40.0396 34.5559 39.9499C34.5563 39.6809 34.2015 39.8149 33.9798 39.8145L32.6942 39.8126C32.6055 39.8124 32.5168 39.8123 32.4282 39.7673C32.3396 39.7672 32.2952 39.7671 32.2066 39.767C31.9849 39.7666 31.9404 39.9011 31.9402 39.9907C31.9401 40.0804 31.9843 40.1701 32.0729 40.2151C32.1614 40.3049 32.2055 40.4394 32.2053 40.5739C32.2044 41.1567 32.1157 41.2014 31.448 42.9936C31.1809 43.6656 31.1361 44.0242 30.9587 44.0239C30.7814 44.0236 30.8259 43.934 30.826 43.8444C30.8268 43.3512 30.8714 43.1272 30.8723 42.5444L30.8754 40.5719C30.8757 40.3477 30.9644 40.303 31.0088 40.2583C31.0976 40.2136 31.1864 40.0792 31.1866 39.9896C31.1868 39.8551 31.0539 39.7652 30.9653 39.7651C30.6549 39.7646 30.7879 39.8096 30.4332 39.8091L29.1032 39.807C28.8372 39.8066 28.4385 39.6715 28.438 39.9405C28.4378 40.075 28.5708 40.12 28.615 40.1649C28.6593 40.2098 28.7034 40.3892 28.7031 40.5237C28.6581 41.0168 28.6088 44.2444 28.607 45.41C28.6052 46.5756 28.6484 47.2929 28.6906 48.7275C28.6895 49.4 28.4242 48.9513 28.4235 49.4444C28.4232 49.6237 28.5561 49.6687 28.6891 49.6689C28.9552 49.6245 29.2213 49.5801 29.4872 49.5805L30.3296 49.5818C30.8172 49.5826 31.1715 49.8072 31.1721 49.4038C31.1724 49.2693 31.1282 49.1796 30.9952 49.1345C30.8624 49.0447 30.8624 49.0447 30.8629 48.686L30.8653 47.117C30.8664 46.3997 30.7337 46.2202 31.001 45.3688C31.2682 44.5623 31.5795 43.98 31.8467 43.1735C31.8468 43.1287 31.936 42.7702 32.1133 42.7704C32.335 42.7708 32.2457 43.1741 32.2011 43.3085C32.1117 43.8463 32.0664 44.4291 32.0655 45.0118L32.061 47.9706C32.0603 48.4189 32.1481 48.957 31.9705 49.136C31.8818 49.1807 31.7929 49.3151 31.7927 49.4496C31.7924 49.6737 31.9697 49.674 32.1027 49.6742C32.546 49.6749 32.3244 49.6297 32.8121 49.6304L33.6544 49.6317C34.0534 49.6323 33.9203 49.677 34.2307 49.6774C34.408 49.6777 34.4967 49.633 34.497 49.4537C34.4971 49.364 34.4529 49.2743 34.3644 49.1845C34.2759 49.0947 34.1873 49.0498 34.1877 48.7808C34.1441 48.3324 34.2352 46.7187 34.2391 44.2082C34.2429 41.6978 34.2881 41.1599 34.2004 40.5321C34.2452 40.2184 34.2895 40.2185 34.4226 40.1738ZM50.4576 48.8506C50.4135 48.716 50.3694 48.5366 50.2372 48.0433C49.7966 46.2494 49.973 46.8325 49.6203 45.5767C49.4879 45.2179 49.3998 44.8143 49.3561 44.4107C49.3568 43.9624 49.8453 43.3804 50.2456 42.5741C50.5567 42.0366 50.6906 41.454 50.6916 40.8264C50.6929 39.9746 50.3387 39.6603 49.8067 39.6595C49.4078 39.614 49.0526 39.9273 49.0076 40.3755C49.0076 40.4204 49.0076 40.4203 49.0075 40.4652C49.007 40.779 49.0951 41.1378 49.272 41.407C49.4932 41.7212 49.6257 42.08 49.6251 42.4386C49.6243 42.9766 49.2689 43.4692 48.9142 43.4686C48.6926 43.4683 48.7374 43.1545 48.6934 42.8855C48.6062 41.9439 48.3859 41.047 48.0769 40.1948C48.0329 40.0154 47.9445 39.8359 47.6785 39.8355C47.5898 39.8354 47.5012 39.8353 47.4567 39.88C47.368 39.9247 47.235 39.9245 47.1464 39.9244L46.2597 39.923C45.9937 39.9226 45.9494 39.8777 45.7278 39.8774C45.6391 39.8772 45.5061 39.9219 45.5059 40.0115C45.5057 40.146 45.5942 40.2806 45.6828 40.3256C45.8598 40.55 45.9481 40.7743 46.0363 41.0434L46.5651 43.1512C46.9175 44.5863 46.9622 44.4071 46.5621 45.0789C45.8068 46.1536 45.4059 47.4083 45.3596 48.7083C45.3577 49.9187 45.9333 50.4127 46.5983 50.4137C47.0415 50.4592 47.4411 50.1012 47.4861 49.6529C47.4862 49.6081 47.4862 49.5633 47.4864 49.4736C47.4873 48.846 47.0448 48.3074 46.8681 47.9036C46.6913 47.5896 46.6031 47.2756 46.6036 46.917C46.6044 46.4238 47.005 45.3485 47.271 45.349C47.537 45.3494 47.4477 45.7975 47.4472 46.1113C47.6229 47.1875 47.8872 48.2638 48.2403 49.2955C48.461 49.9234 48.6831 49.6548 49.0821 49.6554L49.8357 49.6565C50.412 49.6574 50.2346 49.702 50.5893 49.7025C50.9439 49.7031 51.0331 49.3894 50.8117 49.2097C50.5903 49.0301 50.5459 49.1197 50.4576 48.8506ZM60.6544 48.642C60.6566 47.2075 60.7012 47.0282 60.7024 46.2213L60.7074 42.9936C60.7083 42.366 60.6659 41.1107 60.6667 40.5727C60.6669 40.4831 60.6672 40.3037 60.756 40.1694C60.8449 40.035 60.9335 40.08 60.9337 39.9455C60.9339 39.811 60.7123 39.7658 60.668 39.7658C60.3133 39.7652 60.0915 39.8546 59.7812 39.8541L59.0719 39.853C58.8945 39.8527 58.7616 39.8077 58.54 39.8073C58.4513 39.8072 58.3183 39.807 58.318 39.9863C58.3178 40.1656 58.5394 40.166 58.5391 40.3901C58.539 40.435 58.5389 40.5246 58.5388 40.5695C58.5387 40.6143 58.5382 40.9729 58.535 43.0351L58.5302 46.1732C58.529 46.9353 58.5277 47.787 58.5261 48.8181C58.5255 49.2216 58.4369 49.1766 58.3038 49.2661C58.1707 49.3555 58.1702 49.6693 58.4805 49.6698C58.7908 49.6703 58.6579 49.6252 59.1012 49.6259L60.1209 49.6275C60.4312 49.628 60.5641 49.673 60.7415 49.6733C61.0075 49.6737 61.0079 49.4047 60.9194 49.2701C60.8309 49.1354 60.6536 49.18 60.6544 48.642ZM43.3716 44.1326C43.2387 44.0875 43.0615 44.0424 43.0617 43.8631C43.0621 43.5941 43.4612 43.5499 43.7275 43.371C44.2157 43.0131 44.5269 42.4308 44.5279 41.8032C44.5294 40.817 43.7774 39.7399 42.0041 39.7372C41.1174 39.7358 41.4276 39.8259 40.94 39.8252L39.6987 39.8233C39.477 39.823 39.3885 39.7332 39.2111 39.7329C39.0338 39.7326 38.9006 39.8669 38.9005 39.9117C38.9003 40.091 39.0332 40.1361 39.0775 40.181C39.166 40.2708 39.2544 40.4054 39.2099 40.5398L39.1977 48.5195C39.1977 48.5195 39.1971 48.923 39.197 48.9678C39.1968 49.1023 39.1081 49.1021 39.0194 49.1468C38.9307 49.1915 38.8861 49.3259 38.886 49.4156C38.8857 49.5949 39.1074 49.5953 39.196 49.5954C39.2404 49.5955 39.329 49.5956 39.3734 49.5957C39.5064 49.551 39.6837 49.5513 39.8167 49.5515L41.0581 49.5534C41.7674 49.5545 42.166 49.7793 42.9644 49.5115C44.2951 49.0653 44.74 47.99 44.7423 46.5107C44.7437 45.6141 44.4795 44.4481 43.3716 44.1326ZM42.3035 46.8207C42.3022 47.7173 42.2556 49.1518 41.5463 49.1507C41.236 49.1502 41.2364 48.8812 41.2366 48.7468C41.2372 48.3881 41.282 48.0296 41.3269 47.7158C41.3718 47.3124 41.3724 46.909 41.373 46.5503C41.3737 46.0572 41.3745 45.5641 41.3309 45.0709C41.199 44.3534 41.1994 44.1292 41.6427 44.1299C42.0417 44.1305 42.3074 44.3103 42.3046 46.1034L42.3035 46.8207ZM41.5991 43.6367C41.4218 43.6365 41.2889 43.5466 41.2893 43.2776C41.2896 43.0983 41.3341 42.9639 41.3344 42.8294C41.3346 42.6949 41.3791 42.5605 41.3792 42.4708L41.3807 41.5294C41.381 41.3501 41.3813 41.1259 41.3372 40.9465C41.2931 40.812 41.2933 40.7223 41.2491 40.5878C41.2496 40.274 41.427 40.2294 41.56 40.2296C42.225 40.2306 42.3124 41.0377 42.3109 42.024C42.3532 43.3689 42.0868 43.6375 41.5991 43.6367ZM37.9731 37.624C37.4412 37.5783 36.9528 38.0259 36.9077 38.5638C36.9072 38.8776 37.1284 39.1469 37.4387 39.1922C37.483 39.1923 37.483 39.1923 37.5273 39.1923C38.1036 39.2381 38.5919 38.7905 38.6372 38.2078C38.6376 37.894 38.3721 37.6246 38.0617 37.6241C38.0617 37.6241 38.0174 37.6241 37.9731 37.624ZM115.9 44.0196C116.342 44.8272 118.382 44.4269 119.403 43.3974C120.735 42.0545 120.471 40.5299 121.536 39.9936C116.927 39.1796 115.325 43.0325 115.9 44.0196ZM120.555 44.0268C120.997 44.8344 122.992 44.434 124.058 43.4045C125.39 42.0617 125.126 40.537 126.191 40.0007C121.582 39.1867 119.98 43.0396 120.555 44.0268ZM125.209 44.0339C125.652 44.8415 127.691 44.4412 128.713 43.4116C130.045 42.0688 129.781 40.5442 130.846 40.0079C126.236 39.1939 124.635 43.0468 125.209 44.0339ZM129.864 44.041C130.306 44.8486 132.346 44.4483 133.368 43.4188C134.7 42.0759 134.436 40.5513 135.545 40.0151C130.936 39.2011 129.334 43.054 129.864 44.041ZM134.519 44.0482C134.961 44.8558 136.957 44.4554 137.978 43.4258C139.31 42.083 139.046 40.5584 140.111 40.0221C135.591 39.2082 133.989 43.0611 134.519 44.0482ZM106.59 44.0053C107.032 44.813 109.028 44.4125 110.049 43.383C111.381 42.0402 111.117 40.5156 112.182 39.9792C107.617 39.1653 106.015 43.0182 106.59 44.0053ZM101.935 43.9982C102.377 44.8058 104.373 44.4054 105.394 43.3759C106.77 42.0331 106.462 40.5084 107.571 39.9722C102.962 39.1582 101.36 43.0111 101.935 43.9982ZM97.2799 44.0807C97.722 44.8883 99.7619 44.488 100.783 43.4585C102.115 42.1156 101.851 40.6358 102.961 40.0548C98.307 39.2407 96.7052 43.0488 97.2799 44.0807ZM27.582 48.9051C27.5383 48.4568 27.539 48.0533 27.4962 47.0222C27.3227 44.5563 26.8809 43.5693 26.4832 42.717C25.9086 41.5505 26.397 41.103 26.663 41.1034C26.796 41.1036 26.9287 41.2831 27.1503 41.2834C27.505 41.284 27.8158 40.9706 27.8164 40.5672C27.8164 40.5672 27.8164 40.5672 27.8165 40.5224C27.8615 40.119 27.5517 39.715 27.1528 39.6696C27.1085 39.6695 27.1085 39.6695 27.0642 39.6694C26.1775 39.6681 25.9544 40.6092 25.8204 41.2366C25.7752 41.8193 25.464 42.4016 24.9758 42.7595C24.887 42.849 24.7096 42.8936 24.5765 42.9382C24.4435 42.938 24.2663 42.8481 24.2222 42.7135C24.1782 42.4893 24.1785 42.31 24.2232 42.0859L24.225 40.8755C24.2254 40.6065 24.1815 40.3823 24.3147 40.248C24.4034 40.2033 24.4479 40.1137 24.448 40.0241C24.4483 39.8447 24.2709 39.8445 24.1823 39.8443C24.0936 39.8442 24.005 39.8441 23.9606 39.844C23.8719 39.8887 23.7832 39.8886 23.6946 39.8884L22.4089 39.8864C22.1873 39.8861 21.7441 39.7509 21.7437 40.0199C21.7435 40.1992 22.0096 40.11 22.0532 40.5583C22.0969 40.9619 22.0081 41.0514 22.0066 42.0825L22.0054 42.8446C22.0045 43.4274 22.0036 44.0102 22.0028 44.5481C21.9974 48.0897 22.0856 48.3588 22.0406 48.807C21.9956 49.2104 21.8627 49.1654 21.7739 49.2549C21.6851 49.3444 21.6848 49.5237 21.7734 49.6135C21.8176 49.6584 21.8619 49.7033 21.9505 49.7035C22.1279 49.7037 22.1723 49.659 22.4826 49.6594L23.7239 49.6613C24.0342 49.6618 23.9012 49.7064 24.2558 49.707C24.6105 49.7075 24.5667 49.3488 24.3896 49.2141C24.2125 49.0793 24.2123 49.169 24.2129 48.8103L24.2196 44.417C24.2199 44.2377 24.2202 44.0584 24.176 43.9238C24.1318 43.8341 24.132 43.7444 24.1322 43.61C24.1325 43.4306 24.2657 43.2964 24.4431 43.2518C24.7534 43.2523 24.8859 43.5663 24.9741 43.8354C25.2377 45.4497 25.4125 47.1086 25.4099 48.7673C25.4094 49.0811 25.3208 49.0362 25.232 49.1705C25.1432 49.26 25.0986 49.4393 25.1871 49.5291C25.2313 49.6188 25.3642 49.6639 25.4529 49.6192C25.5416 49.6193 25.6747 49.5747 25.8077 49.5749C25.9407 49.5302 26.0294 49.5304 26.1624 49.5306L27.1377 49.5321C27.4037 49.5325 27.7139 49.6226 27.8027 49.5331C27.8915 49.4436 27.936 49.3092 27.8476 49.1745L27.8033 49.1296C27.7147 49.0847 27.6259 49.1742 27.582 48.9051ZM111.2 44.0124C111.687 44.8201 113.682 44.4197 114.704 43.3902C116.036 42.0473 115.772 40.5227 116.837 39.9864C112.316 39.1725 110.67 43.0253 111.2 44.0124ZM90.2449 35.0592C89.4913 35.0132 89.1765 37.9266 89.1765 37.9266C89.1765 37.9266 89.7116 35.9101 90.1099 36.4039C91.6588 38.1546 90.7175 44.9224 90.7175 44.9224C92.23 41.5177 91.3088 35.1056 90.2449 35.0592ZM139.484 44.4144L149.281 44.4294L149.282 44.0708L139.484 44.0558L139.484 44.4144ZM137.975 45.6673C136.957 44.6347 134.918 44.2281 134.518 45.0344C133.984 46.0198 135.574 49.8328 140.142 49.0777C139.034 48.538 139.303 47.0591 137.975 45.6673ZM139.968 46.9704L149.277 46.9847L149.278 46.6261L139.968 46.6118L139.968 46.9704ZM77.3328 42.4811C76.1802 42.4345 75.6418 46.6477 75.6418 46.6477C75.6418 46.6477 76.4886 43.6902 77.1525 44.4085C79.6312 46.9676 78.1531 56.8279 78.1531 56.8279C80.5104 51.8554 79.0174 42.5285 77.3328 42.4811ZM141.294 49.4829L149.274 49.4952L149.274 49.1365L141.294 49.1243L141.294 49.4829ZM139.482 45.6248L149.279 45.6398L149.28 45.2812L139.483 45.2662L139.482 45.6248ZM139.929 43.115L149.283 43.1294L149.284 42.7707L139.93 42.7564L139.929 43.115ZM141.219 40.5617L149.287 40.5741L149.288 40.2154L141.219 40.2031L141.219 40.5617ZM140.507 41.9055L149.285 41.919L149.286 41.5603L140.508 41.5469L140.507 41.9055ZM140.586 48.1818L149.276 48.1951L149.276 47.7916L140.587 47.7783L140.586 48.1818ZM105.39 45.6622C104.372 44.6296 102.378 44.223 101.933 45.0293C101.4 46.0147 102.99 49.8277 107.557 49.0726C106.45 48.4881 106.718 47.0091 105.39 45.6622ZM100.736 45.5654C99.7175 44.5328 97.6789 44.1262 97.2343 44.9324C96.7008 45.9179 98.2909 49.7308 102.858 48.9757C101.795 48.3913 102.063 46.9123 100.736 45.5654ZM110.045 45.6693C109.027 44.6367 107.033 44.2302 106.588 45.0364C106.055 46.0219 107.645 49.8348 112.212 49.0797C111.105 48.4952 111.373 47.0163 110.045 45.6693ZM84.078 38.0981C83.1028 38.0518 82.6539 41.6823 82.6539 41.6823C82.6539 41.6823 83.3672 39.1281 83.9425 39.7566C86.0672 41.9117 84.8129 50.3826 84.8129 50.3826C86.77 46.1268 85.4966 38.1451 84.078 38.0981ZM96.5872 33.2757C96.4547 32.9169 94.0235 28.3405 84.7954 32.8542C76.6321 36.8315 70.9039 42.9196 67.4389 47.5765C67.5726 47.0836 67.6177 46.5905 67.6185 46.0974C67.6192 45.6491 67.5754 45.2456 67.4431 44.8419C67.2226 44.0347 66.6473 43.4062 65.8497 43.136C65.451 42.956 64.9634 42.9104 64.5199 42.9994C64.3426 42.9991 64.2096 42.9989 64.2102 42.5955C64.2553 42.1473 64.256 41.6541 64.2124 41.2058C64.1243 40.8022 64.3466 40.399 64.7457 40.31C64.8344 40.3101 64.8788 40.2654 64.9674 40.3103C65.1891 40.3107 65.5879 40.4009 65.7199 41.0288C65.7636 41.4771 65.7626 42.1496 66.2502 42.1503C66.5605 42.1508 66.6053 41.8819 66.6055 41.7474C66.6062 41.2543 66.5176 41.2541 66.4743 40.5368C66.4311 39.8194 66.4755 39.7747 66.1209 39.7741C65.9879 39.7739 65.8105 39.8185 65.6774 39.8631C65.5887 39.9078 65.5 39.9077 65.4113 39.9075L63.1504 39.9041C62.6627 39.9033 62.3525 39.8132 62.0422 39.8127C61.7319 39.8122 61.7317 39.9467 61.7316 39.9916C61.7314 40.126 61.8201 40.1262 61.9087 40.1711C61.9973 40.2161 61.9967 40.5748 61.9966 40.6644C61.9962 40.9334 61.9945 42.0093 61.9938 42.5024L61.9892 45.4612C61.9881 46.1784 61.9852 48.1061 62.0285 48.7786C62.0281 49.0028 62.0281 49.0476 61.8949 49.1819C61.7616 49.3162 61.7173 49.3161 61.7171 49.4506C61.7165 49.8541 62.2932 49.6308 62.6478 49.6313L63.9778 49.6334C64.1995 49.6337 64.421 49.6789 64.5984 49.6792C64.7757 49.6794 64.9086 49.7245 65.086 49.7247C65.352 49.7252 65.6623 49.6808 65.9285 49.5916C64.951 51.0246 64.0621 52.4578 63.2617 54.0256C73.8816 38.0825 85.1481 34.1548 85.1481 34.1548C87.3216 33.3512 93.5311 31.3882 95.3001 34.2152C97.6439 38.0293 95.1555 41.7912 95.1555 41.7912C95.1555 41.7912 98.4867 37.7168 96.5872 33.2757ZM65.177 48.1558C65.1765 48.4697 65.1758 48.9628 64.8652 49.1416C64.7765 49.1863 64.6877 49.231 64.5991 49.2309C64.2887 49.2304 64.2006 48.9165 64.2009 48.6923C64.2012 48.4682 64.2455 48.5131 64.246 48.1993C64.2463 48.0199 64.2913 47.5717 64.2915 47.3924L64.2949 45.1957C64.2953 44.9268 64.2957 44.6578 64.2075 44.3887C64.2077 44.2542 64.1636 44.1196 64.1638 43.9403C64.1641 43.761 64.2087 43.5817 64.3419 43.4923C64.3863 43.4475 64.4749 43.4476 64.5636 43.4478C64.7409 43.4481 65.0955 43.4934 65.1828 44.3902C65.1824 44.6591 65.182 44.9281 65.1816 45.1971L65.177 48.1558ZM114.7 45.6765C113.682 44.6438 111.688 44.2373 111.199 45.0435C110.665 46.0289 112.255 49.8419 116.823 49.0868C115.76 48.5024 116.028 47.0234 114.7 45.6765ZM128.665 45.6979C127.647 44.6652 125.652 44.2587 125.164 45.0649C124.63 46.0503 126.22 49.8633 130.788 49.1082C129.724 48.5238 129.993 47.0448 128.665 45.6979ZM133.32 45.705C132.302 44.6724 130.263 44.2658 129.818 45.072C129.285 46.0575 130.875 49.8704 135.442 49.1153C134.379 48.5309 134.648 47.0519 133.32 45.705ZM119.355 45.6836C118.337 44.651 116.343 44.2444 115.854 45.0506C115.32 46.0361 116.91 49.849 121.478 49.0939C120.415 48.5095 120.683 47.0305 119.355 45.6836ZM124.01 45.6907C122.992 44.6581 120.998 44.2516 120.509 45.0578C119.975 46.0432 121.565 49.8562 126.133 49.1011C125.07 48.5166 125.338 47.0377 124.01 45.6907ZM103.103 34.0926L103.812 34.0937L104.873 35.8885L105.583 35.8896L104.433 34.0947C105.009 34.0956 105.497 33.648 105.498 33.0652C105.498 33.0204 105.498 33.0204 105.498 32.9756C105.5 32.1686 105.013 31.8092 104.082 31.8078L102.53 31.8054L102.524 35.8849L103.144 35.8859L103.103 34.0926ZM103.106 32.2994L103.948 32.3007C104.391 32.3014 104.834 32.3918 104.834 32.8849C104.833 33.5125 104.389 33.5566 103.857 33.5558L103.148 33.5547L103.106 32.2994ZM103.851 37.6802C105.979 37.6386 107.666 35.8928 107.67 33.741C107.629 31.5891 105.902 29.8829 103.774 29.8797C101.691 29.9213 99.959 31.6222 99.9558 33.7292C99.9525 35.881 101.634 37.6319 103.762 37.68C103.807 37.7249 103.807 37.7249 103.851 37.6802ZM103.862 30.5522C105.635 30.5101 107.096 31.9469 107.138 33.7402C107.179 35.5334 105.758 37.0106 103.985 37.0527C102.212 37.0949 100.751 35.6581 100.709 33.8648C100.709 33.82 100.709 33.82 100.709 33.7752C100.668 32.0267 102.044 30.5943 103.729 30.552C103.773 30.5521 103.818 30.5522 103.862 30.5522Z" fill="#CAD1E1"/>
<path d="M50.7364 69.383L51.0023 69.4282C51.6228 69.5189 52.1997 69.1163 52.3338 68.444C52.3338 68.3992 52.3339 68.3544 52.334 68.3095C52.4678 67.7718 52.1583 67.2334 51.6265 67.0981C51.5822 67.098 51.5379 67.0531 51.4493 67.053C50.7844 66.9623 50.2074 67.4097 50.1177 68.082C50.1176 68.1268 50.1176 68.1268 50.1176 68.1717L49.63 68.1261L49.8096 66.6021L50.2972 66.6477L50.3853 67.0513C50.7848 66.6933 51.3614 66.5149 51.8933 66.6053C52.5581 66.696 53.7101 67.1012 53.5751 68.4459C53.5297 69.1183 53.0413 69.6107 52.3761 69.7442L52.1544 69.7438L52.1544 69.7886L52.376 69.8338C53.1293 70.0143 53.6602 70.7324 53.526 71.5391C53.4809 72.0322 53.2586 72.4353 52.9478 72.7935C52.3707 73.2857 51.6168 73.4639 50.8633 73.3282C50.287 73.3273 49.7554 73.0575 49.357 72.6535L49.312 73.1017L48.8244 73.0561L49.0487 71.3529L49.5363 71.3985C49.4466 72.0708 49.9334 72.6543 50.5539 72.745C50.5982 72.745 50.6425 72.7451 50.6869 72.7452C51.396 72.8807 52.0616 72.4783 52.1957 71.7612C52.1958 71.7164 52.2402 71.6268 52.2403 71.582C52.285 71.3131 52.2411 71.044 52.1529 70.7749C51.9763 70.2815 51.4891 69.9669 50.9571 69.9661L50.6912 69.9209L50.7364 69.383ZM62.8768 73.7501L63.586 73.796L63.5408 74.3339L60.9255 74.1506L60.9707 73.6127L61.6799 73.6586L61.9974 68.9968L61.5535 69.3548L61.2881 68.9509L62.6643 67.7426L63.3735 67.7885L62.8768 73.7501ZM68.6417 72.6382C67.7108 72.5919 66.914 71.7838 67.005 70.2597C67.0962 68.646 68.1612 67.9752 69.0478 67.9765C70.0231 68.0228 71.0857 68.8762 70.9934 71.2521C70.9022 72.9106 70.3673 74.8375 68.7271 74.7453C67.9291 74.7441 67.2208 74.1154 67.222 73.3085L67.2221 73.2636L68.1973 73.31C68.2408 73.848 68.3288 74.2964 68.8165 74.2972C69.57 74.3431 69.7049 73.1329 69.7507 72.1468C69.4399 72.4601 69.0407 72.6388 68.6417 72.6382ZM69.0471 68.4697C68.3821 68.4238 68.2476 69.4547 68.2021 70.1719C68.1564 71.1132 68.1992 72.0996 68.8642 72.1006C69.1745 72.1011 69.6626 71.8328 69.7536 70.2639C69.7549 69.4122 69.712 68.5155 69.0471 68.4697ZM77.4633 73.0104C77.4616 74.0863 76.5736 74.9815 75.5096 74.9799C75.4653 74.9798 75.4209 74.9797 75.3766 74.9797C74.3126 74.978 73.4716 74.1698 73.4732 73.0939C73.4733 73.0491 73.4734 72.9594 73.4735 72.9146L74.5374 72.961C74.5355 74.1714 74.9783 74.5308 75.3773 74.5314C76.0866 74.5325 76.1767 73.636 76.1775 73.0532C76.2239 71.7084 75.6035 71.573 75.2046 71.5275L74.8942 71.527L74.8947 71.2132L75.2051 71.2137C75.6484 71.2144 76.0476 71.0805 76.0938 69.8702C76.0944 69.4667 76.0512 68.7494 75.4748 68.7485C74.8985 68.7476 74.7646 69.3302 74.7191 70.0922L73.7439 70.0459C73.7006 69.3734 74.0563 68.7015 74.6773 68.4335C74.9435 68.2994 75.2096 68.255 75.5199 68.2554C76.4067 68.1671 77.2036 68.8856 77.2465 69.7823C77.2465 69.8271 77.2463 69.9168 77.2463 69.9616C77.2454 70.5444 76.8456 71.0817 76.269 71.2602C77.0665 71.5304 77.5088 72.2483 77.4633 73.0104ZM82.081 68.3551C83.1006 68.3567 83.9415 69.2994 83.9377 71.765C83.9339 74.2307 83.0459 75.1259 82.0262 75.1243C81.0066 75.1228 80.1657 74.1801 80.1695 71.7144C80.1733 69.2488 81.0613 68.3536 82.081 68.3551ZM82.027 74.6312C82.7363 74.6323 82.7392 72.7495 82.7408 71.7184C82.7424 70.6873 82.8339 68.8046 82.0803 68.8034C81.3266 68.8023 81.3681 70.6852 81.3666 71.6715C81.365 72.6577 81.2734 74.6301 82.027 74.6312ZM92.9774 74.4239L93.6867 74.4249L93.6859 74.9629L91.0259 75.0037L91.0267 74.4657L91.7361 74.4668L91.6557 69.0423L90.9464 69.0412L90.9472 68.5032L93.1639 68.4618C94.0949 68.4632 94.9371 68.5093 95.4235 69.317C95.6447 69.6312 95.7328 70.0348 95.7322 70.3934C95.7316 70.7969 95.6423 71.2002 95.4645 71.5137C94.9756 72.3199 94.133 72.498 92.9804 72.4962L92.9774 74.4239ZM92.9369 71.9582C93.5573 72.0936 94.1786 71.6911 94.3569 71.0637C94.4459 70.8397 94.4462 70.6156 94.4467 70.3466C94.4471 70.0776 94.4031 69.8086 94.2705 69.5842C94.0053 69.0907 93.4293 68.8208 92.8528 68.9544L92.9369 71.9582ZM101.1 68.0705C102.962 67.9837 104.512 69.4206 104.597 71.2588C104.683 73.1417 103.262 74.7086 101.444 74.7955C99.6266 74.8824 98.0328 73.4454 97.947 71.6072L97.9471 71.5624C97.8611 69.7691 99.2379 68.1573 101.1 68.0705ZM101.356 74.347C102.598 74.3041 103.132 72.9152 103.09 71.3909C103.048 69.8667 102.341 68.5207 101.099 68.5636C99.8579 68.6065 99.3238 69.9954 99.3658 71.5197C99.4077 73.044 100.115 74.39 101.356 74.347ZM110.942 68.1304L110.232 68.1741L110.189 67.6361L112.317 67.4601L112.361 67.9981L111.607 68.0418L110.097 69.9223L111.689 72.5249C111.954 72.9736 112.396 73.4674 112.84 73.4232L113.017 73.4235L113.061 73.9167C112.795 74.0508 112.484 74.0951 112.174 74.0946C111.509 74.1385 110.933 73.7789 110.624 73.1957L109.297 70.9522L108.853 71.5343L109.027 73.6864L109.692 73.6425L109.735 74.1806L107.12 74.3559L107.076 73.8179L107.741 73.774L107.351 68.3042L106.685 68.348L106.642 67.81L109.258 67.6347L109.301 68.1727L108.636 68.2165L108.81 70.7721L110.942 68.1304ZM118.967 67.2909L118.302 67.3796L118.259 66.8416L120.077 66.6202L120.12 67.1582L119.455 67.2469L118.028 72.4449C117.85 72.9826 117.761 73.5653 117.051 73.6538C116.785 73.6982 116.519 73.653 116.253 73.5181L116.521 72.5771C116.698 72.7119 116.919 72.8019 117.141 72.8022C117.451 72.7578 117.54 72.5338 117.585 72.3098L117.63 72.0857L114.977 67.7331L114.445 67.7771L114.401 67.2391L116.884 66.9739L116.928 67.512L116.218 67.6005L117.943 70.4275L118.031 70.6966L118.075 70.6966L118.076 70.4277L118.967 67.2909Z" fill="#CAD1E1"/>
<path d="M46.5247 11.6358L44.8927 6.25376L45.558 6.03063L45.3815 5.4924L42.8089 6.34022L42.9854 6.87845L43.6507 6.65532L44.3567 8.85306L41.7842 9.65605L41.1226 7.45838L41.7879 7.23525L41.6114 6.69702L39.0389 7.50002L39.2154 8.03824L39.8807 7.81511L41.5571 13.1972L40.8918 13.4204L41.0683 13.9586L43.6408 13.1556L43.4643 12.6174L42.7103 12.8404L41.9163 10.239L44.4888 9.43605L45.2828 12.0374L44.6175 12.2605L44.794 12.7987L47.3665 11.9958L47.19 11.4575L46.5247 11.6358ZM58.0551 9.05338C57.7003 9.14249 57.3014 9.09705 56.9913 8.96209C56.3268 8.64726 55.6631 7.74965 55.4433 6.58374C55.0475 4.47614 55.9357 3.49125 56.8669 3.31335C57.6652 3.13526 58.4624 3.62961 58.6828 4.43688L59.1706 4.34797L58.8189 2.46458L58.3754 2.55356L58.1972 3.13608C57.6657 2.82145 57.0895 2.73091 56.4686 2.86445C55.9808 2.95336 55.5372 3.132 55.1822 3.40043C54.2501 4.07145 53.7162 5.32586 53.9799 6.85047C54.3758 8.86842 56.0586 10.0366 57.8768 9.68072C58.8081 9.50283 59.5627 8.87637 60.0072 8.07012L59.5201 7.75556C59.2974 8.42767 58.7203 8.91991 58.0551 9.05338ZM51.5363 10.3434L50.2146 4.91703L50.8799 4.73873L50.7477 4.20057L48.1311 4.82417L48.2633 5.36233L48.9286 5.18403L50.2501 10.6553L49.5849 10.8336L49.717 11.3717L52.3337 10.7033L52.2015 10.1651L51.5363 10.3434ZM138.519 8.81809C137.234 8.32299 136.169 8.90415 135.813 9.88985C135.501 10.6963 135.81 11.6382 136.519 12.0428L136.519 12.0876C136.297 12.0424 136.075 12.0869 135.72 12.4002L134.832 13.2057C134.389 13.6085 134.255 13.7428 133.679 13.5626L133.501 14.0555C133.811 14.2353 134.121 14.4151 134.476 14.5501C134.83 14.73 135.229 14.6409 135.54 14.3724L136.872 13.0744C137.227 12.7611 137.405 12.5372 137.981 12.8519L137.224 14.8681L136.559 14.5981L136.337 15.1357L138.862 16.1259L139.085 15.5882L138.42 15.3182L140.423 10.0762L141.088 10.3462L141.31 9.80862L138.519 8.81809ZM138.114 12.4038C136.874 11.9985 136.742 11.3258 137.053 10.4745C137.365 9.62326 138.031 9.22081 138.651 9.49074L139.138 9.6708L138.114 12.4038ZM36.4646 9.46858C35.6675 8.88457 34.9135 9.10756 33.982 9.46477L31.897 10.3133L32.1179 10.8516L32.7833 10.5837L34.8589 15.7871L34.2379 16.0551L34.4587 16.5934L36.9871 15.611L36.7663 15.0727L36.0123 15.2957L35.2616 13.4117C36.3261 13.0099 37.1249 12.518 37.2594 11.532C37.3936 10.7701 37.0845 9.96265 36.4646 9.46858ZM35.0849 12.9632L33.9367 10.0923C34.7352 9.7349 35.2226 9.91497 35.5325 10.1844C35.7096 10.364 35.8865 10.6333 35.9747 10.9024C36.063 11.1267 36.107 11.3509 36.1066 11.6199C36.1943 12.2476 35.7501 12.8297 35.0849 12.9632ZM31.2655 17.4403L28.835 12.3708L29.4561 12.058L29.1908 11.5644L26.795 12.7711L27.0602 13.3095L27.6813 12.9967L30.1119 18.0661L29.4907 18.379L29.756 18.8725L32.1518 17.6658L31.8865 17.1723L31.2655 17.4403ZM116.095 3.26966L116.804 3.40524L116.76 3.62932L113.429 7.16576L114.145 2.90804L114.854 3.04361L114.944 2.50579L112.284 2.00859L112.195 2.59124L112.904 2.72681L111.92 8.23936L111.211 8.10378L111.122 8.6416L113.781 9.09397L113.87 8.55616L113.161 8.42058L113.206 8.06201L116.581 4.57047L115.82 8.91778L115.111 8.78221L115.022 9.36486L117.681 9.81723L117.771 9.27941L117.061 9.14383L118.09 3.63136L118.799 3.76693L118.888 3.22911L116.229 2.77674L116.095 3.26966ZM98.8096 0.553382L98.056 0.507397L95.4312 6.51055L94.7663 6.4647L94.7211 7.04742L96.5386 7.13987L96.5837 6.60198L95.9631 6.5562L96.4971 5.30178L99.1567 5.48518L99.5536 6.83068L98.8444 6.78476L98.7992 7.36748L101.503 7.55094L101.548 6.96823L100.883 6.92238L98.8096 0.553382ZM96.6752 4.7641L97.8764 1.9865L97.9211 1.76242L97.9655 1.76249L97.9651 1.98664L98.8916 4.90199L96.6752 4.7641ZM24.3937 17.6091C24.9708 17.1168 25.1051 16.2653 24.707 15.637C24.4417 15.1883 23.6892 14.4251 22.1806 15.3194L19.7844 16.7951L20.0939 17.2887L20.7151 16.931L23.6337 21.7322L23.0568 22.09L23.3664 22.5836L25.8958 21.0184C26.9607 20.3925 27.3171 19.2274 26.7423 18.2403C26.3446 17.4327 25.4141 17.1175 24.6598 17.5198C24.4824 17.5644 24.4381 17.5643 24.3937 17.6091ZM21.7801 16.2602L22.1351 16.0366C22.7119 15.7237 23.3766 15.9488 23.6861 16.4872C23.9512 17.0256 23.8173 17.653 23.3291 18.0109L22.9741 18.2345L21.7801 16.2602ZM25.1425 20.7931L24.6987 21.0614L23.2837 18.7281L23.6387 18.5045C24.1713 18.057 24.9691 18.1927 25.4116 18.7314C25.4559 18.7763 25.5001 18.8212 25.5 18.9108C25.8981 19.4942 25.7638 20.3458 25.1425 20.7931C25.1425 20.7483 25.1425 20.7931 25.1425 20.7931ZM130.587 6.69893L131.251 6.9241L129.603 12.3011L128.938 12.076L128.76 12.6137L131.33 13.4245L131.508 12.8868L130.843 12.6617L132.492 7.28464L133.157 7.50981L133.335 6.97213L130.765 6.16125L130.587 6.69893ZM90.6087 0.182172L88.3478 0.133877L88.347 0.671832L89.0563 0.672919L88.9146 6.32124L88.2053 6.32016L88.2044 6.90294L90.9086 6.95192L90.9095 6.36913L90.2002 6.36804L90.2476 4.35078C91.4002 4.39738 92.2871 4.26425 92.8203 3.45813C93.2204 2.74147 93.266 1.88977 92.8681 1.17189C92.3818 0.31938 91.5839 0.228497 90.6087 0.182172ZM91.757 3.0082C91.5344 3.63548 90.9132 3.99316 90.2484 3.85766L90.2975 0.764481C90.8739 0.675706 91.4498 0.945567 91.715 1.48393C91.8476 1.75311 91.8915 2.02216 91.8468 2.29107C91.8908 2.51528 91.846 2.78419 91.757 3.0082ZM125.313 5.2563L125.978 5.43664L124.64 10.8141L122.114 10.1827L123.408 4.80508L124.072 4.98542L124.206 4.44767L121.68 3.77135L121.546 4.3091L122.255 4.48951L120.917 9.95668L120.252 9.77634L120.119 10.3141L125.614 11.6674L125.168 13.5047L126.143 13.7304L126.722 11.3553L125.969 11.1748L127.307 5.70765L127.972 5.88799L128.106 5.35024L125.491 4.67379L125.313 5.2563ZM66.2663 2.70015L66.8428 2.61137L66.6674 1.35587L61.3907 2.10989L61.5661 3.36539L62.0982 3.27654L62.0106 2.60396L63.4295 2.38199L64.1747 7.94202L63.4652 8.03059L63.5531 8.56868L66.2135 8.21412L66.1258 7.58637L65.4164 7.67494L64.6713 2.11492L66.0902 1.89294L66.2663 2.70015ZM107.276 1.3733L105.592 1.19139L105.546 1.72928L106.211 1.81996L103.676 7.19564L103.011 7.10496L102.741 9.52535L103.672 9.61644L103.897 7.73393L108.285 8.23379L108.06 10.1163L108.991 10.2522L109.261 7.83181L108.596 7.74114L107.276 1.3733ZM104.297 7.10693L106.254 2.94077L106.343 2.6271L106.387 2.62716L106.387 2.94097L107.178 7.46998L104.297 7.10693ZM72.2498 3.65074L71.4516 3.73918L71.1891 1.45246L71.8985 1.40872L71.8551 0.825869L69.1947 1.09077L69.2383 1.62879L69.9476 1.58505L70.4267 7.1895L69.7173 7.23324L69.7608 7.81609L72.2437 7.59575C73.8399 7.41888 74.7277 6.70296 74.5968 5.35787C74.4656 4.14727 73.5355 3.56306 72.2498 3.65074ZM72.2446 7.01296L71.7569 7.05705L71.4951 4.32203L71.8941 4.27782C72.5593 4.18918 73.2236 4.63849 73.3112 5.31107C73.3111 5.3559 73.311 5.40073 73.3109 5.49039C73.4428 6.20787 72.9985 6.87963 72.2889 7.01303C72.289 6.9682 72.2446 7.01296 72.2446 7.01296ZM80.5008 0.256336L80.5432 1.51163L81.1195 1.51252L81.1206 0.795243L82.5836 0.752656L82.7081 6.35656L81.9987 6.35547L81.9978 6.93826L84.7022 6.89757L84.7031 6.31479L83.9494 6.31363L83.8251 0.6649L85.2881 0.622313L85.287 1.33959L85.819 1.3404L85.8209 0.130003L80.5008 0.256336ZM149.506 13.8559L145.511 17.0775L145.785 11.9225L144.101 11.0233L143.835 11.516L144.455 11.8308L141.92 16.8478L141.3 16.5331L141.033 17.0258L142.716 17.8801L142.983 17.3874L142.363 17.0726L144.542 12.7723L144.312 18.0619L144.932 18.3766L148.972 15.1103L146.793 19.4106L146.173 19.0958L145.906 19.5885L148.254 20.8025L148.52 20.3098L147.9 19.9951L150.479 14.9781L151.099 15.2929L151.366 14.8001L149.506 13.8559Z" fill="#CAD1E1"/>
<path d="M0.990125 44.1571C0.973631 54.9162 38.421 63.7154 84.4823 63.786C131.297 63.8578 168.017 55.3516 168.034 44.4132C168.051 33.6541 130.603 24.8549 84.5421 24.7843C38.4808 24.7137 1.00662 33.398 0.990125 44.1571ZM6.66466 44.1658C6.67964 34.393 41.6257 26.5117 84.5393 26.5775C127.453 26.6433 162.375 34.6317 162.36 44.4045C162.345 54.1774 127.399 62.0586 84.485 61.9929C41.5714 61.9271 6.64975 53.8938 6.66466 44.1658Z" fill="#CAD1E1"/>
</g>
<defs>
<clipPath id="clip0">
<rect width="167" height="75" fill="white" transform="translate(1.05762) rotate(0.0878343)"/>
</clipPath>
</defs>
</svg>
