<svg width="270" height="227" viewBox="0 0 270 227" fill="none" xmlns="http://www.w3.org/2000/svg">
<path d="M135.44 15.85C136.74 15.85 138.04 15.85 139.35 15.93C193.22 18.11 235.13 63.8 233 118C230.89 170.59 187.93 212.16 135.61 212.24C134.31 212.24 133.01 212.24 131.7 212.16C77.8001 210 35.8901 164.28 38.0601 110.09C40.1601 57.5 83.1101 15.93 135.44 15.85V15.85ZM135.44 6.28002C76.2601 6.34002 28.3401 54.65 28.4401 114.17C28.4348 134.569 34.2161 154.55 45.1128 171.794C56.0095 189.039 71.5744 202.838 90.0001 211.59C102.96 217.737 117.036 221.18 131.37 221.71C132.79 221.77 134.23 221.8 135.65 221.8C194.83 221.74 242.75 173.44 242.7 113.92C242.707 93.5172 236.926 73.5311 226.027 56.2831C215.128 39.0351 199.56 25.233 181.13 16.48C168.166 10.3341 154.087 6.88765 139.75 6.35002C138.32 6.29002 136.89 6.27002 135.47 6.27002L135.44 6.28002Z" fill="white"/>
<path d="M135 212.87C189.229 212.87 233.19 168.909 233.19 114.68C233.19 60.4512 189.229 16.49 135 16.49C80.7712 16.49 36.8101 60.4512 36.8101 114.68C36.8101 168.909 80.7712 212.87 135 212.87Z" fill="#61277F"/>
<path d="M96.3301 155.47C96.0301 155.61 96.1301 155.88 96.5001 155.9C96.8493 155.915 97.1958 155.832 97.5001 155.66C97.4132 155.472 97.287 155.305 97.1301 155.17C96.852 155.236 96.5833 155.337 96.3301 155.47V155.47Z" fill="#B21117"/>
<path d="M106.5 217.5C105.59 217.5 104.84 216.35 104 216C102.28 215.301 100.722 216.21 100 214.5C99.278 212.79 98.3012 214.8 99.0001 213.08C99.8719 210.944 100.35 208.667 100.41 206.36C97.4472 207.541 94.2664 208.077 91.0801 207.93C90.8156 207.922 90.5519 207.898 90.2901 207.86C85.0066 207.022 79.9754 205.02 75.5601 202C73.7801 201.09 72.1801 200.12 70.6201 199.18C67.6201 197.39 65.0601 195.84 61.9501 195.03H61.7501C59.4301 194.35 53.7501 194.52 48.6601 194.66C36.0601 195.02 21.7901 195.44 15.1201 186.95L14.9401 186.71C10.7101 184.24 8.42006 178.92 8.94006 172.27C8.93018 172.164 8.93018 172.056 8.94006 171.95C9.27775 168.131 10.9115 164.542 13.5701 161.78C13.7501 156.78 15.3301 153.19 20.4901 149.45C20.6301 149.35 20.7701 149.25 20.9101 149.17C30.0901 143.47 42.7801 140.95 51.8001 139.84H51.9501C54.5217 139.58 57.1055 139.46 59.6901 139.48C59.6901 134.09 60.8101 128.55 64.1001 124.48C68.6201 118.27 74.9701 117.74 79.4601 118.08C79.3801 117.62 79.3101 117.16 79.2501 116.69C78.3462 109.831 77.8985 102.919 77.9101 96C77.9101 95.56 77.9101 95.13 77.9101 94.7C70.7001 93.9 59.6201 91.21 53.7101 86.15C49.4901 82.81 48.0501 76.83 49.9601 70.45C51.8701 64.07 57.1401 57.34 64.5601 56.87H64.8801C68.6388 56.819 72.3066 58.0264 75.3001 60.3L82.1401 65.3C85.0001 66.9 85.1901 66.78 89.0701 64C90.4401 63 92.0001 61.93 93.9201 60.74L94.4501 60.45L98.7501 58.29L99.0701 58.14C103.86 56.04 110.36 56.05 115.62 56.68C116.24 51.44 118.37 43.94 127.22 40.99C128.288 40.6314 129.428 40.5387 130.54 40.72L131.33 40.84C136.58 41.67 144.49 42.91 146.53 54.13C146.903 55.6171 146.981 57.1629 146.76 58.68C159.76 55.17 176.21 53.25 188.56 55.78C190.8 56.2161 192.967 56.9634 195 58C194.996 56.3854 194.798 54.7772 194.41 53.21C193.2 47.6 195.13 42.6 199.57 39.82C204.79 36.56 212.57 37.3 218 41.59C218.272 41.8056 218.526 42.0431 218.76 42.3C224.76 48.62 224.17 55.3 222.87 61C233.53 63.14 242.75 66.66 253.81 72.66C255.836 73.6937 257.628 75.1337 259.073 76.8903C260.518 78.647 261.586 80.6825 262.21 82.87C262.686 84.6143 262.829 86.4328 262.63 88.23C264.205 90.3089 265.256 92.7359 265.697 95.3064C266.137 97.8769 265.953 100.516 265.16 103C265.029 103.398 264.861 103.783 264.66 104.15C263.339 106.808 261.28 109.03 258.73 110.55C257.537 112.443 255.872 113.993 253.9 115.05C246.55 119.05 235.96 116.47 225.54 112.99C210.54 110.23 207.37 114.51 199.4 134.99C199.263 135.335 199.099 135.67 198.91 135.99C196.64 139.85 193.51 148.61 194.53 155.99L194.89 157.21L197.89 165.21C197.921 165.282 197.948 165.355 197.97 165.43C201.37 175.38 200.94 184.67 197.5 200.5C197.102 202.314 193.564 204.141 192 205.142C190.436 206.144 189.314 208.328 187.5 207.93C185.686 207.532 186.174 208.1 185.173 206.536C184.171 204.972 183.832 203.074 184.23 201.26C187.07 188.26 187.23 177.44 184.76 170.04L181.71 162C181.644 161.833 181.588 161.663 181.54 161.49L180.97 159.56C180.883 159.275 180.817 158.984 180.77 158.69C178.9 147.06 183.38 135.13 186.54 129.5C193.67 111.16 200.62 94.02 228.63 99.36C228.943 99.4188 229.251 99.5024 229.55 99.61C241.62 103.67 245.61 103.41 246.9 102.93C247.251 101.767 247.895 100.713 248.77 99.8706C249.646 99.0282 250.724 98.4253 251.9 98.12C251.863 97.6134 251.709 97.1223 251.451 96.6851C251.192 96.2479 250.836 95.8765 250.41 95.6C249.091 94.5557 248.192 93.0713 247.878 91.4186C247.564 89.7658 247.856 88.0553 248.7 86.6C248.591 86.2603 248.411 85.9479 248.171 85.6839C247.932 85.42 247.638 85.2106 247.31 85.07L247.18 85.01C235.01 78.4 225.84 75.31 213.34 73.61C211.605 73.3624 210.026 72.473 208.915 71.1177C207.805 69.7624 207.242 68.0397 207.34 66.29C207.21 66.6 207.06 66.91 206.91 67.22C206.734 67.5711 206.526 67.9058 206.29 68.22L202.12 74C201.369 75.0309 200.35 75.8369 199.174 76.3308C197.997 76.8247 196.709 76.9878 195.446 76.8025C194.184 76.6172 192.997 76.0905 192.012 75.2794C191.028 74.4682 190.283 73.4034 189.86 72.2C189.42 70.95 189.18 70.26 185.75 69.56C168.75 66.08 141.46 73.74 136.49 77.72C135.759 78.3073 134.918 78.7417 134.016 78.9977C133.114 79.2536 132.17 79.3258 131.24 79.21C129.886 79.0479 128.586 78.5802 127.44 77.8422C126.293 77.1042 125.329 76.1152 124.62 74.95C123.977 73.8549 123.593 72.6267 123.5 71.36C121.926 71.8889 120.23 71.9342 118.63 71.49C113.92 70.21 107.3 70 104.82 71L101 72.86C99.5701 73.75 98.3401 74.62 97.1501 75.47C91.9201 79.17 86.0001 83.38 75.0001 77.4C74.7238 77.2547 74.4596 77.0875 74.2101 76.9L66.9201 71.57L66.7701 71.45C66.4082 71.1713 65.9816 70.9889 65.5301 70.92C64.1554 72.1951 63.2798 73.918 63.0601 75.78C66.3101 78.21 76.0001 80.93 81.8801 81C83.5325 81.0145 85.1266 81.6132 86.3801 82.69C87.871 83.0461 89.2039 83.8817 90.174 85.0686C91.1441 86.2555 91.6978 87.728 91.7501 89.26C91.8167 91.4 91.8701 93.5667 91.9101 95.76C91.8959 102.066 92.2934 108.366 93.1001 114.62C93.0952 114.673 93.0952 114.727 93.1001 114.78C93.4508 117.481 94.1954 120.115 95.3101 122.6L99.7901 128.52L107.02 135.52C108.343 136.789 109.116 138.526 109.172 140.359C109.228 142.191 108.563 143.973 107.32 145.32C106.112 146.557 104.833 147.722 103.49 148.81C102.241 149.776 101.074 150.843 100 152L98.2301 156.28L98.1101 156.56L95.8901 161.31C95.1879 162.817 93.9722 164.025 92.4606 164.718C90.9489 165.411 89.2401 165.542 87.6401 165.09C84.1301 164.09 82.6401 161.36 79.6401 155.91C78.9301 154.62 78.2101 153.28 77.6401 152.37C76.9339 151.199 76.5862 149.847 76.6401 148.48C76.8801 141.58 77.1901 138.15 79.4201 132.09C76.0801 131.71 75.7801 132.15 75.4201 132.73C75.2901 132.91 75.1501 133.1 75.0001 133.27C74.1101 134.27 73.1301 138.62 74.2501 145.82C74.4137 146.892 74.3263 147.986 73.9947 149.018C73.6631 150.05 73.0964 150.991 72.3392 151.767C71.582 152.542 70.655 153.132 69.6313 153.488C68.6076 153.844 67.5152 153.958 66.4401 153.82C62.1276 153.266 57.7662 153.206 53.4401 153.64C42.8201 155 34.0001 157.56 28.5201 160.88C28.1844 161.12 27.8668 161.384 27.5701 161.67C27.4946 162.635 27.4946 163.605 27.5701 164.57C27.6483 165.822 27.3889 167.071 26.819 168.188C26.249 169.305 25.3894 170.249 24.3301 170.92C23.8667 171.145 23.4779 171.498 23.2101 171.938C22.9423 172.378 22.8069 172.885 22.8201 173.4C22.777 173.869 22.777 174.341 22.8201 174.81C24.5247 175.642 25.8708 177.063 26.6101 178.81C30.0001 181.19 42.1401 180.81 48.1701 180.66C55.0801 180.46 61.0501 180.29 65.4801 181.55C69.8343 182.819 73.9736 184.734 77.7601 187.23C79.2901 188.15 80.7601 189.02 82.2101 189.76C82.5245 189.921 82.8284 190.101 83.1201 190.3C85.7673 192.18 88.8013 193.444 92.0001 194C94.7701 194 97.0901 192.82 100.14 189.9C100.943 189.111 101.925 188.527 103.002 188.198C104.079 187.869 105.22 187.805 106.327 188.011C107.434 188.218 108.475 188.688 109.362 189.382C110.249 190.077 110.955 190.975 111.42 192C113.31 196.129 114.334 200.602 114.43 205.142C114.527 209.682 113.693 214.194 111.98 218.4C111.451 219.683 110.516 216.729 109.362 217.5C108.208 218.271 107.888 217.502 106.5 217.5ZM91.5701 140C91.5101 140.26 91.4401 140.51 91.3901 140.75L91.8801 140.3L91.5701 140ZM130.57 54.94C129.9 55.66 129.57 57.16 129.33 60.83C129.33 61.07 129.33 61.3 129.33 61.54C130.711 60.2073 131.887 58.6774 132.82 57V56.84C132.744 56.3317 132.617 55.8325 132.44 55.35C131.825 55.1763 131.201 55.0394 130.57 54.94ZM208.5 52.11C208.926 54.357 209.097 56.6447 209.01 58.93C210.01 54.67 210.01 53.55 209.01 52.36C208.84 52.27 208.67 52.18 208.5 52.11Z" fill="white"/>
<path d="M134.33 153.7L127.77 149.64C126.21 148.31 124.45 146.75 124.21 146.43C124.196 146.372 124.164 146.32 124.12 146.281C124.075 146.241 124.019 146.217 123.96 146.21C123.96 146.21 123.31 146.09 120.32 141.89L119.71 141.01L120.1 141.46C120.149 141.514 120.217 141.546 120.29 141.55H120.52L129.64 147.08H129.72L138.91 149.26L145.73 149.83L150.73 149.32C150.95 149.53 151.16 149.8 151.13 149.92C151.1 150.04 151.02 150.05 150.78 150.1C150.736 150.111 150.695 150.134 150.662 150.165C150.628 150.197 150.604 150.236 150.59 150.28C150.24 151.42 148.76 152.74 146.59 153.86H146.53C144.95 155.32 140.6 155.2 140.22 155.18L134.33 153.7Z" fill="#222220"/>
<path d="M120.74 142L129.53 147.34C129.576 147.369 129.627 147.389 129.68 147.4L138.87 149.58H139L145.81 150.15H145.91L150.78 149.66C150.849 149.729 150.912 149.802 150.97 149.88H150.87C150.782 149.904 150.701 149.949 150.635 150.012C150.568 150.075 150.519 150.153 150.49 150.24C150.16 151.29 148.72 152.57 146.66 153.65L146.55 153.73C145.32 154.86 142.06 155.04 140.45 154.98L134.51 153.43L128.03 149.43C126.52 148.13 124.86 146.66 124.54 146.29C124.51 146.196 124.453 146.114 124.377 146.051C124.301 145.989 124.208 145.951 124.11 145.94C123.98 145.87 123.25 145.37 120.81 141.94L120.74 142ZM118.61 139.44C118.48 139.44 118.82 140.05 120.2 141.99C123.94 147.26 124.05 146.25 124.05 146.46C124.05 146.67 127.72 149.83 127.72 149.83L134.27 153.96L140.35 155.56C140.56 155.56 145.16 155.73 146.87 154.16C149.1 152.98 150.59 151.61 150.96 150.43C152.22 150.14 150.96 149.11 150.96 149.11L145.85 149.63L139.06 149.06L129.87 146.88L120.69 141.31H120.39C119.853 140.66 119.258 140.06 118.61 139.52" fill="white"/>
<path d="M140.3 165.42C137.17 165.498 134.073 164.775 131.3 163.32L119.37 156.24C119.285 156.198 119.205 156.148 119.13 156.09L103.9 144.68L101.2 143.12L103.85 138.54L106.64 140.15L106.95 140.35L122.18 151.77L133.99 158.77C137.24 160.7 145.16 160.96 149.67 156.95C153.17 153.84 155.28 150.8 155.92 147.95C155.983 147.525 156.135 147.119 156.368 146.758C156.601 146.398 156.909 146.092 157.27 145.86L173.37 136.31C191.28 125.67 192.03 100.45 192.52 83.76C192.71 77.22 192.86 72.06 194 68.98C194.12 68.6517 194.304 68.3503 194.541 68.093C194.777 67.8356 195.062 67.6274 195.379 67.4803C195.697 67.3331 196.04 67.2498 196.389 67.2352C196.738 67.2206 197.087 67.2749 197.415 67.395C197.743 67.5152 198.045 67.6988 198.302 67.9355C198.56 68.1721 198.768 68.4572 198.915 68.7743C199.062 69.0914 199.145 69.4344 199.16 69.7837C199.175 70.133 199.12 70.4817 199 70.81C198.17 73.08 198 78.1 197.85 83.91C197.32 101.76 196.53 128.73 176.11 140.86L160.95 149.86C160.42 151.86 158.95 155.91 153.22 160.94C149.603 163.957 145.009 165.55 140.3 165.42V165.42Z" fill="white"/>
<path d="M152.11 151.48C151.442 151.461 150.805 151.19 150.328 150.721C149.851 150.252 149.569 149.62 149.539 148.951C149.508 148.283 149.732 147.628 150.164 147.118C150.597 146.608 151.206 146.28 151.87 146.2C153.75 146.03 155.79 145.8 158.28 145.5C158.954 145.458 159.618 145.675 160.137 146.106C160.656 146.537 160.991 147.15 161.074 147.819C161.157 148.489 160.982 149.165 160.583 149.71C160.185 150.254 159.593 150.626 158.93 150.75C156.38 151.06 154.29 151.29 152.36 151.47L152.11 151.48Z" fill="white"/>
<path d="M144 151.88C130.88 151.88 121.09 147.88 111.24 133.74C110.832 133.182 110.659 132.486 110.757 131.801C110.855 131.117 111.216 130.498 111.764 130.076C112.313 129.655 113.004 129.464 113.691 129.545C114.377 129.626 115.005 129.972 115.44 130.51L115.51 130.61C115.537 130.641 115.56 130.674 115.58 130.71C126.08 145.8 135.67 147.71 151.93 146.21C152.286 146.158 152.649 146.179 152.996 146.272C153.344 146.364 153.669 146.527 153.952 146.749C154.234 146.972 154.469 147.249 154.641 147.565C154.813 147.881 154.919 148.229 154.952 148.587C154.985 148.945 154.945 149.306 154.834 149.648C154.724 149.991 154.544 150.307 154.308 150.577C154.071 150.848 153.781 151.068 153.457 151.223C153.132 151.378 152.78 151.466 152.42 151.48C149.41 151.72 146.63 151.88 144 151.88Z" fill="white"/>
<path d="M113.28 134.73C112.868 134.732 112.462 134.636 112.094 134.452C111.726 134.268 111.406 134 111.16 133.67L104.51 124.8C104.278 124.524 104.105 124.204 104.001 123.859C103.897 123.515 103.864 123.152 103.905 122.794C103.945 122.436 104.059 122.09 104.238 121.778C104.417 121.465 104.657 121.192 104.945 120.975C105.233 120.759 105.562 120.604 105.912 120.519C106.262 120.434 106.626 120.421 106.981 120.481C107.337 120.541 107.676 120.674 107.978 120.869C108.281 121.065 108.54 121.321 108.74 121.62L115.4 130.5C115.693 130.894 115.87 131.361 115.913 131.849C115.955 132.338 115.862 132.829 115.642 133.267C115.422 133.706 115.085 134.075 114.668 134.333C114.251 134.591 113.771 134.729 113.28 134.73Z" fill="white"/>
<path d="M115.7 138.26C115.176 138.259 114.663 138.102 114.227 137.81C113.791 137.519 113.451 137.104 113.25 136.62L113.04 136.1C112.875 135.774 112.78 135.416 112.759 135.051C112.739 134.686 112.795 134.321 112.923 133.978C113.051 133.635 113.248 133.323 113.503 133.06C113.757 132.798 114.064 132.59 114.402 132.452C114.741 132.314 115.104 132.247 115.47 132.256C115.836 132.264 116.195 132.349 116.527 132.504C116.858 132.659 117.154 132.88 117.396 133.155C117.637 133.43 117.819 133.752 117.93 134.1L118.14 134.62C118.274 134.94 118.344 135.284 118.344 135.631C118.345 135.978 118.277 136.322 118.144 136.643C118.011 136.964 117.816 137.255 117.57 137.5C117.324 137.745 117.032 137.939 116.71 138.07C116.39 138.2 116.046 138.265 115.7 138.26Z" fill="white"/>
<path d="M100 128.92C99.3058 128.955 98.6256 128.714 98.1074 128.251C97.5893 127.787 97.275 127.137 97.2329 126.443C97.1907 125.749 97.4241 125.067 97.8824 124.544C98.3406 124.021 98.9867 123.699 99.6802 123.65L100.25 123.58C105.65 122.79 106.12 119.58 106.25 114.88C106.25 114.54 106.25 114.22 106.25 113.88C106.244 113.521 106.311 113.164 106.447 112.831C106.583 112.498 106.786 112.197 107.042 111.945C107.298 111.693 107.603 111.496 107.938 111.365C108.273 111.235 108.631 111.174 108.99 111.186C109.349 111.198 109.702 111.283 110.027 111.436C110.353 111.589 110.643 111.807 110.882 112.076C111.121 112.344 111.302 112.659 111.415 113C111.528 113.341 111.571 113.702 111.54 114.06C111.54 114.34 111.54 114.65 111.54 114.96C111.46 118.96 111.29 127.29 100.98 128.79L100.34 128.87L100 128.92Z" fill="white"/>
<path d="M120.76 105.29C121.33 102.29 122.18 97.29 123.52 92.43C125.17 86.49 127.85 80.6 132.38 79.84C137.12 80.4 138.51 81.54 138.38 85.12C138.22 87.3485 137.91 89.5636 137.45 91.75C135.45 70.31 123.21 93.46 123.21 93.46" fill="#71391A"/>
<path d="M120.77 107.94C120.382 107.937 120 107.85 119.649 107.684C119.298 107.518 118.988 107.278 118.739 106.98C118.491 106.682 118.311 106.334 118.211 105.959C118.11 105.584 118.093 105.192 118.16 104.81L118.37 103.66C118.9 100.83 119.59 97.06 120.6 93.12C120.632 92.8976 120.689 92.6796 120.77 92.47C120.84 92.22 120.91 91.98 120.97 91.73C123.44 82.8 127.03 78.06 131.97 77.23C132.222 77.1951 132.478 77.1951 132.73 77.23C136.87 77.73 141.28 78.8 141.07 85.23V85.34C140.893 87.693 140.559 90.0316 140.07 92.34C139.945 92.9642 139.6 93.5224 139.096 93.9117C138.592 94.301 137.965 94.4953 137.33 94.4588C136.694 94.4223 136.093 94.1574 135.638 93.7129C135.182 93.2685 134.902 92.6744 134.85 92.04C134.38 86.94 133.39 85.61 133.14 85.35C131.69 85.62 128.22 89.88 125.76 94.35C124.76 98.15 124.1 101.85 123.59 104.62L123.37 105.78C123.258 106.387 122.936 106.936 122.461 107.331C121.986 107.725 121.388 107.941 120.77 107.94Z" fill="white"/>
<path d="M188.54 66C191.1 65.31 196.16 78.12 189.3 68.88L188.54 66Z" fill="#71391A"/>
<path d="M188.78 66C190.42 66.06 192.78 70.66 192.78 72C192.83 70.71 190.45 66.11 188.78 66ZM192.78 72C192.78 72.21 192.7 72.33 192.54 72.32C192.7 72.32 192.77 72.21 192.78 72Z" fill="white"/>
<path d="M219.46 83.36C219.203 83.3621 218.946 83.325 218.7 83.25C218.037 83.0483 217.48 82.5953 217.148 81.9878C216.815 81.3804 216.733 80.6669 216.92 80C217.97 76.49 217.18 76 215.05 74.53C213.817 73.7902 212.723 72.839 211.82 71.72C211.424 71.182 211.245 70.5141 211.32 69.85L211.7 66.44C211.774 65.7372 212.125 65.0926 212.674 64.6482C213.224 64.2037 213.927 63.9957 214.63 64.07C215.333 64.1443 215.977 64.4947 216.422 65.0442C216.866 65.5936 217.074 66.2972 217 67L216.75 69.19C217.12 69.5 217.57 69.79 218.03 70.1C220.49 71.75 224.2 74.23 222.03 81.48C221.862 82.0287 221.521 82.5082 221.057 82.847C220.594 83.1859 220.034 83.3658 219.46 83.36Z" fill="white"/>
<path d="M254.82 92.73C254.168 92.7312 253.538 92.4927 253.05 92.06C246.64 86.34 241.84 84.12 234.68 81.81C234.095 81.5351 233.632 81.0563 233.375 80.4635C233.119 79.8706 233.088 79.2046 233.288 78.5906C233.488 77.9766 233.906 77.4568 234.462 77.1289C235.019 76.801 235.676 76.6876 236.31 76.81C244 79.29 249.5 81.81 256.58 88.15C257.103 88.6183 257.42 89.2752 257.459 89.9765C257.498 90.6778 257.258 91.366 256.79 91.89C256.539 92.1609 256.234 92.3757 255.895 92.5205C255.555 92.6652 255.189 92.7366 254.82 92.73V92.73Z" fill="white"/>
<path d="M253.61 107.53C252.96 107.533 252.333 107.294 251.85 106.86C247.227 102.747 241.696 99.7858 235.71 98.22C235.374 98.1353 235.057 97.9852 234.779 97.7783C234.501 97.5714 234.266 97.3117 234.089 97.0141C233.911 96.7165 233.793 96.3868 233.743 96.0438C233.692 95.7008 233.71 95.3512 233.795 95.015C233.88 94.6788 234.03 94.3626 234.237 94.0845C234.443 93.8063 234.703 93.5716 235.001 93.3937C235.298 93.2159 235.628 93.0985 235.971 93.0481C236.314 92.9977 236.664 93.0153 237 93.1C243.8 94.8744 250.082 98.2364 255.33 102.91C255.733 103.265 256.018 103.736 256.147 104.257C256.276 104.779 256.242 105.328 256.051 105.83C255.859 106.332 255.519 106.764 255.076 107.068C254.633 107.372 254.107 107.533 253.57 107.53H253.61Z" fill="white"/>
<path d="M20.6002 167.63C20.0243 167.63 19.4641 167.442 19.0044 167.096C18.5446 166.749 18.2104 166.262 18.0522 165.708C17.894 165.154 17.9204 164.564 18.1276 164.027C18.3347 163.489 18.7112 163.034 19.2002 162.73C25.9402 158.57 34.7902 153.86 43.5602 154.46C44.2321 154.543 44.8469 154.88 45.2783 155.401C45.7098 155.923 45.9252 156.59 45.8805 157.265C45.8357 157.941 45.5341 158.574 45.0375 159.034C44.541 159.494 43.8871 159.747 43.2102 159.74C36.0002 159.25 28.0002 163.49 22.0002 167.23C21.5814 167.494 21.0955 167.633 20.6002 167.63V167.63Z" fill="white"/>
<path d="M19.77 183.71C19.2037 183.71 18.6524 183.528 18.197 183.191C17.7416 182.855 17.406 182.381 17.2394 181.84C17.0728 181.298 17.0839 180.718 17.2712 180.184C17.4584 179.649 17.812 179.189 18.28 178.87C24.87 174.4 33.48 171.45 40.22 171.35C40.9273 171.347 41.607 171.624 42.1109 172.121C42.6148 172.617 42.902 173.293 42.91 174C42.918 174.701 42.6478 175.377 42.1586 175.879C41.6694 176.382 41.0011 176.669 40.3 176.68C34.6 176.76 26.95 179.42 21.3 183.29C20.8446 183.582 20.3108 183.729 19.77 183.71V183.71Z" fill="white"/>
<path d="M60.4899 164.37C60.0377 164.373 59.5924 164.259 59.1966 164.04C58.8009 163.821 58.468 163.504 58.2299 163.12C54.9899 157.88 60.0699 153.83 63.1099 151.42C64.0517 150.709 64.9407 149.93 65.7699 149.09V149.09C65.2329 148.668 64.8795 148.055 64.7837 147.378C64.6878 146.702 64.8568 146.015 65.2555 145.46C65.6541 144.905 66.2515 144.526 66.9231 144.401C67.5947 144.276 68.2886 144.416 68.8599 144.79C69.5662 145.222 70.1572 145.819 70.5822 146.53C71.0071 147.24 71.2534 148.043 71.2999 148.87C71.3699 151.67 68.8699 153.66 66.4399 155.59C62.9999 158.33 62.1799 159.4 62.7699 160.36C63.1412 160.957 63.2603 161.677 63.1009 162.361C62.9415 163.046 62.5167 163.639 61.9199 164.01C61.4851 164.258 60.9905 164.383 60.4899 164.37Z" fill="white"/>
<path d="M61.7901 190.48C61.2143 190.48 60.6541 190.292 60.1943 189.946C59.7346 189.599 59.4003 189.112 59.2421 188.558C59.0839 188.004 59.1104 187.414 59.3175 186.877C59.5247 186.339 59.9012 185.884 60.3901 185.58C61.4362 184.966 62.5145 184.409 63.6201 183.91C67.3701 182.16 69.0101 181.13 69.0301 178.55C69.0354 177.851 69.3169 177.182 69.8133 176.689C70.3097 176.196 70.9808 175.92 71.6801 175.92V175.92C72.3812 175.928 73.0506 176.213 73.5417 176.714C74.0327 177.214 74.3055 177.889 74.3001 178.59C74.3001 184.77 69.4001 187.05 65.8501 188.71C64.9284 189.116 64.0303 189.573 63.1601 190.08C62.7491 190.337 62.2749 190.476 61.7901 190.48V190.48Z" fill="white"/>
<path d="M89.0001 169.88H88.8001C88.4527 169.858 88.1131 169.768 87.8004 169.616C87.4878 169.463 87.2084 169.25 86.9781 168.989C86.7478 168.728 86.5711 168.424 86.4583 168.095C86.3454 167.766 86.2984 167.417 86.3201 167.07L86.8701 158.23C86.8708 157.869 86.9454 157.511 87.0894 157.179C87.2335 156.848 87.4438 156.549 87.7075 156.302C87.9712 156.055 88.2827 155.864 88.6229 155.742C88.963 155.619 89.3246 155.568 89.6854 155.59C90.0462 155.613 90.3985 155.709 90.7208 155.873C91.0431 156.037 91.3284 156.265 91.5593 156.543C91.7901 156.821 91.9617 157.143 92.0633 157.49C92.1649 157.837 92.1944 158.201 92.1501 158.56L91.6001 167.4C91.5598 168.065 91.2693 168.691 90.7871 169.151C90.3048 169.611 89.6665 169.871 89.0001 169.88V169.88Z" fill="white"/>
<path d="M105 197.51C104.656 197.51 104.315 197.438 104 197.3C103.679 197.167 103.388 196.971 103.143 196.725C102.898 196.478 102.705 196.186 102.574 195.864C102.443 195.542 102.377 195.198 102.379 194.85C102.382 194.503 102.454 194.16 102.59 193.84C103.977 190.922 104.808 187.772 105.04 184.55C105.071 183.85 105.378 183.19 105.895 182.717C106.15 182.482 106.45 182.301 106.776 182.182C107.102 182.063 107.448 182.01 107.795 182.025C108.142 182.04 108.482 182.123 108.797 182.27C109.111 182.417 109.394 182.624 109.628 182.88C109.863 183.135 110.044 183.435 110.163 183.761C110.282 184.087 110.335 184.433 110.32 184.78C110.073 188.629 109.107 192.398 107.47 195.89C107.265 196.374 106.92 196.786 106.481 197.074C106.041 197.363 105.526 197.514 105 197.51V197.51Z" fill="white"/>
<path d="M103.9 88.66C102.142 88.5449 100.392 88.3245 98.6602 88C96.9602 82.59 97.9001 80.68 98.2501 80.2C98.5328 79.8897 98.8885 79.6549 99.2849 79.517C99.6813 79.379 100.106 79.3422 100.52 79.41C102.05 79.4687 103.518 80.0272 104.7 81L104.91 81.23C106.09 82.37 107.22 86.23 107.53 88.23C106.362 88.6202 105.127 88.7665 103.9 88.66" fill="white"/>
<path d="M100.44 82.08C101.275 82.129 102.084 82.3906 102.79 82.84C102.88 82.93 102.96 83.02 103.06 83.11C103.622 84.0039 104.043 84.9786 104.31 86H104C102.908 85.9433 101.82 85.8264 100.74 85.65C100.398 84.486 100.262 83.2709 100.34 82.06H100.41L100.44 82.08ZM100.62 76.77C96.5402 76.61 92.7402 79.47 96.6202 90.36C98.9814 90.8002 101.365 91.1106 103.76 91.29C106.24 91.39 108.58 91.05 110.13 89.65C110.61 89.2 109.19 81.76 106.72 79.34C105.065 77.755 102.881 76.8395 100.59 76.77" fill="white"/>
<path d="M118.68 78.68C117.68 77.13 116.97 75.48 117.31 74.9C117.571 74.3589 117.972 73.8974 118.472 73.5634C118.971 73.2293 119.55 73.0348 120.15 73C120.725 73.0328 121.274 73.2463 121.72 73.61L122.9 75.32L118.68 78.68Z" fill="white"/>
<path d="M120.27 70.37C119.196 70.3739 118.144 70.67 117.226 71.2268C116.308 71.7835 115.559 72.5797 115.06 73.53C113.06 76.82 118.26 82.42 118.27 82.42L126.5 75.86L123.7 71.86C122.768 70.9918 121.561 70.4785 120.29 70.41" fill="white"/>
<path d="M103.12 88.4C102.721 88.416 102.327 88.3124 101.988 88.1025C101.649 87.8927 101.38 87.5862 101.216 87.2224C101.053 86.8587 101.001 86.4543 101.069 86.0612C101.137 85.6681 101.321 85.3043 101.597 85.0166C101.874 84.7288 102.23 84.5302 102.619 84.4463C103.009 84.3624 103.416 84.3971 103.786 84.5458C104.156 84.6946 104.473 84.9506 104.697 85.281C104.92 85.6114 105.04 86.0011 105.04 86.4V86.53C105.04 87.0339 104.84 87.5172 104.484 87.8735C104.127 88.2298 103.644 88.43 103.14 88.43" fill="#222220"/>
<path d="M103.38 81.81C102.471 81.7443 101.563 81.9488 100.77 82.3978C99.9773 82.8468 99.3349 83.5203 98.9237 84.3335C98.5126 85.1467 98.3511 86.0633 98.4596 86.9681C98.5681 87.8729 98.9418 88.7253 99.5335 89.4183C100.125 90.1112 100.909 90.6137 101.785 90.8625C102.662 91.1112 103.593 91.0952 104.46 90.8165C105.328 90.5377 106.093 90.0086 106.661 89.2957C107.229 88.5828 107.573 87.718 107.65 86.81C107.65 86.76 107.65 86.71 107.65 86.65C107.716 85.4478 107.302 84.2686 106.5 83.3708C105.697 82.4729 104.572 81.9297 103.37 81.86" fill="white"/>
<path d="M120.1 77.65C119.985 77.661 119.869 77.6374 119.768 77.5822C119.666 77.5269 119.584 77.4426 119.53 77.34C119.422 77.1834 119.38 76.9903 119.414 76.8028C119.447 76.6154 119.554 76.449 119.71 76.34C119.788 76.2855 119.875 76.2468 119.968 76.2261C120.06 76.2054 120.156 76.2031 120.249 76.2194C120.342 76.2356 120.431 76.2701 120.511 76.3208C120.591 76.3715 120.661 76.4375 120.715 76.515C120.77 76.5925 120.808 76.6799 120.829 76.7724C120.85 76.8648 120.852 76.9604 120.836 77.0538C120.82 77.1471 120.785 77.2363 120.734 77.3163C120.684 77.3963 120.618 77.4655 120.54 77.52C120.41 77.6076 120.257 77.653 120.1 77.65" fill="#222220"/>
<path d="M120.23 74.44C119.659 74.4713 119.109 74.6684 118.649 75.0073C118.188 75.3461 117.836 75.812 117.636 76.3478C117.436 76.8836 117.397 77.466 117.523 78.0239C117.649 78.5817 117.935 79.0906 118.346 79.4883C118.757 79.886 119.275 80.1552 119.837 80.263C120.398 80.3707 120.979 80.3123 121.508 80.0949C122.037 79.8775 122.491 79.5106 122.815 79.039C123.138 78.5675 123.317 78.0118 123.33 77.44C123.307 76.6345 122.969 75.87 122.39 75.3095C121.811 74.7491 121.036 74.4371 120.23 74.44Z" fill="white"/>
<path d="M70 71.69C70 71.69 74.68 73.69 75.33 73.96C75.98 74.23 76.86 75.85 78.39 76.13C79.11 76.26 76.74 76.38 74.46 76.67C71.89 77 69.3 77.35 68.95 74.3L68.73 72.38L70 71.69Z" fill="#71391A"/>
<path d="M70 71.69L68.73 72.37L69 74.28C68.9997 74.6414 69.075 74.9988 69.2211 75.3293C69.3673 75.6599 69.5809 75.9561 69.8484 76.1991C70.1159 76.4421 70.4313 76.6265 70.7743 76.7403C71.1173 76.8541 71.4803 76.8949 71.84 76.86C72.7274 76.8688 73.6139 76.8019 74.49 76.66C76.77 76.36 79.14 76.25 78.43 76.12C76.88 75.84 76 74.19 75.34 74C74.68 73.81 70 71.68 70 71.68" fill="white"/>
<path d="M129.81 59.33C129.81 59.33 131.33 56.33 131.63 55.96C131.93 55.59 133.31 54.34 133.31 54.34L134.02 55.24L134 56.78L132.76 58.49L129.81 59.33Z" fill="#71391A"/>
<path d="M133.31 54.34C133.31 54.34 131.94 55.6 131.63 55.96C131.32 56.32 129.81 59.33 129.81 59.33L132.71 58.49L134 56.78L134.05 55.24L133.31 54.34Z" fill="white"/>
<path d="M171.39 204.6L173.3 208.33L174.52 210.72C175.715 210.891 176.934 210.739 178.05 210.28L178.15 207.65C175.98 209.15 174.06 207.13 173.04 207.79" fill="#71391A"/>
<path d="M175.47 213.44C175.028 213.442 174.587 213.408 174.15 213.34C173.727 213.286 173.324 213.129 172.975 212.883C172.627 212.637 172.343 212.31 172.15 211.93L169 205.8C168.842 205.491 168.747 205.153 168.72 204.807C168.693 204.461 168.734 204.113 168.841 203.783C168.949 203.453 169.12 203.147 169.345 202.884C169.571 202.62 169.846 202.403 170.155 202.245C170.464 202.087 170.802 201.992 171.148 201.965C171.494 201.938 171.842 201.979 172.172 202.086C172.502 202.194 172.808 202.365 173.072 202.59C173.335 202.816 173.552 203.091 173.71 203.4L174.6 205.14C174.89 205.21 175.16 205.28 175.38 205.35C176.32 205.63 176.38 205.6 176.61 205.47C177.015 205.192 177.489 205.031 177.979 205.007C178.47 204.982 178.957 205.094 179.388 205.331C179.818 205.567 180.174 205.919 180.417 206.346C180.659 206.773 180.778 207.259 180.76 207.75L180.66 210.38C180.641 210.888 180.476 211.379 180.185 211.796C179.894 212.212 179.49 212.537 179.02 212.73C177.894 213.194 176.688 213.435 175.47 213.44V213.44Z" fill="white"/>
<path d="M141.37 155.09C139.292 154.931 137.237 154.549 135.24 153.95C132.598 152.539 130.067 150.927 127.67 149.13L125.76 147.78C126.235 147.693 126.719 147.666 127.2 147.7C129.094 147.806 130.929 148.394 132.53 149.41C133.47 149.97 136.7 150.5 140.11 151.05C142.79 151.48 146.43 152.05 146.93 152.49C146.11 154.38 144.3 155.25 141.38 155.13L141.37 155.09Z" fill="#BF1F25"/>
<path d="M127.2 148C129.045 148.093 130.836 148.658 132.4 149.64C133.33 150.21 136.04 150.64 140.08 151.35C142.277 151.629 144.452 152.057 146.59 152.63C145.78 154.26 144.07 155.01 141.4 154.91C139.365 154.749 137.353 154.367 135.4 153.77C132.77 152.371 130.252 150.77 127.87 148.98L126.52 147.98H127.22L127.2 148ZM127.22 147.45C125.89 147.4 125.1 147.66 125.29 147.79C128.42 149.94 131.6 152.44 135.19 154.23C137.205 154.838 139.281 155.221 141.38 155.37C143.96 155.47 146.24 154.84 147.21 152.5C147.64 151.43 134.6 150.34 132.68 149.16C131.034 148.139 129.155 147.554 127.22 147.46" fill="white"/>
<path d="M141.5 158.39H140.66C128.66 157.73 116.46 143.92 113.28 136.7C113.04 136.066 113.053 135.365 113.315 134.74C113.576 134.115 114.068 133.614 114.687 133.34C115.307 133.066 116.008 133.039 116.647 133.266C117.285 133.493 117.812 133.956 118.12 134.56C120.8 140.65 131.78 152.56 140.95 153.1C144.71 153.3 147.66 151.48 149.95 147.49C150.322 146.925 150.896 146.523 151.554 146.367C152.213 146.211 152.906 146.313 153.492 146.652C154.077 146.991 154.511 147.541 154.704 148.19C154.897 148.838 154.835 149.536 154.53 150.14C150.65 156.85 145.45 158.39 141.5 158.39Z" fill="white"/>
<path d="M101.43 91.64C101.43 91.64 94.9999 92.77 93.6699 94.55Z" fill="#F1CA12"/>
<path d="M93.6702 97.24C93.1717 97.2369 92.6841 97.0942 92.2625 96.8282C91.8409 96.5623 91.5022 96.1836 91.2847 95.7351C91.0672 95.2865 90.9796 94.7861 91.0318 94.2903C91.084 93.7946 91.274 93.3234 91.5802 92.93C93.3102 90.68 98.2102 89.52 100.97 89.03C101.643 88.9469 102.323 89.1249 102.868 89.5275C103.414 89.9302 103.785 90.5267 103.904 91.1943C104.023 91.862 103.882 92.5499 103.509 93.1165C103.136 93.6831 102.56 94.0852 101.9 94.24C99.2702 94.71 96.3202 95.66 95.7102 96.24C95.469 96.5513 95.1598 96.8033 94.8062 96.9767C94.4526 97.15 94.064 97.2401 93.6702 97.24V97.24Z" fill="white"/>
<path d="M92.54 94.09C91.9027 94.0989 91.2837 93.8769 90.7973 93.465C90.3108 93.0531 89.9899 92.4791 89.8936 91.849C89.7973 91.219 89.9322 90.5753 90.2734 90.037C90.6147 89.4986 91.1391 89.1019 91.75 88.92C95.0894 87.9985 98.5952 87.8514 102 88.49C104.16 88.78 105.86 89 107.3 88.49C108.48 88.06 110.2 86.4 112.38 84.29C117.879 78.7612 124.062 73.9589 130.78 70C131.385 69.6446 132.106 69.544 132.785 69.7203C133.464 69.8966 134.045 70.3353 134.4 70.94C134.755 71.5447 134.856 72.2658 134.68 72.9447C134.503 73.6236 134.065 74.2046 133.46 74.56C127.111 78.3096 121.272 82.864 116.09 88.11C113.36 90.75 111.39 92.67 109.17 93.48C106.5 94.48 103.87 94.12 101.34 93.79C98.6904 93.2591 95.9548 93.3377 93.34 94.02C93.0785 94.084 92.8087 94.1076 92.54 94.09V94.09Z" fill="white"/>
<path d="M101.06 87.67C100.831 87.6408 100.616 87.5457 100.44 87.3963C100.264 87.247 100.136 87.0498 100.07 86.8287C100.004 86.6076 100.004 86.3722 100.07 86.151C100.135 85.9299 100.264 85.7326 100.439 85.5832C100.615 85.4337 100.83 85.3386 101.059 85.3092C101.288 85.2799 101.52 85.3177 101.728 85.418C101.936 85.5183 102.11 85.6768 102.229 85.8742C102.348 86.0716 102.408 86.2995 102.4 86.53C102.374 86.8574 102.22 87.1613 101.971 87.375C101.721 87.5887 101.397 87.6948 101.07 87.67" fill="white"/>
<path d="M101.14 85.56C101.382 85.5993 101.599 85.7328 101.744 85.9314C101.888 86.1299 101.948 86.3775 101.91 86.62C101.873 86.8516 101.749 87.0604 101.563 87.2035C101.377 87.3466 101.144 87.4133 100.91 87.39C100.676 87.3552 100.464 87.2324 100.317 87.0466C100.17 86.8608 100.1 86.6259 100.12 86.39C100.15 86.1335 100.279 85.8987 100.478 85.7347C100.678 85.5707 100.933 85.4901 101.19 85.51L101.14 85.56ZM101.19 84.99C100.908 85 100.636 85.0919 100.405 85.2546C100.175 85.4172 99.9969 85.6435 99.8932 85.9057C99.7894 86.168 99.7644 86.4548 99.8212 86.731C99.878 87.0072 100.014 87.2609 100.213 87.461C100.412 87.661 100.664 87.7988 100.94 87.8574C101.216 87.916 101.503 87.8929 101.766 87.7909C102.029 87.689 102.256 87.5125 102.42 87.2832C102.585 87.0539 102.678 86.7817 102.69 86.5C102.69 86.1012 102.533 85.7187 102.251 85.4358C101.97 85.1529 101.589 84.9926 101.19 84.99Z" fill="white"/>
<path d="M119.11 78.69C118.914 78.6627 118.737 78.5591 118.617 78.4018C118.497 78.2444 118.445 78.0461 118.47 77.85C118.48 77.7496 118.51 77.652 118.557 77.563C118.605 77.4739 118.669 77.3951 118.747 77.3311C118.825 77.267 118.915 77.2189 119.012 77.1896C119.108 77.1602 119.21 77.1502 119.31 77.16C119.411 77.1699 119.508 77.1994 119.597 77.247C119.686 77.2945 119.765 77.3591 119.829 77.4371C119.893 77.5151 119.941 77.605 119.971 77.7016C120 77.7982 120.01 77.8996 120 78C119.98 78.2081 119.878 78.3996 119.717 78.5327C119.556 78.6658 119.348 78.7295 119.14 78.71" fill="white"/>
<path d="M119.16 77.47C119.289 77.4559 119.418 77.4932 119.519 77.5738C119.62 77.6543 119.685 77.7716 119.7 77.9C119.707 77.9644 119.701 78.0295 119.683 78.0916C119.664 78.1537 119.634 78.2116 119.593 78.2618C119.552 78.312 119.501 78.3536 119.444 78.3842C119.387 78.4148 119.325 78.4338 119.26 78.44H119.12C118.992 78.4541 118.863 78.4168 118.762 78.3362C118.66 78.2557 118.595 78.1384 118.58 78.01C118.573 77.9456 118.579 77.8805 118.598 77.8184C118.616 77.7563 118.647 77.6984 118.687 77.6482C118.728 77.598 118.779 77.5564 118.836 77.5258C118.893 77.4952 118.956 77.4762 119.02 77.47H119.16ZM119.16 76.94C118.962 76.94 118.769 76.9986 118.605 77.1085C118.44 77.2184 118.312 77.3746 118.236 77.5573C118.161 77.74 118.141 77.9411 118.179 78.1351C118.218 78.3291 118.313 78.5073 118.453 78.6471C118.593 78.787 118.771 78.8822 118.965 78.9208C119.159 78.9594 119.36 78.9396 119.543 78.8639C119.726 78.7882 119.882 78.66 119.992 78.4956C120.102 78.3311 120.16 78.1378 120.16 77.94C120.16 77.6748 120.055 77.4204 119.867 77.2329C119.68 77.0454 119.425 76.94 119.16 76.94Z" fill="white"/>
<path d="M118.76 201.54C118.48 201.601 118.19 201.601 117.91 201.54C117.7 201.513 117.5 201.436 117.326 201.316C117.153 201.196 117.01 201.036 116.91 200.85C116.8 200.65 116.56 199.76 116.47 196C116.467 195.961 116.456 195.922 116.437 195.888C116.418 195.853 116.392 195.823 116.36 195.8C116.168 195.678 116.009 195.51 115.9 195.31C115.74 194.97 116.19 194.46 116.59 194.1C116.642 194.053 116.677 193.989 116.69 193.92C116.868 191.236 117.202 188.565 117.69 185.92C118.69 180.48 119.42 179.78 119.57 179.7C119.734 179.63 119.905 179.577 120.08 179.54C120.478 179.472 120.886 179.508 121.265 179.647C121.644 179.786 121.98 180.021 122.24 180.33C122.86 181.09 123.82 182.26 125.08 183.83C126.78 185.95 128.71 188.4 130.72 191.15C130.89 191.37 131.35 191.84 132.09 192.58C132.503 192.969 132.841 193.43 133.09 193.94C133.164 194.134 133.193 194.341 133.174 194.548C133.155 194.754 133.088 194.953 132.98 195.13C132.873 195.32 132.73 195.487 132.558 195.621C132.387 195.755 132.19 195.853 131.98 195.91C131.934 195.919 131.886 195.919 131.84 195.91C131.43 195.96 130.67 195.73 129.26 194.41C128.318 193.529 127.442 192.58 126.64 191.57C126.605 191.531 126.562 191.5 126.513 191.481C126.464 191.462 126.412 191.455 126.36 191.46H126.26C125.63 191.81 124.56 192.34 123.15 193.06C122.114 193.591 121.112 194.185 120.15 194.84C120.111 194.866 120.079 194.902 120.058 194.944C120.037 194.986 120.027 195.033 120.03 195.08C120.09 196.08 120.09 197.71 120.03 199.94C120.022 200.228 119.934 200.508 119.777 200.75C119.62 200.992 119.4 201.185 119.14 201.31C119.019 201.38 118.887 201.431 118.75 201.46L118.76 201.54ZM121.34 185.28C121.282 185.293 121.229 185.323 121.189 185.365C121.148 185.408 121.12 185.462 121.11 185.52C120.91 186.9 120.65 188.79 120.37 191.17C120.364 191.222 120.375 191.275 120.403 191.32C120.43 191.366 120.471 191.401 120.52 191.42C120.585 191.44 120.655 191.44 120.72 191.42L120.84 191.37C121.403 190.99 121.994 190.656 122.61 190.37C123.61 189.88 124.23 189.57 124.5 189.42C124.567 189.384 124.617 189.323 124.64 189.25C124.657 189.22 124.667 189.185 124.667 189.15C124.667 189.115 124.657 189.08 124.64 189.05C123.92 188.05 122.94 186.84 121.71 185.36C121.672 185.317 121.623 185.285 121.569 185.268C121.514 185.25 121.456 185.247 121.4 185.26V185.26" fill="#59287F"/>
<path d="M120.11 179.8C120.449 179.741 120.797 179.773 121.119 179.895C121.441 180.016 121.725 180.222 121.94 180.49C122.58 181.27 123.52 182.4 124.79 183.98C126.49 186.1 128.43 188.53 130.47 191.3C130.902 191.815 131.366 192.303 131.86 192.76C132.265 193.118 132.603 193.545 132.86 194.02C132.924 194.182 132.949 194.357 132.933 194.531C132.918 194.704 132.862 194.872 132.77 195.02C132.686 195.179 132.572 195.319 132.432 195.433C132.293 195.546 132.132 195.63 131.96 195.68H131.87C131.64 195.68 130.98 195.61 129.53 194.24C128.601 193.376 127.738 192.444 126.95 191.45C126.882 191.367 126.794 191.304 126.693 191.268C126.593 191.231 126.485 191.221 126.38 191.24C126.307 191.258 126.236 191.285 126.17 191.32C125.54 191.67 124.46 192.2 123.07 192.92C122.006 193.45 120.977 194.048 119.99 194.71C119.916 194.764 119.856 194.835 119.814 194.917C119.773 194.998 119.751 195.088 119.75 195.18C119.81 196.18 119.81 197.83 119.75 200.01C119.741 200.248 119.667 200.479 119.537 200.678C119.406 200.877 119.224 201.037 119.01 201.14C118.907 201.199 118.796 201.243 118.68 201.27C118.44 201.33 118.189 201.33 117.95 201.27C117.782 201.249 117.623 201.185 117.486 201.085C117.35 200.986 117.241 200.853 117.17 200.7C117.11 200.58 116.86 199.89 116.77 195.96C116.77 195.883 116.75 195.807 116.714 195.739C116.677 195.671 116.624 195.613 116.56 195.57C116.403 195.476 116.275 195.341 116.19 195.18C116.19 195.09 116.19 194.79 116.81 194.27C116.915 194.175 116.98 194.042 116.99 193.9C117.177 191.217 117.511 188.546 117.99 185.9C118.89 181 119.57 180.05 119.75 179.9C119.873 179.85 120 179.809 120.13 179.78L120.11 179.8ZM120.8 191.78C120.89 191.762 120.976 191.725 121.05 191.67C121.591 191.296 122.16 190.962 122.75 190.67L124.66 189.67C124.728 189.634 124.788 189.584 124.836 189.524C124.884 189.464 124.919 189.394 124.94 189.32C124.96 189.252 124.963 189.18 124.949 189.11C124.935 189.041 124.904 188.975 124.86 188.92C124.14 187.92 123.15 186.7 121.94 185.22C121.862 185.138 121.763 185.077 121.655 185.044C121.546 185.01 121.431 185.006 121.32 185.03V185.03C121.204 185.056 121.099 185.115 121.017 185.2C120.935 185.286 120.881 185.394 120.86 185.51C120.66 186.88 120.4 188.78 120.13 191.16C120.121 191.264 120.146 191.369 120.199 191.458C120.253 191.548 120.334 191.619 120.43 191.66C120.563 191.705 120.707 191.705 120.84 191.66L120.8 191.78ZM120.09 179.17C119.895 179.208 119.704 179.265 119.52 179.34C118.95 179.59 118.18 181.73 117.46 185.79C116.971 188.465 116.637 191.166 116.46 193.88C115.78 194.5 115.53 195.01 115.71 195.4C115.841 195.631 116.026 195.827 116.25 195.97C116.33 198.89 116.52 200.54 116.74 200.97C116.86 201.179 117.024 201.36 117.221 201.5C117.418 201.64 117.643 201.735 117.88 201.78C118.208 201.865 118.552 201.865 118.88 201.78C119.281 201.673 119.638 201.445 119.904 201.126C120.169 200.807 120.328 200.414 120.36 200C120.36 197.8 120.36 196.17 120.36 195.12C121.321 194.469 122.323 193.881 123.36 193.36C124.8 192.63 125.85 192.11 126.48 191.75C127.293 192.763 128.182 193.713 129.14 194.59C130.34 195.73 131.26 196.25 131.94 196.17C132.006 196.179 132.073 196.179 132.14 196.17C132.619 196.029 133.025 195.706 133.27 195.27C133.402 195.062 133.484 194.827 133.508 194.582C133.532 194.337 133.499 194.09 133.41 193.86C133.141 193.312 132.771 192.82 132.32 192.41C131.85 191.96 131.41 191.49 130.99 191C128.99 188.22 127.06 185.79 125.37 183.68C124.14 182.11 123.17 180.94 122.53 180.16C122.23 179.812 121.844 179.548 121.411 179.396C120.977 179.243 120.512 179.207 120.06 179.29L120.09 179.17ZM120.73 191.29C121.01 188.9 121.29 187.02 121.48 185.64C122.73 187.13 123.69 188.36 124.41 189.32C124.16 189.46 123.53 189.77 122.53 190.26C121.906 190.549 121.304 190.883 120.73 191.26" fill="white"/>
<path d="M137.82 194.51C137.473 194.551 137.121 194.477 136.82 194.3C136.473 194.093 136.213 193.765 136.09 193.38C135.58 191.694 135.331 189.941 135.35 188.18C135.35 184.98 135.27 183.18 135.23 182.82C135.05 181.45 134.87 180.07 134.7 178.69C134.456 177.411 134.515 176.093 134.87 174.84C135.014 174.516 135.233 174.232 135.51 174.011C135.787 173.79 136.113 173.639 136.46 173.57C136.638 173.529 136.818 173.502 137 173.49C137.314 173.476 137.627 173.527 137.92 173.641C138.212 173.755 138.478 173.928 138.7 174.15C139.834 175.41 140.79 176.82 141.54 178.34C142.74 180.51 144.09 182.77 145.62 185.22C145.648 185.264 145.686 185.3 145.732 185.324C145.777 185.349 145.828 185.361 145.88 185.36H146C146.058 185.356 146.114 185.333 146.159 185.295C146.204 185.258 146.236 185.207 146.25 185.15C146.78 182.15 147.16 179.15 147.39 176.08L147.51 172.94C147.566 172.429 147.795 171.952 148.158 171.588C148.522 171.225 148.999 170.996 149.51 170.94C149.659 170.92 149.811 170.92 149.96 170.94C150.474 171.013 150.963 171.205 151.39 171.5C151.817 171.795 152.17 172.185 152.42 172.64C153.012 173.648 153.507 174.709 153.9 175.81C155.31 179.49 156.64 182.69 157.9 185.32C158.639 186.7 159.265 188.138 159.77 189.62C159.791 189.833 159.76 190.047 159.678 190.244C159.595 190.442 159.466 190.615 159.3 190.75C159.079 190.94 158.821 191.082 158.542 191.166C158.263 191.251 157.969 191.276 157.68 191.24C157.247 191.125 156.847 190.911 156.512 190.614C156.177 190.317 155.916 189.946 155.75 189.53C155.33 188.53 154.89 187.47 154.44 186.44C153.69 184.92 152.73 182.7 151.53 179.83C151.505 179.776 151.466 179.731 151.416 179.699C151.367 179.667 151.309 179.65 151.25 179.65V179.65C151.183 179.646 151.118 179.666 151.064 179.706C151.011 179.747 150.974 179.805 150.96 179.87C150.74 181.11 150.36 183.07 149.86 185.7C149.73 186.54 149.6 187.4 149.48 188.25C149.359 189.089 149.151 189.914 148.86 190.71C148.75 191.073 148.54 191.397 148.253 191.645C147.966 191.893 147.615 192.054 147.24 192.11C147.101 192.13 146.959 192.13 146.82 192.11C146.488 192.077 146.167 191.971 145.881 191.798C145.596 191.625 145.353 191.39 145.17 191.11C144.71 190.36 144.25 189.62 143.78 188.9C142.46 186.9 141.09 184.7 139.71 182.46C139.678 182.414 139.634 182.378 139.583 182.355C139.532 182.332 139.476 182.323 139.42 182.33H139.36C139.298 182.339 139.24 182.368 139.197 182.413C139.153 182.459 139.126 182.517 139.12 182.58C139.12 184.07 139.12 186.32 139.25 189.29C139.37 190.29 139.48 191.29 139.6 192.29C139.666 192.736 139.57 193.191 139.329 193.572C139.089 193.953 138.721 194.236 138.29 194.37C138.13 194.412 137.965 194.439 137.8 194.45" fill="#59287F"/>
<path d="M150 171.14C150.46 171.217 150.895 171.4 151.272 171.674C151.648 171.948 151.956 172.306 152.17 172.72C152.761 173.708 153.25 174.753 153.63 175.84C155.05 179.52 156.4 182.73 157.69 185.36C158.4 186.729 159.021 188.142 159.55 189.59C159.574 189.765 159.552 189.943 159.485 190.106C159.419 190.27 159.31 190.412 159.17 190.52C158.893 190.77 158.542 190.925 158.17 190.96H157.83C157.21 190.86 156.65 190.35 156.13 189.43C155.61 188.51 155.26 187.35 154.8 186.32C154.07 184.81 153.14 182.59 151.93 179.73C151.875 179.626 151.793 179.538 151.693 179.474C151.593 179.411 151.478 179.375 151.36 179.37H151.26C151.129 179.367 151.001 179.408 150.897 179.489C150.793 179.569 150.72 179.682 150.69 179.81C150.47 181.05 150.12 183.01 149.61 185.65C149.47 186.5 149.35 187.34 149.23 188.19C149.12 189.013 148.929 189.824 148.66 190.61C148.566 190.926 148.385 191.209 148.137 191.427C147.89 191.644 147.586 191.788 147.26 191.84C147.144 191.855 147.026 191.855 146.91 191.84C146.627 191.809 146.354 191.718 146.109 191.573C145.865 191.428 145.653 191.233 145.49 191C145.043 190.24 144.583 189.5 144.11 188.78C142.8 186.78 141.44 184.59 140.06 182.36C139.999 182.269 139.916 182.195 139.817 182.146C139.719 182.096 139.61 182.074 139.5 182.08H139.37C139.244 182.098 139.128 182.158 139.041 182.251C138.953 182.343 138.9 182.463 138.89 182.59C138.89 184.08 138.89 186.34 139.03 189.3L139.39 192.3C139.39 193.67 138.75 194.01 138.29 194.13C138.153 194.168 138.012 194.192 137.87 194.2C137.597 194.219 137.324 194.153 137.09 194.01C136.796 193.833 136.576 193.556 136.47 193.23C135.983 191.571 135.747 189.849 135.77 188.12C135.72 184.86 135.7 183.12 135.66 182.73C135.48 181.35 135.31 179.98 135.14 178.61C134.9 176.33 135.09 175.32 135.3 174.86C135.427 174.584 135.617 174.341 135.855 174.152C136.093 173.962 136.372 173.832 136.67 173.77C136.821 173.731 136.975 173.708 137.13 173.7C137.398 173.69 137.665 173.735 137.915 173.833C138.164 173.931 138.391 174.08 138.58 174.27C139.694 175.513 140.633 176.903 141.37 178.4C142.55 180.55 143.93 182.84 145.47 185.3C145.531 185.384 145.61 185.452 145.702 185.499C145.795 185.546 145.897 185.57 146 185.57H146.12C146.237 185.558 146.348 185.51 146.437 185.433C146.526 185.356 146.59 185.254 146.62 185.14C147.162 182.128 147.549 179.091 147.78 176.04C147.83 175.04 147.87 173.98 147.91 172.94C147.953 172.482 148.153 172.053 148.475 171.725C148.798 171.398 149.223 171.191 149.68 171.14C149.803 171.12 149.928 171.12 150.05 171.14H150ZM150.05 170.61C149.871 170.59 149.69 170.59 149.51 170.61C148.922 170.661 148.37 170.915 147.95 171.33C147.53 171.744 147.269 172.293 147.21 172.88L147.09 176.02C146.877 179.037 146.51 182.041 145.99 185.02C144.46 182.57 143.09 180.29 141.93 178.15C141.147 176.64 140.161 175.243 139 174C138.736 173.745 138.422 173.547 138.078 173.42C137.734 173.293 137.367 173.238 137 173.26C136.791 173.27 136.583 173.3 136.38 173.35C135.984 173.428 135.613 173.6 135.296 173.85C134.98 174.1 134.727 174.423 134.56 174.79C134.186 176.091 134.124 177.461 134.38 178.79L134.95 182.92C134.95 183.26 135.02 185.04 135.09 188.26C135.073 190.045 135.329 191.823 135.85 193.53C135.994 193.938 136.268 194.289 136.628 194.529C136.989 194.769 137.418 194.885 137.85 194.86C138.043 194.85 138.234 194.819 138.42 194.77C138.912 194.618 139.334 194.297 139.611 193.862C139.887 193.428 140 192.91 139.93 192.4L139.59 189.4C139.51 186.42 139.473 184.187 139.48 182.7C140.88 184.953 142.243 187.097 143.57 189.13L144.98 191.37C145.192 191.681 145.471 191.94 145.796 192.129C146.121 192.318 146.485 192.431 146.86 192.46C147.019 192.485 147.181 192.485 147.34 192.46C147.762 192.397 148.157 192.218 148.482 191.942C148.807 191.666 149.049 191.305 149.18 190.9C149.477 190.084 149.692 189.239 149.82 188.38L150.21 185.84C150.72 183.19 151.1 181.24 151.34 180.01C152.57 182.88 153.51 185.09 154.26 186.63C154.72 187.63 155.17 188.7 155.6 189.74C155.784 190.2 156.077 190.608 156.453 190.93C156.829 191.252 157.278 191.479 157.76 191.59C157.919 191.61 158.081 191.61 158.24 191.59C158.751 191.561 159.238 191.36 159.62 191.02C159.821 190.861 159.979 190.654 160.079 190.418C160.178 190.182 160.217 189.925 160.19 189.67C159.672 188.164 159.04 186.7 158.3 185.29C157.03 182.66 155.73 179.5 154.3 175.82C153.911 174.698 153.408 173.62 152.8 172.6C152.528 172.09 152.137 171.652 151.66 171.325C151.183 170.998 150.634 170.79 150.06 170.72" fill="white"/>
<path d="M163.76 190.12C163.45 190.059 163.157 189.933 162.9 189.75C162.717 189.637 162.563 189.482 162.452 189.298C162.34 189.113 162.275 188.905 162.26 188.69C162.26 188.47 162.41 187.56 164.05 184.15C164.08 184.076 164.08 183.994 164.05 183.92C163.915 183.732 163.836 183.511 163.82 183.28C163.82 182.9 164.49 182.64 165.06 182.5C165.129 182.482 165.19 182.439 165.23 182.38C166.628 180.043 168.161 177.789 169.82 175.63C173.27 171.2 174.3 170.91 174.48 170.9C174.673 170.909 174.864 170.939 175.05 170.99C175.466 171.102 175.847 171.317 176.156 171.616C176.466 171.915 176.694 172.288 176.82 172.7C177.09 173.7 177.52 175.15 178.04 177.12C178.78 179.81 179.59 182.9 180.38 186.31C180.586 186.966 180.826 187.61 181.1 188.24C181.356 188.773 181.505 189.35 181.54 189.94C181.523 190.147 181.455 190.347 181.341 190.522C181.228 190.696 181.073 190.84 180.89 190.94C180.494 191.177 180.025 191.262 179.57 191.18H179.42C178.98 191.03 178.33 190.47 177.51 188.62C176.961 187.408 176.51 186.154 176.16 184.87C176.144 184.816 176.115 184.768 176.075 184.729C176.034 184.691 175.984 184.663 175.93 184.65H175.8C175.03 184.65 173.74 184.65 171.99 184.65C170.708 184.638 169.425 184.702 168.15 184.84C168.104 184.849 168.061 184.869 168.023 184.896C167.985 184.924 167.953 184.959 167.93 185C167.52 186 166.79 187.42 165.74 189.38C165.587 189.641 165.366 189.856 165.1 190.001C164.833 190.145 164.533 190.214 164.23 190.2C164.081 190.22 163.93 190.22 163.78 190.2L163.76 190.12ZM173.7 176.88C173.639 176.865 173.575 176.867 173.515 176.887C173.455 176.906 173.401 176.942 173.36 176.99C172.55 178.13 171.44 179.7 170.07 181.71C170.039 181.754 170.023 181.806 170.023 181.86C170.023 181.914 170.039 181.966 170.07 182.01C170.124 182.062 170.189 182.1 170.26 182.12H170.4C171.133 182.032 171.872 181.998 172.61 182.02C173.81 182.02 174.61 182.02 174.92 182.02C174.96 182.02 174.998 182.012 175.035 181.997C175.071 181.981 175.103 181.958 175.13 181.93C175.155 181.903 175.173 181.872 175.183 181.837C175.194 181.802 175.196 181.766 175.19 181.73C174.9 180.53 174.5 178.96 173.95 177.08C173.927 177.026 173.891 176.977 173.846 176.939C173.801 176.901 173.748 176.874 173.69 176.86" fill="#59287F"/>
<path d="M175 171.25C175.353 171.343 175.677 171.525 175.94 171.779C176.202 172.033 176.395 172.35 176.5 172.7C176.77 173.7 177.19 175.14 177.73 177.14C178.47 179.82 179.3 182.91 180.08 186.32C180.289 187.001 180.539 187.669 180.83 188.32C181.069 188.819 181.211 189.358 181.25 189.91C181.243 190.084 181.19 190.253 181.097 190.4C181.004 190.548 180.874 190.668 180.72 190.75C180.39 190.948 180 191.022 179.62 190.96H179.52C179.27 190.87 178.65 190.47 177.81 188.57C177.28 187.367 176.839 186.127 176.49 184.86C176.455 184.753 176.394 184.657 176.311 184.58C176.229 184.503 176.129 184.448 176.02 184.42H175.78C175.02 184.42 173.73 184.42 171.98 184.42C170.687 184.402 169.394 184.468 168.11 184.62C168.016 184.629 167.926 184.661 167.847 184.713C167.769 184.766 167.704 184.837 167.66 184.92C167.25 185.92 166.52 187.33 165.5 189.28C165.37 189.497 165.185 189.676 164.964 189.799C164.743 189.922 164.493 189.984 164.24 189.98C164.11 189.99 163.98 189.99 163.85 189.98C163.586 189.928 163.337 189.819 163.12 189.66C162.973 189.569 162.85 189.444 162.759 189.297C162.669 189.149 162.615 188.982 162.6 188.81C162.6 188.67 162.67 187.94 164.38 184.38C164.42 184.31 164.44 184.231 164.44 184.15C164.44 184.069 164.42 183.99 164.38 183.92C164.278 183.771 164.212 183.599 164.19 183.42C164.19 183.29 164.47 183.07 165.19 182.85C165.262 182.834 165.33 182.804 165.391 182.761C165.451 182.718 165.502 182.663 165.54 182.6C166.935 180.27 168.467 178.026 170.13 175.88C173.23 171.88 174.32 171.33 174.58 171.27C174.722 171.284 174.862 171.307 175 171.34V171.25ZM170.25 182.34C170.344 182.37 170.446 182.37 170.54 182.34C171.255 182.27 171.972 182.24 172.69 182.25C173.92 182.25 174.69 182.25 175.02 182.25C175.1 182.251 175.18 182.236 175.254 182.205C175.328 182.174 175.395 182.128 175.45 182.07C175.498 182.017 175.534 181.953 175.553 181.883C175.572 181.814 175.574 181.741 175.56 181.67C175.28 180.46 174.88 178.9 174.33 177.01C174.287 176.897 174.216 176.797 174.123 176.72C174.03 176.643 173.919 176.591 173.8 176.57C173.679 176.535 173.55 176.536 173.429 176.574C173.308 176.611 173.201 176.683 173.12 176.78C172.3 177.92 171.18 179.51 169.84 181.51C169.79 181.6 169.77 181.704 169.783 181.806C169.795 181.909 169.84 182.004 169.91 182.08C170.012 182.187 170.145 182.261 170.29 182.29L170.25 182.34ZM175.17 170.74C174.957 170.683 174.74 170.646 174.52 170.63C173.84 170.63 172.12 172.17 169.58 175.47C167.92 177.637 166.391 179.901 165 182.25C164 182.49 163.56 182.82 163.56 183.25C163.578 183.526 163.672 183.793 163.83 184.02C162.56 186.67 162 188.24 162.04 188.69C162.061 188.943 162.14 189.188 162.272 189.405C162.404 189.622 162.585 189.805 162.8 189.94C163.101 190.15 163.441 190.296 163.8 190.37C163.973 190.39 164.147 190.39 164.32 190.37C164.678 190.377 165.03 190.288 165.342 190.112C165.653 189.936 165.911 189.68 166.09 189.37C167.09 187.37 167.87 185.97 168.29 184.98C169.552 184.842 170.821 184.778 172.09 184.79H175.93C176.281 186.088 176.736 187.355 177.29 188.58C177.99 190.16 178.68 191.07 179.4 191.32L179.61 191.37C180.14 191.47 180.689 191.37 181.15 191.09C181.37 190.974 181.556 190.804 181.69 190.595C181.825 190.387 181.904 190.148 181.92 189.9C181.892 189.27 181.739 188.651 181.47 188.08C181.07 187.08 180.82 186.46 180.76 186.2C179.98 182.75 179.17 179.69 178.44 177.02C177.93 175.02 177.51 173.55 177.23 172.57C177.076 172.113 176.813 171.699 176.465 171.365C176.117 171.031 175.693 170.786 175.23 170.65L175.17 170.74ZM170.47 181.81C171.84 179.81 172.95 178.23 173.77 177.09C174.34 178.99 174.77 180.54 175.01 181.73H172.74C171.982 181.705 171.224 181.735 170.47 181.82" fill="white"/>
<path d="M201.11 50.28C201.125 50.7745 201.185 51.2667 201.29 51.75C201.654 53.3324 201.895 54.9405 202.01 56.56C201.906 54.8595 201.662 53.1705 201.28 51.51C201.192 51.105 201.135 50.6938 201.11 50.28V50.28Z" fill="#F1CA12"/>
<path d="M214.38 66.46C215.38 61.72 216.87 57.77 216.75 54.15C216.8 57.77 215.32 61.71 214.31 66.45L214.38 66.46Z" fill="#F1CA12"/>
<path d="M130.59 70C130.486 70.2354 130.451 70.4956 130.49 70.75C130.489 70.5676 130.526 70.3869 130.6 70.22C134.73 66.06 140.27 60.94 139.85 56.54C140.06 60.86 134.65 65.88 130.59 70Z" fill="#F1CA12"/>
<path d="M254.9 90C255.534 88.9037 255.826 87.6433 255.74 86.38C255.789 87.6276 255.462 88.8611 254.8 89.92L254.9 90Z" fill="#F1CA12"/>
<path d="M83.6401 148.54C83.8801 141.83 84.1201 139.14 86.7901 132.47C86.8767 132.005 86.9102 131.532 86.8901 131.06C86.89 131.459 86.8565 131.857 86.7901 132.25C84.0901 139 83.8801 141.67 83.6401 148.54Z" fill="#F1CA12"/>
<path d="M258.5 100.58C257.43 102.58 255.76 104.72 253.6 104.67C251.26 113.94 234.75 108.5 227.3 105.99C205.53 101.84 200.48 112.66 192.88 132.28C189.516 138.389 187.626 145.2 187.36 152.17C187.648 145.278 189.534 138.548 192.87 132.51C200.5 112.89 205.54 102.07 227.31 106.22C234.76 108.73 251.31 114.22 253.61 104.9C255.78 104.9 257.44 102.78 258.52 100.82C258.89 99.672 259.023 98.4608 258.91 97.26C258.996 98.3829 258.857 99.5117 258.5 100.58V100.58Z" fill="#F1CA12"/>
<path d="M94.5701 133L89.3001 126C87.7191 122.671 86.6697 119.114 86.1901 115.46C84.8701 106.96 85.0601 97.89 84.7701 89.27C84.1857 89.2831 83.607 89.1533 83.0842 88.8919C82.5613 88.6305 82.1103 88.2454 81.7701 87.77C75.3201 87.71 62.9101 84.77 58.0901 80.56C56.5301 79.38 55.9501 77.37 56.0901 75.13C55.8901 77.45 56.4601 79.57 58.0901 80.78C62.9401 85 75.3501 87.92 81.8101 88C82.1403 88.4719 82.5807 88.856 83.0931 89.1192C83.6054 89.3823 84.1742 89.5165 84.7501 89.51C85.0501 98.13 84.8601 107.19 86.1801 115.7C86.661 119.354 87.7103 122.91 89.2901 126.24L94.5601 133.24L102.1 140.47L102.2 140.37L94.5701 133Z" fill="#F1CA12"/>
<path d="M66.9204 144.14C67.0104 144.99 67.1204 145.85 67.2504 146.71C67.1204 145.85 67.0004 145 66.9204 144.14Z" fill="#F1CA12"/>
<path d="M91.3602 200.69C86.9575 200.007 82.772 198.316 79.1302 195.75C73.9802 193.17 69.8302 189.61 63.6802 188.02C54.3802 185.31 27.6802 191.31 20.6002 182.34C20.2202 180.81 19.8302 180.86 19.4702 180.77C17.2402 180.28 16.2102 177.9 15.9102 175.32C16.1702 177.99 17.2002 180.51 19.4902 181.02C19.8602 181.1 20.2502 181.02 20.6302 182.59C27.6302 191.59 54.4002 185.59 63.7102 188.27C69.8502 189.86 74.0102 193.42 79.1602 195.99C82.7954 198.564 86.9786 200.258 91.3802 200.94C97.3202 201.18 101.47 198.34 105.06 194.94C106.142 197.31 106.866 199.827 107.21 202.41C106.885 199.74 106.15 197.136 105.03 194.69C101.44 198.1 97.2902 200.93 91.3602 200.69Z" fill="#F1CA12"/>
<path d="M193.74 185.43C193.461 190.286 192.775 195.109 191.69 199.85C191.52 200.54 191.32 201.22 191.1 201.91L191.19 201.85C191.37 201.26 191.53 200.66 191.68 200.06C192.788 195.252 193.477 190.357 193.74 185.43Z" fill="#F1CA12"/>
<path d="M250.57 78.86C252.007 79.5488 253.239 80.5999 254.146 81.9098C255.052 83.2197 255.602 84.7431 255.74 86.33C255.643 84.701 255.111 83.1278 254.2 81.7737C253.289 80.4196 252.033 79.3342 250.56 78.63C238.08 71.86 228 68.32 214.38 66.46C214.376 66.5366 214.376 66.6134 214.38 66.69C228 68.54 238.07 72.08 250.57 78.86Z" fill="#F2CB12"/>
<path d="M89.5101 158.4L91.7301 153.64L93.5101 149.35C94.6301 146.35 99.8101 143.09 102.2 140.51L102.1 140.41C99.6801 142.97 94.6201 146.2 93.5101 149.16L91.7401 153.44L89.5201 158.2C88.5201 157.91 85.5901 151.77 83.6401 148.55C83.6451 148.62 83.6451 148.69 83.6401 148.76C85.5801 152 88.5101 158.11 89.5101 158.4Z" fill="#F2CB12"/>
<path d="M258.91 97.26C258.783 95.8318 258.362 94.4452 257.673 93.1873C256.985 91.9294 256.044 90.8273 254.91 89.95L254.83 90.1C255.962 90.9529 256.907 92.0279 257.609 93.2591C258.31 94.4903 258.753 95.8517 258.91 97.26Z" fill="#F2CB12"/>
<path d="M187.68 157.56L188.25 159.49L191.38 167.73C193.28 173.428 194.08 179.434 193.74 185.43C194.11 179.357 193.309 173.27 191.38 167.5L188.26 159.28L187.69 157.34C187.424 155.63 187.313 153.9 187.36 152.17C187.301 153.973 187.408 155.777 187.68 157.56Z" fill="#F2CB12"/>
<path d="M107.31 203.23C107.31 202.94 107.25 202.66 107.21 202.37C107.25 202.66 107.28 202.94 107.31 203.23Z" fill="#F2CB12"/>
<path d="M107.31 203.27C107.648 207.086 107.143 210.931 105.83 214.53H105.94C107.224 210.924 107.692 207.078 107.31 203.27Z" fill="#F2CB12"/>
<path d="M65.0001 63.89C67.2018 63.8434 69.3535 64.5489 71.1001 65.89L78.3901 71.23C87.3901 76.12 89.2401 71.87 97.6101 66.71L101.91 64.56C106.79 62.41 115.76 63.42 120.48 64.69C124.67 65.82 118.78 51.2 129.48 47.69C135.07 48.59 138.58 48.79 139.74 55.69C139.817 55.9649 139.871 56.246 139.9 56.53C139.883 56.1714 139.826 55.8159 139.73 55.47C138.56 48.57 135.06 48.37 129.5 47.47C118.82 51.02 124.72 65.65 120.5 64.47C115.79 63.2 106.82 62.2 101.93 64.34L97.6301 66.5C89.2401 71.67 87.3701 75.93 78.3801 71L71.0901 65.7C69.3466 64.3604 67.1985 63.6549 65.0001 63.7C60.3901 63.99 56.4501 70.14 56.1401 75.16C56.5501 70.14 60.4401 64.17 65.0001 63.89Z" fill="#F2CB12"/>
<path d="M132.11 72.24C139.11 66.62 168.4 58.84 187.11 62.68C192.36 63.75 194.97 65.76 196.41 69.85L200.58 64.13C201.722 61.7791 202.212 59.1649 202 56.56C202.185 59.086 201.706 61.6164 200.61 63.9L196.44 69.64C195 65.53 192.38 63.54 187.13 62.46C168.38 58.62 139.13 66.4 132.13 72.03C131.758 72.0105 131.401 71.8731 131.111 71.6376C130.822 71.4021 130.615 71.0808 130.52 70.72C130.46 71.58 131.3 72.14 132.11 72.24Z" fill="#F2CB12"/>
<path d="M69.6404 128.75C72.4004 124.81 76.0404 124.58 81.5404 125.34C84.3904 125.96 86.7704 128.04 86.8904 131.07C86.8904 127.92 84.4604 125.75 81.5404 125.12C76.0404 124.35 72.4004 124.59 69.6104 128.53C66.8904 131.69 66.2404 137.69 66.9204 144.14C66.2804 137.78 67.0004 131.88 69.6404 128.75Z" fill="#F2CB12"/>
<path d="M15.89 172.74C15.9787 171.159 16.4581 169.624 17.2853 168.273C18.1125 166.922 19.2617 165.798 20.63 165C20.29 159.65 20.69 157.91 24.63 155.07C32.45 150.22 43.63 147.85 52.69 146.75C57.5544 146.255 62.4593 146.315 67.31 146.93V146.71C62.4627 146.097 57.5616 146.033 52.7 146.52C43.7 147.6 32.48 149.97 24.7 154.82C20.79 157.66 20.39 159.4 20.7 164.76C19.3312 165.555 18.1815 166.677 17.3541 168.027C16.5267 169.376 16.0476 170.91 15.96 172.49C15.8919 173.433 15.9086 174.38 16.01 175.32C15.9001 174.465 15.86 173.602 15.89 172.74V172.74Z" fill="#F2CB12"/>
<path d="M213.71 47.12C215.571 48.982 216.645 51.4882 216.71 54.12C216.705 52.7664 216.431 51.4272 215.906 50.1795C215.381 48.9319 214.614 47.8003 213.65 46.85C208.77 43.02 200.65 43.85 201.07 50.25C200.88 44.07 208.89 43.33 213.71 47.12Z" fill="#F2CB12"/>
<path d="M134.12 218.25C154.278 218.264 174.032 212.602 191.12 201.91C191.34 201.22 191.54 200.54 191.71 199.85C192.795 195.109 193.481 190.286 193.76 185.43C194.1 179.434 193.3 173.428 191.4 167.73L188.27 159.49L187.7 157.56C187.428 155.777 187.321 153.973 187.38 152.17C187.645 145.2 189.536 138.389 192.9 132.28C200.5 112.66 205.55 101.84 227.32 105.99C234.77 108.5 251.32 113.99 253.62 104.67C255.78 104.67 257.45 102.55 258.52 100.58C258.877 99.5117 259.016 98.3829 258.93 97.26C258.772 95.8509 258.328 94.489 257.624 93.2578C256.921 92.0266 255.974 90.952 254.84 90.1L254.92 89.95L254.82 89.87C255.482 88.8111 255.809 87.5776 255.76 86.33C255.622 84.7431 255.072 83.2196 254.165 81.9098C253.259 80.5999 252.027 79.5488 250.59 78.86C238.09 72.08 227.98 68.54 214.35 66.69C214.346 66.6134 214.346 66.5366 214.35 66.46H214.28C215.28 61.72 216.77 57.78 216.72 54.16C216.655 51.5282 215.581 49.022 213.72 47.16C208.9 43.37 200.89 44.16 201.12 50.32C201.145 50.7338 201.202 51.145 201.29 51.55C201.672 53.2105 201.916 54.8995 202.02 56.6C202.245 59.2013 201.768 61.8153 200.64 64.17L196.47 69.89C195.03 65.8 192.42 63.79 187.17 62.72C168.41 58.88 139.17 66.66 132.17 72.28C131.36 72.18 130.52 71.62 130.55 70.76C130.511 70.5056 130.546 70.2454 130.65 70.01C134.71 65.92 140.12 60.9 139.91 56.55C139.881 56.2659 139.827 55.9849 139.75 55.71C138.59 48.81 135.08 48.61 129.49 47.71C118.82 51.27 124.71 65.89 120.49 64.71C115.77 63.44 106.8 62.43 101.92 64.58L97.6203 66.73C89.2503 71.89 87.3902 76.14 78.4002 71.25L71.1102 65.91C69.3636 64.5689 67.2119 63.8634 65.0103 63.91C60.4703 64.19 56.5802 70.16 56.1702 75.14C56.0302 77.38 56.6102 79.39 58.1702 80.57C63.0002 84.78 75.3703 87.7 81.8203 87.76C82.1604 88.2354 82.6115 88.6205 83.1343 88.8819C83.6571 89.1433 84.2359 89.2731 84.8203 89.26C85.1103 97.88 84.9202 106.95 86.2402 115.45C86.703 119.105 87.7355 122.665 89.3003 126L94.5703 133L102.2 140.35L102.1 140.45L102.2 140.55C99.8102 143.13 94.6303 146.41 93.5103 149.39L91.7303 153.68L89.5103 158.44C88.5103 158.15 85.5802 152 83.6302 148.8C83.6352 148.73 83.6352 148.66 83.6302 148.59V148.59C83.8702 141.72 84.0803 139.05 86.7803 132.31C86.8466 131.917 86.8801 131.519 86.8802 131.12C86.7602 128.12 84.3803 126.01 81.5303 125.39C76.0303 124.63 72.3902 124.86 69.6302 128.8C66.9402 131.93 66.2703 137.8 66.9103 144.19C67.0003 145.04 67.1102 145.9 67.2502 146.76V146.98C62.3995 146.365 57.4946 146.305 52.6302 146.8C43.6302 147.9 32.3902 150.27 24.5702 155.12C20.6602 157.96 20.2602 159.7 20.5702 165.05C19.2019 165.848 18.0527 166.972 17.2255 168.323C16.3983 169.674 15.9189 171.209 15.8302 172.79C15.7604 173.649 15.7604 174.511 15.8302 175.37C16.1302 177.95 17.1602 180.37 19.3902 180.82C19.7502 180.91 20.1402 180.82 20.5202 182.39C27.5202 191.39 54.3002 185.39 63.6002 188.07C69.7502 189.66 73.9003 193.22 79.0503 195.8C82.6921 198.366 86.8776 200.057 91.2803 200.74C97.2103 200.98 101.36 198.15 104.95 194.74C106.07 197.186 106.805 199.79 107.13 202.46C107.13 202.75 107.2 203.03 107.23 203.32C107.616 207.135 107.148 210.988 105.86 214.6C113.658 216.706 121.669 217.92 129.74 218.22C131.25 218.23 132.7 218.25 134.12 218.25Z" fill="#F9CE19"/>
<path d="M106.17 215.77L104.77 215.2C107.284 209.026 107.284 202.114 104.77 195.94C101.51 198.94 97.34 201.68 91.33 201.44C86.8057 200.76 82.4982 199.049 78.74 196.44C77.01 195.57 75.38 194.58 73.8 193.63C70.55 191.63 67.48 189.82 63.49 188.79C60.21 187.79 54.49 188 48.49 188.17C37.37 188.5 24.76 188.86 20.04 182.84L19.94 182.71V182.56C19.74 181.74 19.57 181.56 19.57 181.56H19.48H19.36C15.84 180.77 14.91 176.18 15.18 172.49C15.2705 170.867 15.7456 169.289 16.5663 167.886C17.387 166.482 18.5297 165.294 19.9 164.42C19.63 159.12 20.21 157.19 24.24 154.26C32.52 149.12 44.24 146.83 52.61 145.82C57.2098 145.356 61.8458 145.383 66.44 145.9C65.32 137.83 66.28 131.37 69.11 128.09C72.02 123.97 75.94 123.62 81.72 124.42C85.15 125.16 88.41 127.98 87.6 132.42V132.57C84.97 139.13 84.75 141.65 84.51 148.37C85.13 149.37 85.84 150.73 86.51 152C87.39 153.61 88.61 155.87 89.38 156.95L91.14 153.15L92.9 148.9C93.7 146.78 96.2 144.68 98.61 142.65C99.61 141.84 100.48 141.07 101.22 140.36L94 133.41L88.65 126.31C87.0307 122.913 85.9575 119.282 85.47 115.55C84.6094 108.942 84.1852 102.284 84.2 95.62C84.2 93.72 84.13 91.83 84.07 89.96C83.0639 89.7936 82.1477 89.2807 81.48 88.51C74.89 88.35 62.61 85.46 57.67 81.11C55.43 79.43 54.78 76.03 55.97 72.05C57.26 67.71 60.78 63.18 64.97 62.91C67.3595 62.8588 69.6938 63.6321 71.58 65.1L78.8 70.4C85.49 74.02 87.8 72.4 92.7 68.92C94 68 95.47 66.92 97.23 65.92L101.58 63.73C106.82 61.43 116.08 62.56 120.68 63.81C120.76 63.81 120.95 63.87 121.03 63.81C121.44 63.52 121.54 61.7 121.62 60.24C121.86 55.81 122.22 49.11 129.23 46.77L129.41 46.71L130.41 46.87C135.54 47.69 139.25 48.28 140.41 55.36C141.72 59.96 136.58 65.09 132.04 69.61L131.24 70.41C131.211 70.4745 131.196 70.5443 131.196 70.615C131.196 70.6857 131.211 70.7555 131.24 70.82C131.39 71.0339 131.609 71.1893 131.86 71.26C139.42 65.59 168.49 57.92 187.25 61.76C192.25 62.76 194.97 64.62 196.59 68.13L200 63.51C201.91 59.6 201.41 55.51 200.57 51.67C199.92 48.67 200.77 46.26 202.94 44.9C205.94 43.02 210.79 43.62 214.19 46.29L214.27 46.37C218.96 51.37 217.65 56.42 216.12 62.3C215.83 63.43 215.53 64.6 215.25 65.82C228.2 67.66 238.25 71.1 250.95 77.97C252.22 78.601 253.346 79.4883 254.257 80.5761C255.167 81.6638 255.842 82.9283 256.24 84.29C256.767 86.0857 256.61 88.013 255.8 89.7C257.408 91.0064 258.594 92.7593 259.207 94.738C259.821 96.7167 259.836 98.8329 259.25 100.82L259.2 100.94C257.71 103.67 256.03 105.16 254.2 105.39C253.941 106.24 253.518 107.031 252.953 107.718C252.389 108.404 251.694 108.972 250.91 109.39C244.82 112.71 232.91 108.7 227.12 106.75C206.19 102.75 201.23 112.89 193.6 132.59L193.55 132.7C190.69 137.56 186.98 148.12 188.45 157.25L189 159.09L192.11 167.27C196.58 180.27 193.05 199.12 191.86 204.57L190.38 204.25C193.5 189.95 193.61 176.32 190.69 167.78L187.57 159.57L186.99 157.57C185.42 148 189.24 137 192.2 132C199.9 112.12 205.35 101.08 227.44 105.29H227.54C232.65 107.02 244.64 111.07 250.17 108.05C250.851 107.69 251.445 107.186 251.912 106.573C252.378 105.96 252.705 105.252 252.87 104.5L253.01 103.92H253.62C255.45 103.92 256.87 101.99 257.81 100.29C258.9 96.88 257.54 93.04 254.33 90.47L253.81 90.05L254.17 89.48C254.595 88.7679 254.866 87.9747 254.966 87.1514C255.066 86.3281 254.992 85.4931 254.75 84.7C254.407 83.5367 253.826 82.4572 253.044 81.5295C252.263 80.6018 251.298 79.8461 250.21 79.31C237.45 72.39 227.36 69 214.21 67.21L213.41 67.1L213.57 66.31C213.9 64.77 214.27 63.31 214.63 61.93C216.15 56.05 217.25 51.8 213.18 47.45C210.31 45.22 206.18 44.66 203.71 46.19C202.09 47.19 201.51 48.99 202.02 51.37C202.91 55.49 203.44 59.9 201.3 64.24L201.23 64.35L196.23 71.25L195.75 69.9C194.39 66 192 64.23 187 63.2C168.39 59.39 139.48 67.08 132.58 72.62L132.33 72.82H132.02C131.617 72.774 131.229 72.6399 130.883 72.4274C130.538 72.2148 130.243 71.929 130.02 71.59C129.861 71.3088 129.769 70.9945 129.751 70.6717C129.734 70.349 129.792 70.0267 129.92 69.73L129.97 69.58L130.97 68.58C134.97 64.58 140.03 59.58 138.97 55.73C137.97 49.64 135.18 49.2 130.17 48.4L129.54 48.3C123.67 50.36 123.35 56.14 123.13 60.36C123 62.68 122.91 64.36 121.92 65.08C121.683 65.2392 121.413 65.3418 121.131 65.38C120.848 65.4181 120.56 65.3907 120.29 65.3C115.55 64.02 106.82 63.12 102.23 65.13L97.94 67.2C96.29 68.2 94.84 69.2 93.56 70.2C88.56 73.72 85.56 75.85 78.02 71.75L77.93 71.69L70.65 66.36C69.0468 65.081 67.0507 64.3956 65 64.42C61.56 64.64 58.49 68.73 57.37 72.48C56.37 75.83 56.82 78.62 58.59 79.94C63.33 84.12 75.7 86.94 81.82 87.01H82.2L82.42 87.32C82.6857 87.6894 83.0357 87.9901 83.4409 88.197C83.8462 88.404 84.295 88.5113 84.75 88.51H85.49V89.25C85.5633 91.3433 85.6167 93.46 85.65 95.6C85.6359 102.204 86.0568 108.801 86.91 115.35C87.3681 118.906 88.3804 122.368 89.91 125.61L95.1 132.46L103.21 140.29L102.71 140.84C101.682 141.883 100.594 142.865 99.45 143.78C97.29 145.6 94.84 147.66 94.18 149.44L92.39 153.74L89.89 159.12L89.27 158.94C88.38 158.68 87.4 157.02 85.06 152.7C84.33 151.36 83.58 149.98 82.95 148.94L82.84 148.75V148.53C83.09 141.61 83.31 138.86 86.02 132.06C86.6 128.61 84.1 126.46 81.34 125.87C75.95 125.12 72.72 125.39 70.19 128.97C67.49 132.11 66.7 138.52 67.96 146.61L68.12 147.61L67.12 147.48C62.3259 146.872 57.4784 146.808 52.67 147.29C44.46 148.29 32.97 150.51 24.97 155.48C21.33 158.13 20.97 159.6 21.32 164.74V165.18L20.95 165.42C19.6743 166.153 18.603 167.194 17.8342 168.449C17.0655 169.703 16.6239 171.131 16.55 172.6C16.31 175.91 17.15 179.52 19.55 180.06C20.34 180.22 20.83 180.59 21.21 182.06C25.55 187.35 37.65 187 48.34 186.69C54.5 186.51 60.34 186.35 63.81 187.36C67.6043 188.48 71.2081 190.166 74.5 192.36C76.07 193.31 77.69 194.28 79.39 195.13L79.49 195.19C83.034 197.687 87.1062 199.333 91.39 200C97.25 200.24 101.29 197.19 104.39 194.17L105.16 193.44L105.6 194.44C107.136 197.771 107.978 201.38 108.076 205.046C108.174 208.713 107.526 212.362 106.17 215.77Z" fill="#71391A"/>
<path d="M120.63 141.07L129.81 146.64L139 148.84L145.82 149.41L150.93 148.88C150.93 148.88 152.23 149.88 150.93 150.2C150.56 151.38 149.08 152.75 146.85 153.93C145.1 155.54 140.31 155.33 140.31 155.33L134.23 153.74L127.66 149.67C127.66 149.67 124 146.51 124 146.3C124 146.09 123.89 147.09 120.15 141.83C116.41 136.57 120.35 141.08 120.35 141.08L120.63 141.07Z" fill="#222220"/>
<path d="M140.19 163.3C137.428 163.379 134.692 162.753 132.24 161.48L120.3 154.4L104.89 142.85C104.77 142.77 103.14 141.85 102.16 141.26C101.988 141.161 101.862 140.997 101.81 140.804C101.759 140.612 101.786 140.407 101.885 140.235C101.985 140.063 102.148 139.937 102.341 139.885C102.533 139.834 102.738 139.861 102.91 139.96C105.69 141.56 105.76 141.61 105.81 141.65L121.14 153.14L133.01 160.14C136.82 162.4 145.69 162.73 150.9 158.09C156.62 153.02 157.47 149.29 157.75 148.09C157.84 147.68 157.9 147.39 158.23 147.2L174.31 137.66C193.12 126.49 193.88 100.66 194.39 83.53C194.58 77.17 194.72 72.15 195.75 69.36C195.832 69.1907 195.975 69.0579 196.149 68.9874C196.324 68.9169 196.518 68.9137 196.695 68.9785C196.872 69.0432 197.018 69.1713 197.106 69.3378C197.194 69.5044 197.217 69.6976 197.17 69.88C196.23 72.44 196.08 77.36 195.9 83.58C195.38 101.01 194.61 127.36 175.08 138.96L159.23 148.36C159.23 148.36 159.23 148.36 159.23 148.42C158.92 149.77 158 153.86 151.91 159.25C148.62 161.969 144.457 163.407 140.19 163.3Z" fill="#71391A"/>
<path d="M152.12 149.34C151.921 149.349 151.727 149.279 151.58 149.145C151.432 149.011 151.345 148.824 151.335 148.625C151.326 148.426 151.396 148.232 151.53 148.084C151.664 147.937 151.851 147.849 152.05 147.84C154.11 147.64 156.29 147.4 158.52 147.12C158.624 147.096 158.731 147.094 158.836 147.114C158.94 147.134 159.039 147.176 159.127 147.236C159.214 147.297 159.288 147.376 159.343 147.467C159.398 147.558 159.433 147.659 159.447 147.765C159.46 147.87 159.451 147.977 159.42 148.079C159.39 148.181 159.338 148.275 159.269 148.356C159.199 148.437 159.114 148.502 159.017 148.547C158.921 148.593 158.817 148.618 158.71 148.62C156.46 148.9 154.27 149.15 152.19 149.34H152.12Z" fill="#71391A"/>
<path d="M144.13 149.76C131.54 149.76 122.13 145.94 112.74 132.39L112.67 132.3C112.576 132.137 112.547 131.944 112.587 131.76C112.627 131.576 112.734 131.413 112.887 131.304C113.04 131.194 113.229 131.145 113.416 131.167C113.603 131.188 113.776 131.279 113.9 131.42L113.97 131.52C124.97 147.29 135.41 149.39 152.05 147.84C152.149 147.828 152.25 147.835 152.346 147.863C152.441 147.891 152.531 147.939 152.607 148.002C152.684 148.066 152.747 148.145 152.792 148.234C152.838 148.323 152.864 148.42 152.87 148.52C152.88 148.619 152.87 148.718 152.841 148.813C152.812 148.907 152.764 148.995 152.701 149.072C152.638 149.148 152.56 149.211 152.472 149.257C152.385 149.303 152.289 149.331 152.19 149.34C149.36 149.6 146.68 149.76 144.13 149.76Z" fill="#71391A"/>
<path d="M113.28 132.61C113.164 132.61 113.049 132.583 112.945 132.531C112.841 132.479 112.75 132.403 112.68 132.31L106 123.44C105.88 123.281 105.827 123.08 105.854 122.882C105.881 122.685 105.986 122.506 106.145 122.385C106.304 122.264 106.505 122.212 106.703 122.239C106.901 122.266 107.08 122.371 107.2 122.53L113.86 131.41C113.919 131.489 113.962 131.578 113.987 131.674C114.011 131.769 114.017 131.869 114.003 131.966C113.989 132.064 113.956 132.157 113.906 132.242C113.855 132.327 113.789 132.401 113.71 132.46C113.585 132.551 113.435 132.603 113.28 132.61V132.61Z" fill="#71391A"/>
<path d="M115.71 136.14C115.564 136.139 115.421 136.096 115.299 136.017C115.177 135.937 115.08 135.823 115.02 135.69C114.94 135.51 114.86 135.32 114.79 135.14C114.753 135.048 114.735 134.95 114.736 134.851C114.738 134.752 114.758 134.654 114.797 134.563C114.836 134.472 114.893 134.39 114.964 134.32C115.035 134.251 115.118 134.197 115.21 134.16C115.302 134.123 115.4 134.105 115.499 134.106C115.598 134.107 115.696 134.128 115.787 134.167C115.878 134.206 115.961 134.263 116.03 134.333C116.099 134.404 116.153 134.488 116.19 134.58C116.25 134.74 116.32 134.9 116.4 135.07C116.482 135.253 116.487 135.461 116.416 135.648C116.345 135.835 116.203 135.987 116.02 136.07C115.924 136.117 115.818 136.141 115.71 136.14V136.14Z" fill="#71391A"/>
<path d="M100.05 126.81C99.8615 126.803 99.6824 126.726 99.5476 126.594C99.4128 126.462 99.3319 126.284 99.3207 126.096C99.3095 125.907 99.3687 125.722 99.4868 125.575C99.605 125.428 99.7736 125.33 99.96 125.3L100.53 125.23C107.96 124.15 108.07 118.69 108.15 114.69C108.15 114.36 108.15 114.05 108.15 113.75C108.155 113.644 108.181 113.541 108.227 113.446C108.273 113.35 108.337 113.265 108.416 113.195C108.496 113.125 108.588 113.072 108.688 113.039C108.789 113.005 108.895 112.992 109 113C109.2 113.008 109.388 113.094 109.525 113.24C109.662 113.386 109.735 113.58 109.73 113.78C109.73 114.073 109.73 114.383 109.73 114.71C109.65 118.71 109.52 125.44 100.8 126.71L100.21 126.78L100.05 126.81Z" fill="#71391A"/>
<path d="M120.77 105.08C121.34 102.08 122.18 97.08 123.54 92.22C125.18 86.22 127.85 80.39 132.39 79.63C137.12 80.19 138.52 81.33 138.39 84.91C138.224 87.1372 137.916 89.3517 137.47 91.54C135.47 70.09 123.21 93.24 123.21 93.24" fill="#71391A"/>
<path d="M120.77 105.46H120.7C120.651 105.452 120.604 105.433 120.562 105.407C120.52 105.38 120.484 105.345 120.456 105.304C120.428 105.263 120.409 105.216 120.399 105.168C120.39 105.119 120.39 105.069 120.4 105.02L120.62 103.85C121.14 101.01 121.84 97.22 122.86 93.29C122.836 93.2186 122.836 93.1414 122.86 93.07V93.01L123.1 92.13C125.28 84.25 128.36 79.92 132.26 79.26H132.37C137.37 79.86 138.83 81.19 138.71 84.93C138.552 87.1785 138.241 89.4137 137.78 91.62H137.04C136.55 86.27 135.34 83.25 133.55 82.89C130.3 82.24 125.32 90.08 123.55 93.33C122.55 97.33 121.8 101.15 121.27 104.02L121.05 105.2C121.03 105.264 120.994 105.322 120.945 105.368C120.896 105.413 120.835 105.445 120.77 105.46V105.46ZM132.4 80C129.17 80.57 126.51 84 124.49 90.33C126.65 86.88 130.6 81.46 133.77 82.09C135.64 82.47 136.89 84.74 137.56 89C137.77 87.63 137.93 86.25 138.03 84.87C138.13 81.58 137 80.56 132.4 80Z" fill="#71391A"/>
<path d="M188.57 65.76C191.13 65.07 196.19 77.89 189.33 68.65L188.57 65.76Z" fill="#71391A"/>
<path d="M192.54 72.78C191.83 72.78 190.83 71.94 188.73 69.1L188.64 68.98L187.64 65.23L188.37 65.03C190.37 64.49 192.44 68.31 193.06 69.83C193.49 70.83 193.87 72.16 193.06 72.64C192.905 72.7387 192.724 72.7875 192.54 72.78V72.78ZM190 68.31C190.7 69.24 191.22 69.88 191.61 70.31C191.144 69.1685 190.5 68.1085 189.7 67.17L190 68.31Z" fill="#71391A"/>
<path d="M219.47 81.25C219.349 81.2521 219.229 81.2248 219.121 81.1705C219.013 81.1163 218.919 81.0366 218.849 80.9383C218.778 80.8401 218.732 80.7261 218.715 80.6062C218.698 80.4864 218.71 80.3641 218.75 80.25C220.19 75.4 218.3 74.13 216.11 72.66C215.058 72.0428 214.123 71.2438 213.35 70.3L213.18 70.06L213.58 66.36C213.605 66.1609 213.707 65.9794 213.864 65.8543C214.021 65.7291 214.22 65.6702 214.42 65.69C214.618 65.7126 214.798 65.8127 214.922 65.9683C215.046 66.124 215.103 66.3224 215.08 66.52L214.74 69.63C215.408 70.3329 216.168 70.9418 217 71.44C219.35 73.01 222 74.79 220.25 80.71C220.201 80.8751 220.097 81.0185 219.955 81.1166C219.813 81.2148 219.642 81.2618 219.47 81.25Z" fill="#71391A"/>
<path d="M254.83 90.62C254.643 90.6209 254.461 90.5533 254.32 90.43C247.7 84.51 242.52 82.12 235.32 79.79C235.148 79.7145 235.01 79.578 234.933 79.4068C234.856 79.2356 234.845 79.0418 234.902 78.8629C234.959 78.684 235.08 78.5326 235.242 78.4379C235.405 78.3432 235.596 78.3119 235.78 78.35C243.22 80.75 248.54 83.21 255.37 89.35C255.519 89.4843 255.61 89.6722 255.621 89.8726C255.632 90.0731 255.563 90.2699 255.43 90.42C255.351 90.495 255.256 90.5518 255.152 90.5864C255.049 90.6209 254.939 90.6324 254.83 90.62Z" fill="#71391A"/>
<path d="M253.62 105.41C253.434 105.409 253.256 105.337 253.12 105.21C248.27 100.897 242.469 97.7927 236.19 96.15C236.093 96.1268 236.002 96.0843 235.922 96.025C235.842 95.9657 235.775 95.8909 235.724 95.805C235.674 95.7191 235.641 95.6239 235.629 95.5251C235.616 95.4263 235.623 95.3259 235.65 95.23C235.702 95.0372 235.827 94.8725 236 94.7715C236.172 94.6705 236.377 94.6412 236.57 94.69C243.083 96.395 249.1 99.6159 254.13 104.09C254.243 104.193 254.322 104.328 254.356 104.477C254.391 104.626 254.38 104.781 254.325 104.924C254.27 105.066 254.174 105.189 254.048 105.276C253.922 105.362 253.773 105.409 253.62 105.41V105.41Z" fill="#71391A"/>
<path d="M20.6001 165.51C20.4366 165.51 20.2778 165.456 20.1476 165.357C20.0174 165.259 19.9231 165.12 19.879 164.963C19.8348 164.805 19.8433 164.638 19.903 164.486C19.9628 164.334 20.0706 164.205 20.2101 164.12C26.6901 160.12 35.2101 155.56 43.4501 156.12C43.5491 156.125 43.6461 156.15 43.7353 156.193C43.8246 156.236 43.9042 156.297 43.9695 156.372C44.0348 156.446 44.0844 156.533 44.1154 156.628C44.1464 156.722 44.1582 156.821 44.1501 156.92C44.1437 157.019 44.1177 157.117 44.0734 157.206C44.029 157.295 43.9674 157.375 43.892 157.44C43.8165 157.505 43.7289 157.555 43.6341 157.586C43.5394 157.616 43.4394 157.628 43.3401 157.62C35.5301 157.09 27.2901 161.49 21.0001 165.39C20.8818 165.469 20.7424 165.511 20.6001 165.51V165.51Z" fill="#71391A"/>
<path d="M19.7598 181.59C19.6002 181.586 19.446 181.532 19.3189 181.435C19.1919 181.338 19.0985 181.204 19.052 181.052C19.0055 180.899 19.0083 180.735 19.06 180.584C19.1116 180.433 19.2096 180.302 19.3398 180.21C25.6398 175.94 33.8498 173.11 40.2498 173.02C40.3501 173.011 40.4512 173.024 40.546 173.058C40.6409 173.092 40.7273 173.146 40.7995 173.216C40.8716 173.286 40.9278 173.371 40.9641 173.465C41.0004 173.559 41.016 173.66 41.0098 173.76C41.0125 173.859 40.9954 173.958 40.9595 174.051C40.9236 174.144 40.8697 174.228 40.8009 174.3C40.732 174.371 40.6496 174.429 40.5585 174.468C40.4673 174.508 40.3692 174.529 40.2698 174.53C34.1498 174.62 26.2698 177.34 20.1898 181.46C20.0632 181.546 19.9131 181.592 19.7598 181.59V181.59Z" fill="#71391A"/>
<path d="M60.5002 162.26C60.3703 162.26 60.2425 162.227 60.1289 162.164C60.0152 162.101 59.9194 162.01 59.8502 161.9C57.4902 158.08 61.2702 155.08 64.3102 152.67C66.0802 151.26 67.9202 149.8 67.8902 148.67C67.8902 148.23 67.5402 147.76 66.8902 147.27C66.7418 147.155 66.642 146.988 66.6105 146.803C66.579 146.618 66.6182 146.428 66.7202 146.27C66.8384 146.107 67.0163 145.998 67.215 145.966C67.4138 145.934 67.617 145.982 67.7802 146.1C68.2389 146.371 68.6267 146.747 68.9117 147.198C69.1968 147.648 69.3711 148.159 69.4202 148.69C69.4202 150.55 67.4202 152.17 65.2702 153.88C61.7802 156.65 59.6202 158.65 61.1602 161.14C61.2542 161.307 61.2807 161.504 61.2342 161.69C61.1877 161.876 61.0718 162.037 60.9102 162.14C60.7871 162.217 60.6453 162.258 60.5002 162.26Z" fill="#71391A"/>
<path d="M61.7903 188.36C61.6268 188.358 61.4684 188.303 61.3385 188.204C61.2086 188.105 61.1142 187.966 61.0693 187.809C61.0244 187.652 61.0313 187.484 61.0892 187.331C61.147 187.178 61.2526 187.048 61.3903 186.96C62.3611 186.389 63.3626 185.871 64.3903 185.41C67.7303 183.85 70.8803 182.41 70.9003 178.34C70.9029 178.14 70.9841 177.949 71.1264 177.809C71.2686 177.669 71.4604 177.59 71.6603 177.59V177.59C71.76 177.589 71.859 177.607 71.9512 177.645C72.0435 177.683 72.1272 177.739 72.1972 177.81C72.2673 177.881 72.3223 177.966 72.3589 178.058C72.3955 178.151 72.413 178.25 72.4103 178.35C72.4103 183.35 68.4803 185.17 65.0303 186.77C64.0462 187.208 63.088 187.703 62.1603 188.25C62.0473 188.315 61.9205 188.353 61.7903 188.36V188.36Z" fill="#71391A"/>
<path d="M89.0002 167.77C88.8013 167.755 88.6161 167.663 88.4836 167.513C88.3512 167.364 88.2819 167.169 88.2902 166.97L88.8402 158.13C88.8461 158.032 88.8714 157.935 88.9145 157.846C88.9577 157.758 89.0179 157.678 89.0917 157.613C89.1655 157.547 89.2515 157.497 89.3448 157.465C89.438 157.433 89.5367 157.419 89.6352 157.425C89.7337 157.431 89.8301 157.456 89.9188 157.499C90.0075 157.542 90.0869 157.603 90.1524 157.677C90.2178 157.75 90.2681 157.836 90.3004 157.93C90.3326 158.023 90.3461 158.122 90.3402 158.22L89.8002 167.06C89.7874 167.26 89.6961 167.447 89.5463 167.58C89.3965 167.713 89.2002 167.781 89.0002 167.77V167.77Z" fill="#71391A"/>
<path d="M105 195.39C104.9 195.39 104.802 195.37 104.71 195.33C104.616 195.293 104.531 195.237 104.459 195.166C104.387 195.095 104.331 195.011 104.292 194.917C104.254 194.824 104.235 194.724 104.236 194.623C104.238 194.522 104.259 194.422 104.3 194.33C105.795 191.218 106.674 187.846 106.89 184.4C106.903 184.201 106.993 184.015 107.14 183.881C107.287 183.746 107.481 183.674 107.68 183.68C107.78 183.684 107.877 183.707 107.967 183.749C108.058 183.791 108.139 183.851 108.206 183.924C108.273 183.998 108.324 184.084 108.358 184.178C108.391 184.271 108.406 184.371 108.4 184.47C108.156 188.092 107.237 191.636 105.69 194.92C105.635 195.058 105.539 195.176 105.417 195.26C105.294 195.344 105.149 195.389 105 195.39V195.39Z" fill="#71391A"/>
<path d="M96.6899 90.16C90.3399 72.54 104.21 75.95 106.78 79.16C109.25 81.58 110.67 89.03 110.19 89.48C107.19 92.25 100.99 90.84 96.6999 90.19" fill="white"/>
<path d="M104.6 91.48C102.418 91.4138 100.244 91.1731 98.1 90.76L96.63 90.53L96.33 90.28C93.16 81.47 95.11 78.14 97.33 76.91C100.57 75.08 105.68 77.13 107.11 78.91C109.29 81.05 110.71 87.12 110.69 89C110.706 89.1311 110.695 89.264 110.659 89.391C110.623 89.518 110.562 89.6366 110.48 89.74C108.803 91.028 106.708 91.648 104.6 91.48V91.48ZM97 89.82L98.25 90.02C102.25 90.68 107.32 91.5 109.92 89.21C110.12 88.36 108.85 81.66 106.55 79.4C105.27 77.82 100.55 75.95 97.7 77.56C94.85 79.17 94.67 83.35 97 89.82Z" fill="#71391A"/>
<path d="M118.26 82.18C118.57 82.52 113.03 76.69 115.06 73.31C117.09 69.93 120.86 69.1 123.69 71.6L126.5 75.6L118.26 82.18Z" fill="white"/>
<path d="M118.33 82.7L118.05 82.5L117.99 82.44L117.72 82.15C116.58 80.83 112.91 76.15 114.72 73.15C115.182 72.3013 115.827 71.5664 116.609 70.999C117.391 70.4315 118.29 70.0458 119.24 69.87C120.082 69.7501 120.94 69.8219 121.751 70.0799C122.561 70.3379 123.303 70.7754 123.92 71.36L127 75.71L118.55 82.45L118.33 82.7ZM120.07 70.52C119.84 70.5051 119.61 70.5051 119.38 70.52C118.538 70.681 117.742 71.0275 117.05 71.5343C116.358 72.0411 115.788 72.6955 115.38 73.45C113.9 75.91 117.01 80.16 118.29 81.62L126 75.56L123.39 71.82C122.481 70.9934 121.299 70.5306 120.07 70.52V70.52Z" fill="#71391A"/>
<path d="M103.39 81.59C104.306 81.594 105.2 81.8697 105.96 82.3822C106.719 82.8947 107.309 83.6209 107.656 84.469C108.002 85.3171 108.089 86.249 107.906 87.1466C107.723 88.0442 107.277 88.8672 106.626 89.5115C105.975 90.1558 105.147 90.5924 104.247 90.7661C103.348 90.9397 102.417 90.8426 101.573 90.487C100.728 90.1313 100.008 89.5332 99.5042 88.7683C98.9999 88.0034 98.7339 87.1062 98.7398 86.19V86C98.7687 84.795 99.2746 83.6506 100.146 82.8181C101.018 81.9857 102.185 81.5332 103.39 81.56" fill="#222220"/>
<path d="M103.36 91.21C102.034 91.21 100.762 90.6832 99.8243 89.7455C98.8866 88.8078 98.3599 87.5361 98.3599 86.21V86C98.3877 84.6739 98.9412 83.4132 99.8986 82.4952C100.856 81.5772 102.139 81.0771 103.465 81.105C104.791 81.1328 106.052 81.6863 106.97 82.6437C107.888 83.6011 108.388 84.8839 108.36 86.21C108.36 87.5361 107.833 88.8078 106.895 89.7455C105.958 90.6832 104.686 91.21 103.36 91.21V91.21ZM103.29 82C102.213 82.0016 101.179 82.4183 100.402 83.1634C99.6256 83.9085 99.1662 84.9246 99.1199 86V86.15C99.1172 86.7081 99.2246 87.2613 99.4357 87.7779C99.6469 88.2946 99.9577 88.7645 100.351 89.1611C100.743 89.5576 101.21 89.8728 101.725 90.0888C102.24 90.3048 102.792 90.4174 103.35 90.42V90.42C104.477 90.42 105.558 89.9722 106.355 89.1752C107.152 88.3782 107.6 87.2972 107.6 86.17C107.6 85.0428 107.152 83.9618 106.355 83.1648C105.558 82.3677 104.477 81.92 103.35 81.92H103.26L103.29 82Z" fill="#73A9DD"/>
<path d="M120.24 74.22C120.804 74.2981 121.334 74.5386 121.764 74.9123C122.195 75.2859 122.507 75.7766 122.664 76.3245C122.82 76.8725 122.814 77.4542 122.646 77.9988C122.478 78.5433 122.156 79.0274 121.718 79.392C121.28 79.7565 120.745 79.986 120.179 80.0523C119.613 80.1186 119.04 80.019 118.53 79.7656C118.019 79.5122 117.593 79.1159 117.304 78.6249C117.015 78.1339 116.874 77.5694 116.9 77C116.976 76.1877 117.37 75.4382 117.995 74.914C118.62 74.3898 119.427 74.1333 120.24 74.2" fill="#222220"/>
<path d="M119.85 80.45C119.7 80.4599 119.55 80.4599 119.4 80.45C118.575 80.3428 117.821 79.9277 117.288 79.2879C116.756 78.6482 116.485 77.831 116.53 77C116.609 76.0858 117.047 75.2401 117.748 74.6479C118.449 74.0557 119.356 73.7652 120.27 73.84C121.144 73.9596 121.935 74.4197 122.47 75.12C122.999 75.824 123.232 76.7066 123.12 77.58C123.009 78.3744 122.616 79.1021 122.011 79.6294C121.407 80.1567 120.632 80.448 119.83 80.45H119.85ZM119.98 74.58C119.304 74.5843 118.654 74.8394 118.155 75.2956C117.656 75.7519 117.345 76.3771 117.28 77.05C117.263 77.5356 117.384 78.0161 117.63 78.4354C117.875 78.8547 118.235 79.1955 118.667 79.4178C119.099 79.6401 119.586 79.7349 120.07 79.691C120.554 79.6471 121.015 79.4664 121.4 79.17C121.672 78.9704 121.901 78.7177 122.073 78.4273C122.245 78.1368 122.356 77.8146 122.4 77.48C122.491 76.8055 122.311 76.1226 121.9 75.58C121.488 75.0402 120.882 74.6816 120.21 74.58H119.98Z" fill="#73A9DD"/>
<path d="M70 71.47C70 71.47 74.68 73.47 75.33 73.74C75.98 74.01 76.87 75.63 78.39 75.91C79.1 76.04 76.73 76.16 74.46 76.48C71.88 76.81 69.29 77.15 68.94 74.1L68.73 72.19L70 71.47Z" fill="#71391A"/>
<path d="M72.13 77.44C71.1881 77.5026 70.2531 77.2416 69.48 76.7C69.1117 76.3888 68.8108 76.0057 68.5959 75.574C68.3809 75.1424 68.2564 74.6714 68.23 74.19L68 71.78L70 70.62L70.35 70.77C70.35 70.77 75.01 72.77 75.66 73.04C76.0714 73.2509 76.4355 73.5436 76.73 73.9C77.2008 74.4996 77.8424 74.9424 78.57 75.17C78.7778 75.1804 78.9731 75.2723 79.1135 75.4258C79.254 75.5794 79.3282 75.7821 79.32 75.99C79.32 76.71 78.91 76.75 77.08 76.99C76.36 77.06 75.48 77.15 74.62 77.28C73.7938 77.3811 72.9624 77.4346 72.13 77.44ZM69.57 72.6L69.73 74C69.7378 74.2812 69.8019 74.5581 69.9188 74.814C70.0356 75.07 70.2026 75.2998 70.41 75.49C71.21 76.13 72.83 75.91 74.41 75.71C75.03 75.62 75.66 75.55 76.22 75.49C76.01 75.3 75.83 75.11 75.66 74.93C75.4861 74.7465 75.2989 74.576 75.1 74.42C74.56 74.2 71.2 72.76 70.1 72.29L69.57 72.6Z" fill="#71391A"/>
<path d="M129.83 59.1C129.83 59.1 131.34 56.1 131.64 55.73C131.94 55.36 133.31 54.12 133.31 54.12L134.02 55.02L134 56.56L132.76 58.26L129.83 59.1Z" fill="#71391A"/>
<path d="M128.38 60.31L129.15 58.76C129.729 57.5546 130.37 56.3798 131.07 55.24C131.4 54.86 132.66 53.69 132.8 53.56L133.41 53.01L134.78 54.77L134.7 56.77L133.18 58.87L128.38 60.31ZM133.23 55.23C132.79 55.64 132.35 56.06 132.23 56.23C132.11 56.4 131.74 57.07 131.3 57.9L132.3 57.62L133.3 56.31V55.31L133.23 55.23Z" fill="#71391A"/>
<path d="M125.28 147.54C128.41 149.68 131.58 152.19 135.18 153.97C139.51 155.18 145.46 156.45 147.18 152.27C147.61 151.21 134.57 150.12 132.65 148.93C128.65 146.47 124.87 147.28 125.26 147.55" fill="#BF1F25"/>
<path d="M141.54 155.9H140.79C129.88 155.3 118.27 142.14 115.37 135.55L116.06 135.25C119.06 141.95 130.66 154.59 140.83 155.15C145.47 155.39 149.2 153.15 151.94 148.4L152.59 148.78C149.85 153.5 146.13 155.9 141.54 155.9Z" fill="#71391A"/>
<path d="M101.44 91.45C101.44 91.45 95.0602 92.58 93.6802 94.35Z" fill="#F1CA12"/>
<path d="M93.6803 95.11C93.513 95.1117 93.3503 95.0551 93.2203 94.95C93.062 94.8274 92.9585 94.6472 92.9323 94.4488C92.9061 94.2503 92.9593 94.0495 93.0803 93.89C94.5903 91.95 100.63 90.82 101.31 90.7C101.498 90.6861 101.685 90.7427 101.833 90.8586C101.982 90.9745 102.082 91.1416 102.115 91.3273C102.147 91.513 102.109 91.7041 102.009 91.8636C101.908 92.023 101.752 92.1393 101.57 92.19C99.2103 92.61 95.1503 93.69 94.2803 94.82C94.2083 94.9102 94.1171 94.9831 94.0133 95.0333C93.9094 95.0835 93.7956 95.1097 93.6803 95.11V95.11Z" fill="#71391A"/>
<path d="M92.54 92C92.3609 91.9969 92.1887 91.9307 92.0536 91.8131C91.9186 91.6954 91.8295 91.5338 91.802 91.3568C91.7745 91.1798 91.8104 90.9988 91.9033 90.8457C91.9963 90.6926 92.1403 90.5773 92.31 90.52C95.3931 89.6705 98.6312 89.5473 101.77 90.16C104.1 90.47 106.1 90.73 107.99 90.03C109.54 89.46 111.3 87.76 113.73 85.41C119.1 79.9851 125.15 75.2792 131.73 71.41C131.815 71.3601 131.91 71.3275 132.008 71.3141C132.106 71.3006 132.205 71.3066 132.301 71.3317C132.397 71.3567 132.486 71.4004 132.565 71.4602C132.644 71.5199 132.71 71.5946 132.76 71.68C132.81 71.7654 132.842 71.8597 132.856 71.9577C132.869 72.0556 132.863 72.1553 132.838 72.2509C132.813 72.3466 132.77 72.4363 132.71 72.5151C132.65 72.5939 132.575 72.6601 132.49 72.71C126.012 76.5332 120.056 81.1784 114.77 86.53C112.2 89.01 110.35 90.81 108.51 91.53C106.27 92.36 103.99 92.07 101.57 91.75C98.86 91.39 96.05 91.02 92.75 92.05C92.6781 92.0423 92.6076 92.0255 92.54 92V92Z" fill="#71391A"/>
<path d="M102.67 86.33C102.682 86.6382 102.602 86.943 102.44 87.2057C102.279 87.4685 102.043 87.6775 101.763 87.8063C101.482 87.9351 101.17 87.9779 100.866 87.9294C100.561 87.8808 100.278 87.743 100.051 87.5335C99.8251 87.3239 99.666 87.052 99.5941 86.752C99.5223 86.452 99.541 86.1375 99.6479 85.8482C99.7548 85.5589 99.9451 85.3077 100.195 85.1265C100.444 84.9453 100.742 84.8421 101.05 84.83C101.09 84.8198 101.131 84.8198 101.17 84.83C101.568 84.83 101.95 84.988 102.231 85.2693C102.512 85.5507 102.67 85.9322 102.67 86.33" fill="white"/>
<path d="M120.24 77.77C120.248 77.9874 120.191 78.2022 120.076 78.3872C119.962 78.5723 119.796 78.7193 119.598 78.8097C119.4 78.9001 119.18 78.9299 118.965 78.8952C118.75 78.8605 118.551 78.7629 118.391 78.6148C118.232 78.4667 118.12 78.2747 118.07 78.0631C118.02 77.8515 118.034 77.6297 118.11 77.4259C118.185 77.222 118.32 77.0452 118.496 76.9178C118.672 76.7904 118.882 76.7181 119.1 76.71H119.19C119.325 76.7099 119.46 76.7373 119.584 76.7906C119.709 76.844 119.822 76.9222 119.915 77.0204C120.009 77.1186 120.081 77.2348 120.129 77.362C120.176 77.4891 120.197 77.6246 120.19 77.76" fill="white"/>
<path d="M132.09 195.94C131.39 196.16 130.42 195.63 129.09 194.4C128.135 193.52 127.246 192.571 126.43 191.56C125.81 191.91 124.73 192.43 123.31 193.17C122.273 193.687 121.271 194.272 120.31 194.92C120.31 195.98 120.31 197.61 120.31 199.81C120.299 200.142 120.201 200.466 120.025 200.749C119.85 201.031 119.603 201.263 119.31 201.42C118.875 201.651 118.371 201.719 117.89 201.61C117.651 201.568 117.424 201.472 117.227 201.33C117.029 201.188 116.866 201.003 116.75 200.79C116.53 200.4 116.33 198.79 116.27 195.79C116.033 195.653 115.837 195.457 115.7 195.22C115.52 194.84 115.77 194.33 116.45 193.71C116.613 191.028 116.927 188.357 117.39 185.71C118.1 181.66 118.87 179.51 119.45 179.27C119.966 179.036 120.544 178.977 121.096 179.102C121.648 179.226 122.145 179.528 122.51 179.96C123.14 180.73 124.1 181.9 125.35 183.47C127.05 185.58 128.94 188.02 130.97 190.8C131.13 191.01 131.58 191.47 132.31 192.21C132.763 192.616 133.131 193.109 133.39 193.66C133.479 193.887 133.513 194.132 133.491 194.375C133.468 194.618 133.389 194.853 133.26 195.06C133.008 195.496 132.601 195.821 132.12 195.97L132.09 195.94ZM121.47 185.42C121.27 186.8 121 188.68 120.72 191.07C121.291 190.687 121.893 190.353 122.52 190.07C123.52 189.57 124.15 189.27 124.4 189.07C123.68 188.12 122.69 186.89 121.47 185.4" fill="#61277F"/>
<path d="M139.45 182.39C139.45 183.883 139.49 186.117 139.57 189.09C139.67 190.09 139.79 191.09 139.91 192.09C139.984 192.602 139.871 193.123 139.592 193.558C139.313 193.994 138.886 194.314 138.39 194.46C138.117 194.545 137.83 194.574 137.546 194.543C137.262 194.512 136.988 194.422 136.74 194.28C136.331 194.047 136.024 193.669 135.88 193.22C135.363 191.511 135.107 189.735 135.12 187.95C135.06 184.73 135.02 182.95 134.99 182.61L134.42 178.49C134.161 177.161 134.223 175.79 134.6 174.49C134.767 174.124 135.018 173.803 135.332 173.553C135.647 173.303 136.016 173.13 136.41 173.05C136.865 172.922 137.345 172.916 137.803 173.032C138.261 173.147 138.681 173.381 139.02 173.71C140.169 174.987 141.135 176.417 141.89 177.96C143.09 180.17 144.41 182.38 145.94 184.83C146.47 181.851 146.847 178.847 147.07 175.83C147.07 174.83 147.15 173.74 147.18 172.7C147.242 172.112 147.506 171.563 147.927 171.147C148.349 170.731 148.901 170.475 149.49 170.42C150.73 170.26 151.84 170.88 152.77 172.27C153.374 173.292 153.877 174.37 154.27 175.49C155.67 179.17 156.98 182.33 158.27 184.96C159.006 186.372 159.638 187.836 160.16 189.34C160.185 189.596 160.147 189.855 160.047 190.092C159.947 190.33 159.79 190.538 159.59 190.7C159.202 191.038 158.713 191.239 158.2 191.27C157.2 191.35 156.29 190.73 155.57 189.4C155.14 188.4 154.69 187.32 154.23 186.29C153.48 184.76 152.53 182.55 151.31 179.67C151.09 180.91 150.7 182.85 150.17 185.5C150.03 186.35 149.91 187.21 149.78 188.04C149.652 188.899 149.437 189.744 149.14 190.56C149.005 190.964 148.763 191.325 148.438 191.601C148.114 191.878 147.721 192.061 147.3 192.13C146.847 192.198 146.385 192.136 145.967 191.95C145.548 191.764 145.192 191.462 144.94 191.08C144.48 190.32 144.01 189.57 143.53 188.84C142.2 186.84 140.84 184.65 139.44 182.4" fill="#61277F"/>
<path d="M179.53 191.23C178.73 191.1 177.98 190.17 177.21 188.44C176.649 187.217 176.19 185.949 175.84 184.65H172C170.734 184.638 169.469 184.702 168.21 184.84C167.78 185.84 167.03 187.27 166 189.23C165.822 189.538 165.565 189.793 165.256 189.969C164.947 190.145 164.596 190.235 164.24 190.23C163.7 190.237 163.171 190.073 162.73 189.76C162.515 189.623 162.335 189.437 162.203 189.219C162.071 189 161.992 188.754 161.97 188.5C161.97 188.05 162.5 186.5 163.76 183.84C163.609 183.606 163.52 183.338 163.5 183.06C163.5 182.64 163.97 182.29 164.94 182.06C166.334 179.716 167.863 177.455 169.52 175.29C172.05 171.99 173.77 170.41 174.46 170.45C175.058 170.47 175.635 170.673 176.114 171.03C176.593 171.388 176.951 171.883 177.14 172.45C177.42 173.45 177.84 174.93 178.36 176.91C179.09 179.57 179.89 182.64 180.67 186.09C180.73 186.35 180.98 186.98 181.38 187.97C181.649 188.541 181.802 189.16 181.83 189.79C181.814 190.038 181.735 190.277 181.601 190.485C181.466 190.694 181.28 190.864 181.06 190.98C180.603 191.26 180.057 191.36 179.53 191.26V191.23ZM173.65 176.87C172.83 178.01 171.71 179.59 170.35 181.59C171.103 181.502 171.862 181.468 172.62 181.49C173.83 181.49 174.62 181.49 174.89 181.49C174.61 180.3 174.21 178.76 173.65 176.85" fill="#61277F"/>
</svg>
