<svg width="230" height="49" viewBox="0 0 230 49" fill="none" xmlns="http://www.w3.org/2000/svg">
<g clip-path="url(#clip0)">
<path d="M25.4661 6.65135V3.21333C25.4661 1.49432 24.0339 0.12793 22.2885 0.12793C20.543 0.12793 19.1556 1.5384 19.1556 3.21333V6.60727C8.95124 8.10589 1.07422 16.745 1.07422 27.1913C1.07422 38.6513 10.5624 47.9957 22.1989 47.9957C33.8354 47.9957 43.3237 38.6513 43.3237 27.1913C43.2789 16.8332 35.5362 8.23812 25.4661 6.65135ZM22.1989 44.2051C12.666 44.2051 4.92322 36.5797 4.92322 27.1913C4.92322 18.8607 11.0548 11.8965 19.1556 10.4861V14.1885C19.1556 15.2023 19.6479 16.1279 20.4087 16.7009V19.8304H13.2925C12.4869 19.8304 11.7261 20.2271 11.2785 20.9323C10.8757 21.6376 10.831 22.475 11.2338 23.1803L20.2297 40.0618C20.6325 40.8111 21.4381 41.296 22.2885 41.296C23.1836 41.296 23.9444 40.8111 24.3472 40.0618L33.3431 23.1803C33.7012 22.475 33.7012 21.5935 33.2536 20.9323C32.8508 20.2712 32.09 19.8304 31.2844 19.8304H24.1682V16.7009C24.9738 16.1279 25.4661 15.2023 25.4661 14.1885V10.4861C33.4327 12.0288 39.4299 18.9489 39.4299 27.1913C39.4299 36.5797 31.6872 44.2051 22.1989 44.2051ZM150.469 36.9323H143.532V28.6899H149.44V21.4613H143.532V14.3648H149.798V6.78358H134.088V44.5136H150.469V36.9323ZM79.0388 14.3208H81.9927V44.4695H91.3914V6.78358H69.6401V44.4695H79.0388V14.3208ZM66.5072 36.9764H59.5253V28.6899H65.4778V21.4613H59.5253V14.2767H65.9254V6.78358H49.9923V44.4695H66.5072V36.9764ZM163.001 28.734H165.91V44.5136H175.353V6.82765H165.91V20.3593H163.001V6.82765H153.602V44.5136H163.001V28.734ZM184.036 44.5136H193.435V14.3648H199.074V6.82765H178.441V14.3648H184.036V44.5136ZM103.923 6.78358H94.5243V44.4695H103.923V6.78358ZM131 36.9323H128.986V6.78358H119.498V36.9323H116.544V6.78358H107.056V44.4254H124.421V48.1279H131V36.9323ZM222.168 12.1169C221.944 10.9709 221.452 10.0453 220.78 9.2519C220.064 8.45851 219.035 7.84143 217.647 7.44473C216.26 7.00396 214.291 6.82765 211.74 6.82765H202.207V44.5136H211.605V29.307H214.157C216.215 29.307 217.916 28.9985 219.169 28.4254C220.467 27.8524 221.317 26.9709 221.81 25.869C222.302 24.767 222.526 23.004 222.526 20.6238V17.318C222.526 14.9819 222.392 13.2188 222.168 12.1169ZM212.545 22.1224C209.815 22.1224 207.577 19.9186 207.577 17.2299C207.577 14.5412 209.815 12.3373 212.545 12.3373C215.275 12.3373 217.513 14.5412 217.513 17.2299C217.513 19.9626 215.275 22.1224 212.545 22.1224Z" fill="#CAD1E1"/>
<path d="M212.545 13.5273C210.442 13.5273 208.741 15.2023 208.741 17.2298C208.741 19.3015 210.442 20.9323 212.545 20.9323C214.649 20.9323 216.35 19.2574 216.35 17.2298C216.305 15.2023 214.604 13.5273 212.545 13.5273ZM213.217 19.6981L212.143 17.6706V19.6981H210.576V14.8497H212.143V16.9213L213.172 14.8497H215.007L213.664 17.2739L215.186 19.7422L213.217 19.6981Z" fill="#CAD1E1"/>
<path d="M228.523 10.9268L228.031 10.1334C227.942 10.0012 227.852 9.86895 227.718 9.7808C227.852 9.73672 227.986 9.64856 228.076 9.56041C228.255 9.3841 228.3 9.16372 228.3 8.94333C228.3 8.76702 228.255 8.59071 228.165 8.4144C228.076 8.2381 227.942 8.14994 227.763 8.06179C227.583 8.01771 227.404 7.97363 227.091 7.97363H225.614V11.1913H226.375V9.91303H226.823C226.867 9.91303 226.912 9.9571 226.957 9.9571C227.002 9.9571 227.046 10.0012 227.091 10.0893C227.181 10.1775 227.27 10.3097 227.36 10.486L227.763 11.059L227.807 11.1472H228.702L228.523 10.9268ZM227.539 9.11964C227.494 9.16372 227.449 9.20779 227.404 9.20779C227.315 9.25187 227.225 9.25187 227.046 9.25187H226.375V8.63479H227.136C227.315 8.63479 227.449 8.67887 227.494 8.72294C227.539 8.76702 227.584 8.85518 227.584 8.94333C227.584 8.98741 227.539 9.03148 227.539 9.11964Z" fill="#CAD1E1"/>
<path d="M229.374 9.60454C229.374 10.8828 228.299 11.9406 227.002 11.9406C225.704 11.9406 224.63 10.8828 224.63 9.60454C224.63 8.3263 225.704 7.26845 227.002 7.26845C228.299 7.22437 229.374 8.28222 229.374 9.60454ZM227.002 6.65137C225.346 6.65137 224.003 7.97368 224.003 9.60454C224.003 11.2354 225.346 12.5577 227.002 12.5577C228.658 12.5577 230 11.2354 230 9.60454C230 7.97368 228.613 6.65137 227.002 6.65137Z" fill="#CAD1E1"/>
</g>
<defs>
<clipPath id="clip0">
<rect width="230" height="48" fill="white" transform="translate(0 0.12793)"/>
</clipPath>
</defs>
</svg>
