<svg width="195" height="63" viewBox="0 0 195 63" fill="none" xmlns="http://www.w3.org/2000/svg">
<path d="M182.989 53.7128H12.0113C6.41027 53.7128 1.86719 49.5192 1.86719 44.3489V18.9383C1.86719 13.7681 6.41027 9.57446 12.0113 9.57446H182.968C188.569 9.57446 193.112 13.7681 193.112 18.9383V44.3298C193.133 49.5191 188.59 53.7128 182.989 53.7128Z" fill="#CAD1E1"/>
<path d="M25.4122 61.4297C27.1133 60.7787 28.275 59.534 29.5196 58.3659L31.3452 56.6042C31.6563 57.7531 33.0047 59.2467 34.4569 59.8021C36.6973 60.5297 38.9377 60.4531 41.3648 60.2616C43.7505 59.9936 45.4101 59.3999 47.3393 58.5574C48.5425 57.9446 49.393 57.217 50.0154 56.3744C50.4925 55.2638 50.3888 53.9999 49.6212 53.0425C48.8537 52.085 47.526 51.4914 46.634 51.3191C46.0117 51.2808 45.3686 51.2425 44.7462 51.2042C46.4058 48.6191 46.0946 43.8127 46.0324 43.0659C47.4845 41.3042 48.9159 39.2361 49.3101 37.0148C49.6835 34.3723 49.6627 31.9595 48.5633 29.6616L47.6297 27.8425L47.4638 27.4212C46.9244 25.3914 47.5675 22.9021 48.2313 21.6191C49.7042 17.0042 50.7207 14.4574 56.1765 14.9744C58.0643 15.3957 62.2547 16.3148 62.6281 14.1701C63.1675 14.1319 63.5202 13.6148 63.7484 13.1553C63.9558 12.3319 63.5824 11.3936 62.6074 10.7808C63.0638 9.97653 62.5659 8.77015 61.3212 8.31057C58.1058 7.00845 55.5335 6.39568 52.1313 6.24249C52.3803 4.38504 53.0234 3.00632 51.5712 1.79993C50.2021 0.97653 48.0446 1.39781 48.6047 3.08291C48.9367 4.07866 49.0819 4.99781 48.7085 5.91696C48.3973 6.37653 48.1069 6.8361 47.7957 7.29568C47.3601 6.39568 46.6755 5.99355 45.3478 5.84036C40.6595 5.34249 33.6063 7.65951 31.9883 9.07653C31.7393 9.07653 31.4904 8.90419 31.5734 8.63611C32.5691 7.54462 33.9175 6.16589 33.5026 5.151C33.067 3.59993 32.1957 3.61908 30.8058 3.52334C28.2542 4.53823 29.9968 7.75525 28.9388 7.58291C27.7563 7.39142 25.5159 7.33398 24.3542 7.90845L23.3377 8.48291C21.3877 9.82334 21.0143 10.8191 18.6909 9.88079L16.8239 8.80845C16.3675 8.55951 15.9111 8.40632 15.268 8.46377C13.6292 8.69355 12.592 11.6616 13.9196 12.4276C15.1851 13.3084 18.3175 13.7297 19.9148 13.6148C20.0601 13.7872 20.3297 13.9212 20.6824 13.9021C20.9313 15.8553 21.0765 17.9233 21.5744 19.8382C21.7611 20.6233 22.0723 21.4084 22.5702 22.1744L24.0223 23.6489L26.0553 25.1616C25.5159 25.7936 24.3127 26.6361 24.1053 27.3446L23.7526 28.3595L23.2962 29.4893C23.0473 29.451 22.1968 28.0914 21.6574 27.4021C21.5744 25.8319 21.5744 25.2191 22.093 23.6297C22.176 22.7489 21.4707 22.2127 20.6617 22.0978C19.2925 22.0212 18.4005 22.1553 17.7989 23.0936C17.1143 23.9744 17.1558 25.6021 17.5914 27.268C16.326 27.2297 15.2058 27.2872 13.9819 27.4978C11.7829 27.9191 9.06538 28.6659 7.23985 29.9297C6.32708 30.6574 6.26485 31.0595 6.45155 32.2659C5.74623 32.7638 5.47655 33.3191 5.43506 34.1233C5.43506 34.9084 5.72548 35.8467 6.49304 35.9425C6.57602 35.9616 6.67974 35.9425 6.80421 36.268C8.73346 38.1829 15.1851 36.3063 17.5292 36.7276C19.0851 36.9765 20.1638 37.7042 21.4914 38.1829C22.4664 38.7191 23.5244 38.9872 24.6031 39.0829C26.076 39.0255 27.0303 38.2978 27.8393 37.4553C28.7313 38.9106 28.8973 40.6531 28.3787 42.185C27.8393 43.7361 26.3872 45.0957 24.7691 45.8425C21.4914 44.0808 19.2925 43.3531 15.8281 44.8659C14.6042 45.8042 13.9404 47.068 13.6707 48.4276" fill="#F1CA12"/>
<path d="M25.4122 61.4297C27.1133 60.7787 28.275 59.534 29.5196 58.3659L31.3452 56.6042C31.6563 57.7531 33.0047 59.2467 34.4569 59.8021C36.6973 60.5297 38.9377 60.4531 41.3648 60.2616C43.7505 59.9936 45.4101 59.3999 47.3393 58.5574C48.5425 57.9446 49.393 57.217 50.0154 56.3744C50.4925 55.2638 50.3888 53.9999 49.6212 53.0425C48.8537 52.085 47.526 51.4914 46.634 51.3191C46.0117 51.2808 45.3686 51.2425 44.7462 51.2042C46.4058 48.6191 46.0946 43.8127 46.0324 43.0659C47.4845 41.3042 48.9159 39.2361 49.3101 37.0148C49.6835 34.3723 49.6627 31.9595 48.5633 29.6616L47.6297 27.8425L47.4638 27.4212C46.9244 25.3914 47.5675 22.9021 48.2313 21.6191C49.7042 17.0042 50.7207 14.4574 56.1765 14.9744C58.0643 15.3957 62.2547 16.3148 62.6281 14.1701C63.1675 14.1319 63.5202 13.6148 63.7484 13.1553C63.9558 12.3318 63.5824 11.3936 62.6074 10.7808C63.0638 9.97653 62.5659 8.77015 61.3212 8.31057C58.1058 7.00845 55.5335 6.39568 52.1313 6.24249C52.3803 4.38504 53.0234 3.00632 51.5712 1.79993C50.2021 0.97653 48.0446 1.39781 48.6047 3.08291C48.9367 4.07866 49.0819 4.99781 48.7085 5.91696C48.3973 6.37653 48.1069 6.8361 47.7957 7.29568C47.3601 6.39568 46.6755 5.99355 45.3478 5.84036C40.6595 5.34249 33.6063 7.65951 31.9883 9.07653C31.7393 9.07653 31.4904 8.90419 31.5734 8.63611C32.5691 7.54462 33.9175 6.16589 33.5026 5.151C33.067 3.59993 32.1957 3.61908 30.8058 3.52334C28.2542 4.53823 29.9968 7.75525 28.9388 7.58291C27.7563 7.39142 25.5159 7.33398 24.3542 7.90845L23.3377 8.48291C21.3877 9.82334 21.0143 10.8191 18.6909 9.88079L16.8239 8.80845C16.3675 8.55951 15.9111 8.40632 15.268 8.46377C13.6292 8.69355 12.592 11.6616 13.9196 12.4276C15.1851 13.3084 18.3175 13.7297 19.9148 13.6148C20.0601 13.7872 20.3297 13.9212 20.6824 13.9021C20.9313 15.8553 21.0765 17.9233 21.5744 19.8382C21.7611 20.6233 22.0723 21.4084 22.5702 22.1744L24.0223 23.6489L26.0553 25.1616C25.5159 25.7936 24.3127 26.6361 24.1053 27.3446L23.7526 28.3595L23.2962 29.4893C23.0473 29.451 22.1968 28.0914 21.6574 27.4021C21.5744 25.8319 21.5744 25.2191 22.093 23.6297C22.176 22.7489 21.4707 22.2127 20.6617 22.0978C19.2925 22.0212 18.4005 22.1553 17.7989 23.0936C17.1143 23.9744 17.1558 25.6021 17.5914 27.268C16.326 27.2297 15.2058 27.2872 13.9819 27.4978C11.7829 27.9191 9.06538 28.6659 7.23985 29.9297C6.32708 30.6574 6.26485 31.0595 6.45155 32.2659C5.74623 32.7638 5.47655 33.3191 5.43506 34.1233C5.43506 34.9084 5.72548 35.8467 6.49304 35.9425C6.57602 35.9616 6.67974 35.9425 6.80421 36.268C8.73346 38.1829 15.1851 36.3063 17.5292 36.7276C19.0851 36.9765 20.1638 37.7042 21.4914 38.1829C22.4664 38.7191 23.5244 38.9872 24.6031 39.0829C26.076 39.0255 27.0303 38.2978 27.8393 37.4553C28.7313 38.9106 28.8973 40.6531 28.3787 42.185C27.8393 43.7361 26.3872 45.0957 24.7691 45.8425C21.4914 44.0808 19.2925 43.3531 15.8281 44.8659C14.6042 45.8042 13.9404 47.068 13.6707 48.4276" stroke="white" stroke-width="0.25" stroke-miterlimit="22.926" stroke-linecap="round" stroke-linejoin="round"/>
<path d="M34.2289 27.5746L32.5278 26.7703C32.1129 26.5022 31.6565 26.1767 31.5943 26.1001C31.5943 26.0618 31.5528 26.0618 31.5321 26.0618C31.5321 26.0618 31.3661 26.0427 30.5571 25.1427C30.4948 25.0661 30.4326 25.0086 30.3911 24.9512C30.4326 24.9895 30.4533 25.0086 30.4948 25.0469C30.5156 25.0661 30.5156 25.0661 30.5363 25.0661H30.5986L32.9635 26.1576H32.9842L35.2869 26.4831H36.9879L38.2119 26.2724C38.2741 26.3107 38.3363 26.3682 38.3156 26.4065C38.3156 26.4256 38.2948 26.4448 38.2326 26.4448C38.2119 26.4448 38.1911 26.4639 38.1911 26.4831C38.1289 26.7512 37.797 27.0767 37.2991 27.3639C37.2991 27.3639 37.2991 27.3639 37.2784 27.3831C36.9257 27.7469 35.847 27.8044 35.7432 27.8044L34.2289 27.5746Z" fill="#222220"/>
<path d="M30.6399 25.1618L32.9219 26.215C32.9426 26.215 32.9426 26.215 32.9633 26.2341L35.266 26.5597H35.2867H36.9671H36.9878L38.1703 26.349C38.191 26.3682 38.2117 26.3873 38.2117 26.3873H38.191C38.1495 26.4065 38.108 26.4256 38.108 26.4831C38.0458 26.732 37.7139 27.0384 37.2367 27.3448L37.216 27.3639C36.9463 27.6512 36.1373 27.7469 35.7431 27.7661L34.2495 27.5171L32.5692 26.732C32.175 26.4639 31.7394 26.1575 31.6357 26.0809C31.6149 26.0426 31.5734 26.0044 31.532 26.0044C31.5112 25.9852 31.3038 25.8895 30.6399 25.1618ZM30.0383 24.6448C29.9969 24.6448 30.1006 24.7788 30.474 25.2001C31.5112 26.3299 31.5112 26.1001 31.5112 26.1384C31.5112 26.1958 32.4862 26.8278 32.4862 26.8278L34.1873 27.632L35.7224 27.8809C35.7846 27.8809 36.9048 27.8235 37.299 27.4405C37.8176 27.1341 38.1703 26.7895 38.2325 26.5214C38.5437 26.4256 38.191 26.215 38.191 26.215L36.9463 26.4256H35.266L32.9633 26.1001L30.5777 25.0086H30.4947C30.5155 25.0086 30.1006 24.6448 30.0383 24.6448Z" fill="white"/>
<path d="M26.1177 25.2574C26.1177 25.2574 26.823 25.5637 26.8437 25.5829L30.8682 27.8999L33.9592 29.2786C34.9964 29.7382 37.2783 29.6616 38.5437 28.4361C40.1618 26.8659 40.0374 25.8701 40.0996 25.8318L43.8751 23.3425C49.9948 19.3212 47.1113 9.65097 47.8166 7.29565" stroke="white" stroke-width="0.25" stroke-miterlimit="22.926" stroke-linecap="round" stroke-linejoin="round"/>
<path d="M38.5229 26.119C39.0208 26.0424 39.5602 25.9467 40.0996 25.8318" stroke="white" stroke-width="0.25" stroke-miterlimit="22.926" stroke-linecap="round" stroke-linejoin="round"/>
<path d="M28.5864 23.0552L28.6072 23.0743C31.6981 26.5211 34.4364 26.7892 38.5024 26.119" stroke="white" stroke-width="0.25" stroke-miterlimit="22.926" stroke-linecap="round" stroke-linejoin="round"/>
<path d="M26.7607 21.1597L28.5863 23.0554" stroke="white" stroke-width="0.25" stroke-miterlimit="22.926" stroke-linecap="round" stroke-linejoin="round"/>
<path d="M29.209 23.6873C29.2298 23.7256 29.2507 23.7638 29.2715 23.8021" stroke="white" stroke-width="0.25" stroke-miterlimit="22.926" stroke-linecap="round" stroke-linejoin="round"/>
<path d="M27.1551 19.0149C27.1966 19.934 27.487 21.5043 25.3503 21.9447L25.2051 21.9638" stroke="white" stroke-width="0.25" stroke-miterlimit="22.926" stroke-linecap="round" stroke-linejoin="round"/>
<path d="M29.8931 16.8128C29.976 16.1043 30.0798 14.9745 30.308 13.8256C30.5984 12.4469 31.1377 11.049 32.2372 10.8C33.4197 10.8383 33.7723 11.0681 33.8346 11.8915C33.8553 12.2554 33.8138 12.7532 33.7516 13.4235C32.8181 8.57877 30.2665 14.0937 30.2665 14.0937" fill="#71391A"/>
<path d="M29.8931 16.8128C29.976 16.1043 30.0798 14.9745 30.308 13.8256C30.5984 12.4469 31.1377 11.049 32.2372 10.8C33.4197 10.8383 33.7723 11.0681 33.8346 11.8915C33.8553 12.2554 33.8138 12.7532 33.7516 13.4235C32.8181 8.57877 30.2665 14.0937 30.2665 14.0937" stroke="white" stroke-width="0.25" stroke-miterlimit="22.926" stroke-linecap="round" stroke-linejoin="round"/>
<path d="M45.7837 6.58728C46.406 6.37664 47.9204 9.19153 46.0326 7.23834L45.7837 6.58728Z" fill="#71391A"/>
<path d="M45.8252 6.56814C46.2401 6.54899 46.9039 7.54474 46.9247 7.85112C46.9247 7.54474 46.2401 6.54899 45.8252 6.56814ZM46.9454 7.85112C46.9454 7.90857 46.9247 7.92772 46.8832 7.92772C46.9247 7.92772 46.9454 7.88942 46.9454 7.85112Z" fill="white"/>
<path d="M53.7084 9.34456C54.1026 7.56371 52.7542 7.69775 52.1318 7.02754L52.1526 6.24243" stroke="white" stroke-width="0.25" stroke-miterlimit="22.926" stroke-linecap="round" stroke-linejoin="round"/>
<path d="M62.6074 10.8001C60.7611 9.51715 59.3712 9.09587 57.6079 8.71289" stroke="white" stroke-width="0.25" stroke-miterlimit="22.926" stroke-linecap="round" stroke-linejoin="round"/>
<path d="M58.1685 12.4084C59.8073 12.6574 61.2802 13.2893 62.6078 14.1701" stroke="white" stroke-width="0.25" stroke-miterlimit="22.926" stroke-linecap="round" stroke-linejoin="round"/>
<path d="M11.887 30.083C9.937 30.1213 8.00775 31.2319 6.43115 32.3043" stroke="white" stroke-width="0.25" stroke-miterlimit="22.926" stroke-linecap="round" stroke-linejoin="round"/>
<path d="M11.4509 33.9895C9.85358 34.1427 7.90358 34.9661 6.55518 35.981" stroke="white" stroke-width="0.25" stroke-miterlimit="22.926" stroke-linecap="round" stroke-linejoin="round"/>
<path d="M16.2017 30.8107C15.0815 29.4319 19.1682 28.1872 17.5708 27.3064" stroke="white" stroke-width="0.25" stroke-miterlimit="22.926" stroke-linecap="round" stroke-linejoin="round"/>
<path d="M19.3137 34.4299C19.4174 35.7704 17.9445 36.1342 17.0732 36.7278" stroke="white" stroke-width="0.25" stroke-miterlimit="22.926" stroke-linecap="round" stroke-linejoin="round"/>
<path d="M24.8525 45.8042C26.3462 46.8382 26.035 47.7957 26.2632 48.6765" stroke="white" stroke-width="0.25" stroke-miterlimit="22.926" stroke-linecap="round" stroke-linejoin="round"/>
<path d="M23.3379 31.5193L23.2754 29.4895" stroke="white" stroke-width="0.25" stroke-miterlimit="22.926" stroke-linecap="round" stroke-linejoin="round"/>
<path d="M28.296 35.1191C28.3375 36 28.13 36.7085 27.8604 37.4936" stroke="white" stroke-width="0.25" stroke-miterlimit="22.926" stroke-linecap="round" stroke-linejoin="round"/>
<path d="M40.9502 54.3445C42.5683 54.019 43.73 52.4296 44.7465 51.2041" stroke="white" stroke-width="0.25" stroke-miterlimit="22.926" stroke-linecap="round" stroke-linejoin="round"/>
<path d="M36.5729 46.3213C35.5979 50.017 33.5027 53.6553 31.3452 56.6043" stroke="white" stroke-width="0.25" stroke-miterlimit="22.926" stroke-linecap="round" stroke-linejoin="round"/>
<path d="M36.5732 46.3212C43.4397 45.9191 43.502 44.3872 46.0328 43.0659" stroke="white" stroke-width="0.25" stroke-miterlimit="22.926" stroke-linecap="round" stroke-linejoin="round"/>
<path d="M24.2093 61.5829C23.2758 61.6212 21.471 61.5063 19.8322 60.3382C17.4258 58.5957 16.0566 57.0446 14.7497 54.6318C14.7497 54.6318 14.7497 54.6318 14.7497 54.6127C13.837 53.0233 13.505 50.4957 13.671 48.7531L14.0859 48.6574C14.2104 48.6191 14.3141 48.5616 14.4178 48.4659C14.8949 47.9872 15.455 47.7191 16.1604 47.6999C18.546 47.6042 22.0311 50.1127 24.2715 53.5595C26.0763 56.3169 26.5327 58.9212 25.5162 60.5297C25.4332 60.6829 25.3917 60.8553 25.454 61.0084C25.4955 61.1425 25.4955 61.334 25.454 61.3914C25.454 61.3914 25.4332 61.3914 25.4125 61.3914C25.0391 61.5063 24.6449 61.5638 24.2093 61.5829Z" fill="#71391A"/>
<path d="M16.1808 48.3319C17.1766 48.2936 18.525 48.849 19.8941 49.8447C21.3255 50.8979 22.6947 52.3341 23.7112 53.9043C25.3915 56.4702 25.8479 58.8447 24.9558 60.2617C24.8314 60.4724 24.7691 60.7022 24.7691 60.9511C24.5824 60.9702 24.3957 60.9894 24.1883 61.0085C22.7569 61.066 21.3048 60.6639 20.2468 59.8788C17.9234 58.1745 16.5957 56.7 15.3511 54.3639C15.3511 54.3639 15.3511 54.3447 15.3303 54.3447C14.5628 53.0043 14.2308 50.8405 14.2931 49.2319C14.5213 49.1745 14.7287 49.0405 14.8947 48.8873C15.2473 48.5234 15.6622 48.3511 16.1808 48.3319ZM16.1186 47.1256C15.2888 47.1639 14.5213 47.4511 13.9197 48.1022L13.0691 48.3128C12.7787 50.2277 13.1521 53.1575 14.1686 54.9383C15.4755 57.3702 16.9069 59.0171 19.4378 60.8362C20.9521 61.9277 22.7569 62.2724 24.2505 62.2149C24.7277 62.1958 25.184 62.1383 25.5782 62.0426C26.3665 61.8511 26.0761 60.8937 26.0761 60.8937C28.9803 56.2788 21.1181 46.9149 16.1186 47.1256Z" fill="white"/>
<path d="M25.3916 13.3468C24.9767 13.3659 24.4996 13.3276 24.0847 13.3085C23.5453 12.1021 23.7528 11.6617 23.815 11.5468C23.898 11.4128 24.0847 11.3362 24.3544 11.317C24.8315 11.2979 25.3086 11.4893 25.4124 11.6042C25.4331 11.6234 25.4538 11.6425 25.4746 11.6617C25.7858 11.9106 26.1384 12.7532 26.2629 13.1936C26.0762 13.2894 25.765 13.3468 25.3916 13.3468Z" fill="white"/>
<path d="M24.396 11.9298C24.6242 11.9106 24.8939 12.0064 24.9976 12.0638C25.0184 12.083 25.0391 12.1021 25.0599 12.1213C25.1636 12.217 25.3088 12.4851 25.4333 12.7532C25.4125 12.7532 25.3918 12.7532 25.371 12.7532C25.1221 12.7723 24.8317 12.7532 24.562 12.734C24.396 12.2936 24.3753 12.0447 24.396 11.9298C24.3753 11.9298 24.396 11.9298 24.396 11.9298ZM24.3338 10.7234C23.3173 10.7617 22.446 11.4894 23.6285 13.883C24.1678 13.9213 24.8109 13.9787 25.4125 13.9596C26.0349 13.9404 26.595 13.8064 26.9476 13.4617C27.0513 13.3468 26.5535 11.6808 25.8896 11.183C25.6407 10.934 24.9561 10.6851 24.3338 10.7234Z" fill="white"/>
<path d="M28.8147 10.8C28.5243 10.4745 28.3168 10.1107 28.3998 9.95748C28.5657 9.67025 28.7939 9.47876 29.0636 9.47876C29.1881 9.47876 29.3333 9.51706 29.4578 9.59365L29.7897 9.95748L28.8147 10.8Z" fill="white"/>
<path d="M29.043 8.88522C28.5451 8.90437 28.0887 9.1916 27.819 9.70862C27.4041 10.4937 28.794 11.6618 28.794 11.6618L30.6818 10.015L29.9142 9.1533C29.6238 8.96181 29.3334 8.86607 29.043 8.88522Z" fill="white"/>
<path d="M25.1841 13.3084C24.9352 13.3276 24.7277 13.1169 24.707 12.868C24.6863 12.6191 24.8937 12.4084 25.1426 12.4084C25.3916 12.3893 25.599 12.5999 25.6198 12.8489C25.6198 13.0978 25.4331 13.3084 25.1841 13.3084Z" fill="#222220"/>
<path d="M25.1216 11.8147C24.52 11.8339 24.0429 12.3318 24.0636 12.9062C24.0844 13.4807 24.603 13.9403 25.2253 13.9211C25.8269 13.902 26.3041 13.4041 26.2833 12.8296C26.2418 12.236 25.7232 11.7764 25.1216 11.8147Z" fill="white"/>
<path d="M29.1467 10.532C29.043 10.532 29.0015 10.4937 29.0015 10.4745C29.0015 10.4554 29.043 10.4171 29.1467 10.3979C29.2504 10.3979 29.2919 10.4362 29.2919 10.4554C29.2919 10.4745 29.2504 10.532 29.1467 10.532Z" fill="#222220"/>
<path d="M29.1048 9.80437C28.6692 9.82352 28.3166 10.1299 28.3373 10.5129C28.358 10.8767 28.7314 11.1639 29.1671 11.1448C29.6027 11.1257 29.9554 10.8193 29.9346 10.4363C29.9139 10.0725 29.5612 9.78522 29.1048 9.80437Z" fill="white"/>
<path d="M16.6791 10.1489C16.6791 10.1489 17.8823 10.5128 18.0482 10.5702C18.2142 10.6085 18.4631 10.9723 18.8573 11.0106C19.044 11.0298 18.4631 11.1064 17.903 11.2021C17.2807 11.3362 16.6376 11.451 16.4924 10.7617L16.3887 10.3213L16.6791 10.1489Z" fill="#71391A"/>
<path d="M16.6791 10.1489L16.3887 10.3213L16.4717 10.7425C16.5754 11.183 16.8658 11.2979 17.2392 11.2787C17.4467 11.2787 17.6748 11.2213 17.8823 11.183C18.4424 11.0681 19.0233 11.0106 18.8365 10.9915C18.4631 10.9532 18.1935 10.6085 18.0275 10.5511C17.8823 10.5128 16.6791 10.1489 16.6791 10.1489Z" fill="white"/>
<path d="M31.1587 6.18514C31.1587 6.18514 31.4699 5.47663 31.5321 5.38089C31.5943 5.28514 31.9055 4.97876 31.9055 4.97876L32.0922 5.17025L32.113 5.51493L31.8433 5.93621L31.1587 6.18514Z" fill="#71391A"/>
<path d="M31.9265 4.97876C31.9265 4.97876 31.6153 5.28514 31.5531 5.38089C31.4909 5.47663 31.1797 6.18514 31.1797 6.18514L31.8643 5.93621L32.1339 5.51493L32.1132 5.17025L31.9265 4.97876Z" fill="white"/>
<path d="M44.4146 38.4512L44.9539 39.2554L45.3066 39.7724C45.597 39.7916 45.9289 39.7341 46.1778 39.6001L46.1571 39.0065C45.6592 39.3895 45.1406 38.9682 44.8917 39.1405" fill="#71391A"/>
<path d="M44.4146 38.4512L44.9539 39.2554L45.3066 39.7724C45.597 39.7916 45.9289 39.7341 46.1778 39.6001L46.1571 39.0065C45.6592 39.3895 45.1406 38.9682 44.8917 39.1405" stroke="white" stroke-width="0.25" stroke-miterlimit="22.926" stroke-linecap="round" stroke-linejoin="round"/>
<path d="M35.992 27.7467C35.4734 27.7658 34.9133 27.6892 34.4569 27.5935C33.7723 27.3445 33.1292 26.9807 32.4862 26.636C32.3202 26.5403 32.1542 26.4445 31.9883 26.3679C32.0505 26.3488 32.175 26.3296 32.3409 26.3296C32.5899 26.3105 33.1085 26.3488 33.6893 26.6169C33.9383 26.7318 34.7473 26.7892 35.5979 26.8467C36.2617 26.885 37.1745 26.9615 37.2989 27.0381C37.1537 27.4977 36.7181 27.7275 35.992 27.7467Z" fill="#BF1F25"/>
<path d="M32.3412 26.4063C32.5902 26.3871 33.0881 26.4254 33.6482 26.6743C33.8971 26.7892 34.5609 26.8467 35.5774 26.9041C36.179 26.9424 36.9881 26.9999 37.2163 27.0765C37.0503 27.4594 36.6354 27.6701 35.9923 27.6892C35.4944 27.7084 34.9343 27.6318 34.478 27.5552C33.7934 27.3063 33.1503 26.9424 32.528 26.6169C32.4035 26.5595 32.2998 26.4829 32.1753 26.4254C32.2168 26.4063 32.279 26.4063 32.3412 26.4063ZM32.3412 26.2722C32.0093 26.2914 31.8226 26.368 31.8641 26.3871C32.6732 26.8084 33.5237 27.3254 34.4365 27.6701C34.9136 27.7467 35.4737 27.8424 35.9923 27.8233C36.6354 27.8041 37.1748 27.6126 37.3615 27.0573C37.4445 26.8084 34.2083 26.8084 33.7104 26.5786C33.1918 26.3105 32.6939 26.2722 32.3412 26.2722Z" fill="white"/>
<path d="M29.271 23.8022C30.5572 25.9852 36.3657 30.3703 38.5439 26.1001" stroke="white" stroke-width="0.25" stroke-miterlimit="22.926" stroke-linecap="round" stroke-linejoin="round"/>
<path d="M24.8316 14.0745C24.8316 14.0745 23.2758 14.4574 22.9854 14.8787L24.8316 14.0745Z" fill="#F1CA12"/>
<path d="M24.8316 14.0745C24.8316 14.0745 23.2758 14.4574 22.9854 14.8787" stroke="white" stroke-width="0.25" stroke-miterlimit="22.926" stroke-linecap="round" stroke-linejoin="round"/>
<path d="M22.6323 14.2086C24.1882 13.6341 25.4329 14.2469 26.4908 13.7873C27.5073 13.3469 28.5238 11.3362 31.9882 9.07666" stroke="white" stroke-width="0.25" stroke-miterlimit="22.926" stroke-linecap="round" stroke-linejoin="round"/>
<path d="M24.6659 13.1746C24.4792 13.1746 24.334 13.0597 24.334 12.9257C24.334 12.7725 24.4585 12.6576 24.6452 12.6384C24.8319 12.6384 24.9771 12.7533 24.9771 12.8874C24.9771 13.0406 24.8319 13.1746 24.6659 13.1746Z" fill="white"/>
<path d="M24.6451 12.6957C24.7903 12.6957 24.8941 12.7723 24.9148 12.8872C24.9148 13.0021 24.8111 13.0978 24.6659 13.0978C24.5207 13.0978 24.4169 13.0212 24.3962 12.9063C24.3962 12.8106 24.4999 12.7149 24.6451 12.6957ZM24.6244 12.5808C24.4169 12.5808 24.251 12.7532 24.251 12.9255C24.251 13.117 24.4377 13.251 24.6451 13.2319C24.8526 13.2319 25.0185 13.0595 25.0185 12.8872C25.0185 12.7149 24.8526 12.5808 24.6244 12.5808Z" fill="white"/>
<path d="M28.9184 10.7999C28.8147 10.7999 28.7109 10.7233 28.7109 10.6467C28.7109 10.551 28.7939 10.4744 28.8976 10.4744C29.0014 10.4744 29.1051 10.551 29.1051 10.6276C29.1258 10.7042 29.0429 10.7999 28.9184 10.7999Z" fill="white"/>
<path d="M28.9182 10.5128C29.0012 10.5128 29.0634 10.5511 29.0634 10.6086C29.0634 10.666 29.0012 10.7235 28.9389 10.7235C28.856 10.7235 28.7937 10.6852 28.7937 10.6277C28.773 10.5703 28.8352 10.5128 28.9182 10.5128ZM28.9182 10.3979C28.773 10.3979 28.6485 10.5128 28.6693 10.6469C28.6693 10.7809 28.7937 10.8767 28.9597 10.8575C29.1049 10.8575 29.2294 10.7426 29.2086 10.6086C29.1879 10.4937 29.0634 10.3979 28.9182 10.3979Z" fill="white"/>
<path d="M31.3869 38.7574C31.3246 38.7765 31.2416 38.7765 31.1794 38.7765C31.0757 38.7574 30.9927 38.7191 30.9305 38.6425C30.9097 38.6042 30.8267 38.3935 30.723 37.551C30.723 37.5318 30.7023 37.5127 30.7023 37.5127C30.64 37.4744 30.5985 37.4552 30.5778 37.4169C30.5363 37.3403 30.64 37.2254 30.723 37.1297C30.7438 37.1106 30.7438 37.1106 30.7438 37.0914C30.723 36.5169 30.7438 35.9042 30.806 35.2531C30.9305 33.9893 31.0964 33.8169 31.1379 33.7978C31.1794 33.7786 31.2209 33.7595 31.2624 33.7595C31.4491 33.702 31.6358 33.7595 31.8017 33.8935C31.9677 34.0467 32.2374 34.2957 32.5693 34.6403C33.0257 35.0808 33.565 35.6169 34.1044 36.1914C34.1459 36.2489 34.2704 36.3446 34.4778 36.4978C34.623 36.6127 34.7267 36.7084 34.7682 36.785C34.8097 36.8808 34.8097 36.9574 34.7682 37.0531C34.7267 37.1489 34.6438 37.2063 34.54 37.2446C34.5193 37.2446 34.5193 37.2446 34.4986 37.2446C34.3948 37.2637 34.2081 37.2254 33.8347 36.9574C33.6065 36.8042 33.3783 36.5935 33.1294 36.3637C33.1087 36.3446 33.0879 36.3446 33.0672 36.3446C33.0672 36.3446 33.0464 36.3446 33.0464 36.3637C32.9012 36.4595 32.6523 36.5935 32.3204 36.785C32.0092 36.9765 31.7603 37.1297 31.615 37.2446C31.5943 37.2637 31.5943 37.2829 31.5943 37.302C31.6358 37.5318 31.6565 37.8957 31.698 38.4127C31.698 38.5659 31.6358 38.6616 31.5113 38.7382C31.4491 38.7191 31.4076 38.7382 31.3869 38.7574ZM31.6773 35.0233C31.6565 35.0425 31.6358 35.0616 31.615 35.0808C31.5943 35.4063 31.5736 35.8276 31.5528 36.3829C31.5528 36.402 31.5736 36.4212 31.5943 36.4403C31.615 36.4403 31.6358 36.4403 31.6358 36.4403C31.6565 36.4403 31.6565 36.4403 31.6565 36.4212C31.7395 36.3637 31.8847 36.268 32.0714 36.1531C32.2996 36.0191 32.4656 35.9425 32.5278 35.9042C32.5486 35.885 32.5486 35.885 32.5486 35.8659C32.5486 35.8467 32.5486 35.8276 32.5278 35.8276C32.3204 35.6169 32.0714 35.3489 31.7395 35.0425C31.7603 35.0233 31.7188 35.0042 31.6773 35.0233C31.698 35.0233 31.698 35.0233 31.6773 35.0233Z" fill="#59287F"/>
<path d="M31.2623 33.7788C31.3245 33.7596 31.4905 33.7213 31.7394 33.8937C31.9054 34.066 32.1751 34.2958 32.507 34.6405C32.9634 35.0809 33.5027 35.6171 34.0628 36.1915C34.0836 36.2298 34.1666 36.2873 34.4363 36.4979C34.623 36.632 34.6852 36.7277 34.7059 36.766C34.7474 36.8426 34.7474 36.9192 34.7059 36.9958C34.6644 37.0724 34.6022 37.1298 34.5192 37.1681H34.4985C34.4363 37.1873 34.2703 37.1681 33.8969 36.8809C33.6687 36.7277 33.4405 36.5171 33.2123 36.2873C33.1708 36.249 33.1293 36.249 33.0671 36.249C33.0464 36.249 33.0256 36.2681 33.0256 36.2681C32.8804 36.3639 32.6315 36.4979 32.2995 36.6894C31.9676 36.8809 31.7394 37.0341 31.5735 37.149C31.532 37.1681 31.5112 37.2256 31.532 37.2639C31.5735 37.4937 31.5942 37.8575 31.6357 38.3554C31.6357 38.4894 31.5942 38.566 31.4698 38.6235C31.449 38.6426 31.4283 38.6426 31.3868 38.6618C31.3245 38.6809 31.2831 38.6809 31.2001 38.6809C31.1171 38.6809 31.0549 38.6426 30.9926 38.566C30.9719 38.5469 30.9096 38.3937 30.8059 37.4937C30.8059 37.4554 30.7852 37.4171 30.7437 37.3979C30.7022 37.3788 30.6607 37.3405 30.64 37.3213C30.6192 37.3022 30.64 37.2256 30.7644 37.0915C30.7852 37.0724 30.8059 37.0341 30.8059 36.9958C30.7852 36.4213 30.8059 35.8086 30.8889 35.1575C31.0134 34.0277 31.1586 33.7979 31.2001 33.7596C31.2001 33.7979 31.2416 33.7788 31.2623 33.7788ZM31.6772 36.4979C31.6979 36.4979 31.7187 36.4788 31.7394 36.4596C31.8224 36.4022 31.9469 36.3064 32.1336 36.2107C32.3618 36.0766 32.5277 36 32.59 35.9618C32.6315 35.9426 32.6522 35.9043 32.6522 35.8852C32.6522 35.8469 32.6522 35.8277 32.6315 35.7894C32.424 35.5788 32.1751 35.3107 31.8432 35.0043C31.8017 34.966 31.7394 34.966 31.6772 34.966C31.6772 34.966 31.6772 34.966 31.6565 34.966C31.5942 34.9852 31.5527 35.0426 31.5527 35.0809C31.532 35.3873 31.5112 35.8277 31.4905 36.383C31.4905 36.4405 31.532 36.4788 31.5735 36.4979C31.615 36.4979 31.6565 36.4979 31.6772 36.4979ZM31.2208 33.6639C31.1793 33.683 31.1378 33.7022 31.0756 33.7213C30.9304 33.7788 30.7852 34.2958 30.7022 35.2341C30.64 35.8852 30.6192 36.4979 30.64 37.0724C30.474 37.2256 30.4325 37.3405 30.4948 37.4362C30.5155 37.4745 30.5777 37.532 30.64 37.5511C30.7229 38.2213 30.8059 38.5852 30.8682 38.6809C30.9304 38.7766 31.0341 38.8341 31.1793 38.8532C31.2623 38.8532 31.3453 38.8532 31.4283 38.8341C31.4698 38.8149 31.4905 38.8149 31.532 38.7766C31.6772 38.7001 31.7602 38.566 31.7602 38.3937C31.7187 37.8958 31.698 37.5128 31.6565 37.283C31.8017 37.1681 32.0506 37.0149 32.3618 36.8235C32.6937 36.632 32.9426 36.4979 33.0878 36.4022C33.3368 36.632 33.565 36.8426 33.7932 36.9958C34.1043 37.2256 34.3533 37.3405 34.5192 37.3022C34.54 37.3022 34.5607 37.3022 34.5607 37.283C34.6852 37.2447 34.7682 37.1681 34.8097 37.0532C34.8719 36.9383 34.8719 36.8426 34.8097 36.7277C34.7682 36.6511 34.6644 36.5362 34.5192 36.4213C34.3325 36.2681 34.2081 36.1724 34.1666 36.1341C33.6065 35.5405 33.0878 35.0235 32.6315 34.583C32.2995 34.2575 32.0299 34.0086 31.8639 33.8362C31.6565 33.6639 31.449 33.6064 31.2208 33.6639ZM31.6357 36.383C31.6565 35.8277 31.6772 35.4064 31.6979 35.0809C32.0299 35.3873 32.2995 35.6554 32.507 35.866C32.4448 35.9043 32.2995 35.9809 32.0714 36.1149C31.8639 36.2107 31.7187 36.3064 31.6357 36.383Z" fill="white"/>
<path d="M35.9298 36.7851C35.8469 36.8042 35.7639 36.7851 35.7016 36.7468C35.6187 36.7085 35.5357 36.6319 35.4942 36.5553C35.349 36.268 35.266 35.8659 35.2038 35.3872C35.1208 34.6595 35.0793 34.2574 35.0586 34.1617C34.9756 33.8553 34.9133 33.5489 34.8511 33.2234C34.7681 32.8021 34.7474 32.5148 34.8096 32.3425C34.8719 32.1893 34.9963 32.0744 35.183 32.017C35.2245 31.9978 35.266 31.9978 35.3075 31.9978C35.4735 31.9787 35.5979 32.017 35.7431 32.1127C35.9298 32.2468 36.1995 32.534 36.5314 33.0127C36.8633 33.4723 37.2575 33.9702 37.6724 34.5063C37.6931 34.5255 37.7139 34.5255 37.7346 34.5255C37.7346 34.5255 37.7346 34.5255 37.7554 34.5255C37.7969 34.5255 37.8176 34.5063 37.8176 34.468C37.8798 33.8361 37.9213 33.1276 37.9006 32.3808C37.8798 32.151 37.8798 31.9021 37.8591 31.6723C37.9006 31.4042 38.0458 31.2319 38.3155 31.1744C38.357 31.1744 38.3985 31.1553 38.4192 31.1553C38.6474 31.1553 38.8548 31.2702 39.0623 31.5C39.166 31.6148 39.3112 31.8446 39.4979 32.1893C39.9128 32.9936 40.307 33.7021 40.6804 34.2765C41.1575 35.0234 41.2197 35.1957 41.2405 35.2148C41.2612 35.3106 41.2405 35.4063 41.1575 35.4829C41.0745 35.5595 40.9915 35.5978 40.8671 35.617C40.8256 35.617 40.8048 35.617 40.7634 35.617C40.5767 35.617 40.4107 35.4829 40.2447 35.2723C40.1203 35.0425 39.9958 34.8127 39.8506 34.6021C39.6431 34.2765 39.3527 33.7787 39.0001 33.1468C38.9793 33.1276 38.9586 33.1085 38.9171 33.1085C38.9171 33.1085 38.9171 33.1085 38.8963 33.1085C38.8548 33.1085 38.8341 33.1276 38.8341 33.1659C38.8133 33.4531 38.7511 33.9127 38.6889 34.5063C38.6681 34.6978 38.6681 34.8893 38.6474 35.1C38.6266 35.3297 38.5852 35.5212 38.5437 35.6744C38.4814 35.8659 38.357 35.9808 38.1703 36.0191C38.1288 36.0191 38.108 36.0382 38.0665 36.0382C37.9213 36.0382 37.7761 35.9808 37.6309 35.8468C37.5064 35.6936 37.382 35.5212 37.2368 35.368C36.8633 34.9276 36.4899 34.468 36.0958 33.9893C36.075 33.9702 36.0543 33.951 36.0128 33.9702H35.9921C35.9506 33.9702 35.9298 34.0085 35.9298 34.0276C35.9506 34.3723 36.0128 34.8702 36.0958 35.5595C36.1373 35.7893 36.1995 36.0191 36.241 36.2489C36.2618 36.517 36.1788 36.6702 35.9713 36.7468C36.0128 36.7659 35.9713 36.7851 35.9298 36.7851Z" fill="#59287F"/>
<path d="M38.4606 31.2321C38.6473 31.2321 38.834 31.3278 39.0207 31.5576C39.1244 31.6725 39.2697 31.9023 39.4356 32.247C39.8712 33.0512 40.2654 33.7597 40.6388 34.3342C41.1159 35.081 41.1782 35.2342 41.1782 35.2534C41.1989 35.33 41.1782 35.4065 41.0952 35.464C41.033 35.5214 40.95 35.5597 40.8462 35.5789C40.8255 35.5789 40.784 35.5789 40.7633 35.5789C40.6181 35.5789 40.4521 35.464 40.3069 35.2725C40.1824 35.0427 40.0579 34.8129 39.9127 34.5831C39.7053 34.2576 39.4149 33.7597 39.0622 33.147C39.0415 33.1087 38.9792 33.0704 38.917 33.0704H38.8962C38.834 33.0895 38.7718 33.1278 38.7718 33.1853C38.751 33.4725 38.6888 33.9321 38.6266 34.5257C38.6058 34.7172 38.6058 34.9087 38.5851 35.1193C38.5643 35.3491 38.5436 35.5406 38.4814 35.6746C38.4399 35.847 38.3361 35.9427 38.1702 35.981C38.1494 35.981 38.108 36.0002 38.0872 36.0002C37.9627 36.0002 37.8383 35.9427 37.7138 35.8278C37.5893 35.6746 37.4649 35.5023 37.3197 35.3491C36.9462 34.9087 36.5728 34.4491 36.1994 33.9704C36.158 33.9321 36.1165 33.9129 36.0542 33.9129C36.0335 33.9129 36.0335 33.9129 36.0127 33.9129C35.9505 33.9321 35.909 33.9895 35.909 34.047C35.9298 34.3917 35.992 34.8895 36.075 35.5789C36.1165 35.8087 36.1787 36.0193 36.2202 36.2491C36.2409 36.5555 36.0957 36.6512 35.992 36.6895C35.9505 36.7087 35.9298 36.7087 35.8883 36.7087C35.826 36.7087 35.7638 36.7087 35.7016 36.6895C35.6186 36.6512 35.5771 36.5938 35.5356 36.5172C35.4111 36.23 35.3074 35.847 35.2452 35.3682C35.1622 34.6214 35.1207 34.2193 35.1 34.1427C35.0377 33.8363 34.9548 33.53 34.8925 33.2236C34.7888 32.7065 34.8095 32.4768 34.851 32.3619C34.9133 32.2278 35.017 32.1321 35.1622 32.0938C35.2037 32.0746 35.2452 32.0746 35.2659 32.0746C35.3904 32.0555 35.5149 32.0938 35.6393 32.1704C35.8053 32.3044 36.075 32.5917 36.4069 33.0512C36.7388 33.5108 37.133 34.0087 37.5686 34.5448C37.5893 34.5831 37.6516 34.6023 37.6931 34.6023H37.7138C37.776 34.5831 37.8175 34.5448 37.8383 34.4874C37.9005 33.8555 37.942 33.147 37.942 32.4002C37.9212 32.1704 37.9212 31.9214 37.9005 31.6917C37.942 31.3661 38.1494 31.2704 38.2947 31.2512C38.3984 31.2512 38.4191 31.2321 38.4606 31.2321ZM38.4399 31.1172C38.3984 31.1172 38.3569 31.1172 38.3154 31.1363C38.0042 31.1938 37.8383 31.3853 37.7968 31.6917C37.8175 31.9214 37.8175 32.1704 37.8383 32.4002C37.8383 33.147 37.8175 33.8363 37.7553 34.4683C37.3197 33.9321 36.9462 33.4534 36.6143 32.9746C36.2824 32.4959 35.992 32.1895 35.826 32.0555C35.6808 31.9406 35.4941 31.9023 35.3282 31.9214C35.2867 31.9214 35.2244 31.9406 35.183 31.9597C34.9755 32.0172 34.8303 32.1512 34.7681 32.3236C34.7058 32.4959 34.7058 32.8023 34.8095 33.2236C34.8925 33.53 34.9548 33.8363 35.0377 34.1427C35.0585 34.2193 35.1 34.6214 35.183 35.3491C35.2452 35.8278 35.3489 36.23 35.4734 36.5363C35.5149 36.6321 35.5978 36.7087 35.7016 36.7661C35.7845 36.8044 35.8883 36.8236 35.9712 36.8044C36.0127 36.8044 36.0542 36.7853 36.0957 36.7661C36.3239 36.6895 36.4484 36.498 36.4276 36.1917C36.3861 35.9619 36.3239 35.7321 36.2824 35.5214C36.1994 34.8512 36.1372 34.3342 36.1165 34.0087C36.5106 34.4874 36.884 34.947 37.2574 35.3874C37.3819 35.5406 37.5271 35.7129 37.6516 35.8661C37.8175 36.0193 37.9627 36.0768 38.1287 36.0768C38.1702 36.0768 38.2117 36.0768 38.2532 36.0576C38.4606 36.0002 38.6058 35.8661 38.6681 35.6555C38.7095 35.5023 38.751 35.3108 38.7718 35.0619C38.7925 34.8704 38.7925 34.6789 38.8133 34.4683C38.8755 33.8555 38.9377 33.3959 38.9585 33.1278C39.3319 33.7597 39.6016 34.2385 39.809 34.5831C39.9542 34.8129 40.0787 35.0427 40.2032 35.2725C40.3691 35.5214 40.5558 35.6363 40.7633 35.6555C40.8048 35.6555 40.8463 35.6555 40.8877 35.6555C41.0122 35.6363 41.1367 35.5789 41.2197 35.5023C41.3234 35.4065 41.3441 35.3108 41.3234 35.1768C41.3026 35.1193 41.1367 34.7938 40.7633 34.2193C40.3899 33.6448 40.0165 32.9555 39.5808 32.1321C39.3941 31.7874 39.2489 31.5576 39.1452 31.4236C38.9377 31.2321 38.7095 31.1172 38.4399 31.1172Z" fill="white"/>
<path d="M42.2362 35.2914C42.1532 35.2914 42.091 35.2531 42.008 35.2148C41.9043 35.1574 41.842 35.0808 41.8213 34.985C41.8213 34.9276 41.842 34.7169 42.1739 33.9127C42.1739 33.8935 42.1739 33.8744 42.1739 33.8552C42.1325 33.7978 42.1117 33.7595 42.1117 33.7212C42.1117 33.6446 42.2569 33.568 42.4021 33.5106C42.4229 33.5106 42.4436 33.4914 42.4436 33.4723C42.7133 32.9552 43.0452 32.3999 43.4394 31.8446C44.2069 30.7723 44.4559 30.6765 44.4974 30.6765C44.5388 30.6765 44.6011 30.6765 44.6426 30.6765C44.85 30.7148 45.016 30.8297 45.1197 31.0212C45.2027 31.2318 45.3479 31.5574 45.5138 31.9978C45.742 32.5914 46.0117 33.2808 46.2814 34.0467C46.3021 34.1042 46.3851 34.2382 46.5096 34.468C46.6133 34.6403 46.6548 34.7744 46.6548 34.851C46.6548 34.9467 46.6133 35.0233 46.5096 35.0999C46.4059 35.1574 46.3021 35.1957 46.1984 35.1765C46.1777 35.1765 46.1777 35.1765 46.1569 35.1765C46.0532 35.1574 45.8665 35.0425 45.6383 34.6403C45.4931 34.3914 45.3479 34.1233 45.2234 33.8169C45.2234 33.7978 45.1819 33.7786 45.1612 33.7786H45.1404C44.9537 33.7978 44.6426 33.8169 44.2069 33.8552C43.792 33.8935 43.4809 33.9318 43.2734 33.9701C43.2527 33.9701 43.2319 33.9893 43.2112 34.0084C43.1282 34.2382 42.983 34.5829 42.7548 35.0425C42.6718 35.1765 42.5681 35.2531 42.4021 35.2531C42.3192 35.2914 42.2777 35.2914 42.2362 35.2914ZM44.4144 32.0744C44.3729 32.0744 44.3521 32.0744 44.3314 32.1127C44.1447 32.3808 43.9165 32.7637 43.6261 33.2425C43.6053 33.2616 43.6261 33.2808 43.6468 33.2999C43.6676 33.3191 43.6676 33.3191 43.6883 33.3191C43.7091 33.3191 43.7091 33.3191 43.7298 33.3191C43.8335 33.2999 44.0202 33.2808 44.2692 33.2616C44.5596 33.2425 44.767 33.2233 44.8293 33.2233C44.85 33.2233 44.8708 33.2042 44.8708 33.2042C44.8915 33.185 44.8915 33.1659 44.8708 33.1659C44.767 32.8978 44.6426 32.5531 44.4766 32.1318C44.4766 32.0935 44.4559 32.0744 44.4144 32.0744Z" fill="#59287F"/>
<path d="M44.6013 30.7916C44.6636 30.8108 44.8503 30.8299 44.9955 31.098C45.0784 31.3086 45.2237 31.6342 45.3896 32.0746C45.6386 32.6682 45.8875 33.3576 46.1572 34.1235C46.1779 34.1618 46.2194 34.2576 46.3854 34.5639C46.4891 34.7746 46.5306 34.8703 46.5306 34.9278C46.5306 35.0044 46.4891 35.081 46.4268 35.1193C46.3439 35.1767 46.2609 35.1959 46.1572 35.1959H46.1364C46.0742 35.1767 45.9082 35.1001 45.6593 34.6788C45.5141 34.4491 45.3896 34.1618 45.2651 33.8554C45.2444 33.8171 45.2029 33.7788 45.1407 33.7597C45.1199 33.7597 45.0992 33.7597 45.0784 33.7597C44.8917 33.7788 44.5806 33.798 44.1449 33.8363C43.73 33.8746 43.4189 33.9129 43.1907 33.9512C43.1492 33.9703 43.1077 33.9895 43.087 34.0278C43.004 34.2576 42.8588 34.6022 42.6513 35.0618C42.5891 35.1767 42.4854 35.2342 42.3609 35.2533C42.3194 35.2533 42.2987 35.2533 42.2572 35.2533C42.1949 35.2533 42.1327 35.2342 42.0705 35.1959C41.9875 35.1576 41.946 35.1001 41.9253 35.0044C41.9253 34.9661 41.9253 34.8129 42.2779 33.9703C42.2987 33.932 42.2779 33.8937 42.2572 33.8746C42.2157 33.8363 42.1949 33.798 42.1949 33.7597C42.1949 33.7214 42.2572 33.6831 42.4439 33.6065C42.4854 33.5874 42.5061 33.5682 42.5269 33.5491C42.7965 33.032 43.1285 32.4767 43.5226 31.9406C44.2072 30.9831 44.4561 30.8299 44.5183 30.8108C44.5391 30.7725 44.5806 30.7725 44.6013 30.7916ZM43.6678 33.3959C43.6886 33.3959 43.7093 33.3959 43.73 33.3959C43.8338 33.3767 44.0205 33.3576 44.2487 33.3384C44.5598 33.3193 44.7465 33.3001 44.8295 33.3001C44.871 33.3001 44.9125 33.281 44.9332 33.2427C44.954 33.2235 44.954 33.1852 44.954 33.1469C44.8503 32.8788 44.7258 32.5342 44.5598 32.1129C44.5391 32.0746 44.4769 32.0363 44.4146 32.0171C44.4146 32.0171 44.4146 32.0171 44.3939 32.0171C44.3316 32.0171 44.2694 32.0363 44.2279 32.0746C44.0412 32.3618 43.813 32.7257 43.5226 33.2044C43.5019 33.2427 43.5019 33.3001 43.5433 33.3384C43.6056 33.3767 43.6263 33.3767 43.6678 33.3959ZM44.6221 30.6576C44.5806 30.6576 44.5183 30.6384 44.4561 30.6384C44.2902 30.6384 43.896 31.0406 43.3359 31.8257C42.9417 32.381 42.6306 32.9363 42.3402 33.4533C42.112 33.5299 41.9875 33.6065 42.0082 33.7214C42.0082 33.7788 42.0497 33.8363 42.0912 33.8937C41.8423 34.5256 41.7178 34.8895 41.7386 34.9852C41.7593 35.1001 41.8423 35.1959 41.946 35.2533C42.029 35.2916 42.112 35.3299 42.1949 35.3299C42.2364 35.3299 42.2779 35.3299 42.3194 35.3299C42.5061 35.3108 42.6513 35.2342 42.7343 35.081C42.9417 34.6214 43.1077 34.2767 43.1907 34.0469C43.3981 34.0086 43.7093 33.9703 44.1242 33.932C44.5598 33.8937 44.871 33.8746 45.0784 33.8554C45.2029 34.1618 45.3481 34.4491 45.4933 34.698C45.7008 35.0427 45.8875 35.2342 46.0742 35.2725C46.0949 35.2725 46.1157 35.2725 46.1364 35.2725C46.2816 35.2916 46.4061 35.2533 46.5098 35.1767C46.6136 35.1001 46.6758 35.0044 46.6758 34.8895C46.6758 34.7937 46.6343 34.6597 46.5306 34.4874C46.4061 34.2767 46.3439 34.1235 46.3231 34.0661C46.0534 33.3001 45.8045 32.6108 45.5556 32.0171C45.3896 31.5767 45.2444 31.2512 45.1614 31.0214C45.0577 30.8299 44.871 30.6959 44.6221 30.6576ZM43.6886 33.2618C43.979 32.7831 44.2279 32.4001 44.3939 32.132C44.5806 32.5533 44.705 32.898 44.788 33.1661C44.705 33.1661 44.5183 33.1852 44.2279 33.2044C43.979 33.2235 43.813 33.2427 43.6886 33.2618Z" fill="white"/>
<path d="M25.4122 61.4871C27.1132 60.836 28.2749 59.5914 29.5196 58.4233L31.3451 56.6616C31.6563 57.8105 33.0047 59.3041 34.4569 59.8594C36.6973 60.5871 38.9377 60.5105 41.3648 60.319C43.7505 60.0509 45.41 59.4573 47.3393 58.6148C48.5425 58.002 49.393 57.2743 50.0154 56.4318C50.4925 55.3211 50.3888 54.0573 49.6212 53.0999C48.8537 52.1424 47.526 51.5488 46.634 51.3765C46.0116 51.3382 45.3686 51.2999 44.7462 51.2616C46.4058 48.6765 46.0946 43.8701 46.0324 43.1233C47.4845 41.3616 48.9159 39.2935 49.31 37.0722C49.6834 34.4296 49.6627 32.0169 48.5632 29.719L47.6297 27.8999L47.4638 27.4786C46.9244 25.4488 47.5675 22.9594 48.2313 21.6765C49.7042 17.0616 50.7207 14.5148 56.1765 15.0318C58.0643 15.4531 62.2547 16.3722 62.6281 14.2275C63.1675 14.1892 63.5201 13.6722 63.7483 13.2126C63.9558 12.3892 63.5824 11.4509 62.6074 10.8382C63.0638 10.0339 62.5659 8.82752 61.3212 8.36795C58.1058 7.06582 55.5334 6.45305 52.1313 6.29986C52.3803 4.44241 53.0233 3.06369 51.5712 1.85731C50.2021 1.0339 48.0446 1.45518 48.6047 3.14029C48.9366 4.13603 49.0819 5.05518 48.7084 5.97433C48.3973 6.4339 48.1068 6.89348 47.7957 7.35305C47.36 6.45305 46.6755 6.05092 45.3478 5.89773C40.6388 5.38071 33.5856 7.71688 31.9882 9.1339C31.7393 9.1339 31.4904 8.96156 31.5733 8.69348C32.5691 7.60199 33.9175 6.22327 33.5026 5.20837C33.067 3.65731 32.1957 3.67646 30.8058 3.58071C28.2542 4.59561 29.9967 7.81263 28.9388 7.64029C27.7563 7.4488 25.5159 7.39135 24.3542 7.96582L23.3377 8.54029C21.3877 9.88071 21.0143 10.8765 18.6909 9.93816L16.7824 8.86582C16.326 8.61688 15.8696 8.46369 15.2265 8.52114C13.5877 8.75092 12.5505 11.719 13.8781 12.485C15.1436 13.3658 18.276 13.7871 19.8733 13.6722C20.0186 13.8445 20.2882 13.9786 20.6409 13.9594C20.8898 15.9126 21.035 17.9807 21.5329 19.8956C21.7196 20.6807 22.0308 21.4658 22.5287 22.2318L23.9808 23.7062L26.0138 25.219C25.4744 25.8509 24.2712 26.6935 24.0638 27.402L23.7111 28.4169L23.2547 29.5467C23.0058 29.5084 22.1553 28.1488 21.6159 27.4594C21.5329 25.8892 21.5329 25.2765 22.0515 23.6871C22.1345 22.8062 21.4292 22.2701 20.6201 22.1552C19.251 22.0786 18.359 22.2126 17.7574 23.1509C17.0728 24.0318 17.1143 25.6594 17.5499 27.3254C16.2845 27.2871 15.1643 27.3445 13.9404 27.5552C11.7414 27.9765 9.02387 28.7233 7.19834 29.9871C6.28558 30.7148 6.22334 31.1169 6.41004 32.3233C5.70472 32.8211 5.43504 33.3765 5.39355 34.1807C5.39355 34.9658 5.68398 35.9041 6.45153 35.9999C6.53451 36.019 6.63824 35.9999 6.7627 36.3254C8.69196 38.2403 15.1436 36.3637 17.4877 36.785C19.0436 37.0339 20.1223 37.7616 21.4499 38.2403C22.4249 38.7765 23.4829 39.0445 24.5616 39.1403C26.0345 39.0828 26.9888 38.3552 27.7978 37.5126C28.6898 38.9679 28.8558 40.7105 28.3372 42.2424C27.7978 43.7935 26.3457 45.153 24.7276 45.8999C21.4499 44.1382 19.251 43.4105 15.7866 44.9233C14.5627 45.8616 13.8989 47.1254 13.6292 48.485" fill="#CAD1E1"/>
<path d="M25.4122 61.3723C27.1132 60.7213 28.2749 59.4766 29.5196 58.3085L31.3452 56.5468C31.6563 57.6957 33.0047 59.1894 34.4569 59.7447C36.6973 60.4723 38.9377 60.3957 41.3648 60.2043C43.7505 59.9362 45.41 59.3426 47.3393 58.5C48.5425 57.8872 49.393 57.1596 50.0154 56.317C50.4925 55.2064 50.3888 53.9426 49.6212 52.9851C48.8537 52.0277 47.526 51.434 46.634 51.2617C46.0116 51.2234 45.3686 51.1851 44.7462 51.1468C46.4058 48.5617 46.0946 43.7553 46.0324 43.0085C47.4845 41.2468 48.9159 39.1787 49.31 36.9575C49.6834 34.3149 49.6627 31.9021 48.5632 29.6043L47.6297 27.7851L47.4638 27.3638C46.9244 25.334 47.5675 22.8447 48.2313 21.5617C49.7042 16.9468 50.7207 14.4 56.1765 14.917C58.0643 15.3383 62.2547 16.2575 62.6281 14.1128C63.1675 14.0745 63.5201 13.5575 63.7483 13.0979C63.9558 12.2745 63.5824 11.3362 62.6074 10.7234C63.0638 9.91916 62.5659 8.71277 61.3212 8.2532C58.1058 6.95107 55.5334 6.33831 52.1313 6.18511C52.3803 4.32767 53.0233 2.94894 51.5712 1.74256C50.2021 0.919157 48.0446 1.34043 48.6047 3.02554C48.9366 4.02128 49.0819 4.94043 48.7084 5.85958C48.3973 6.31916 48.1068 6.77873 47.7957 7.23831C47.36 6.33831 46.6755 5.93618 45.3478 5.78299C40.6388 5.26597 33.5856 7.60214 31.9882 9.01916C31.7393 9.01916 31.4904 8.84682 31.5733 8.57873C32.5691 7.48724 33.9175 6.10852 33.5026 5.09363C33.067 3.54256 32.1957 3.56171 30.8058 3.46597C28.2542 4.48086 29.9967 7.69788 28.9388 7.52554C27.7563 7.33405 25.5159 7.2766 24.3542 7.85107L23.3377 8.42554C21.3877 9.76597 21.0143 10.7617 18.6909 9.82341L16.7824 8.75107C16.326 8.50214 15.8696 8.34894 15.2265 8.40639C13.5877 8.63618 12.5505 11.6043 13.8781 12.3702C15.1436 13.2511 18.276 13.6723 19.8733 13.5575C20.0186 13.7298 20.2882 13.8638 20.6409 13.8447C20.8898 15.7979 21.035 17.866 21.5329 19.7809C21.7196 20.566 22.0308 21.3511 22.5287 22.117L23.9808 23.5915L26.0138 25.1043C25.4744 25.7362 24.2712 26.5787 24.0638 27.2872L23.7111 28.3021L23.2547 29.4319C23.0058 29.3936 22.1553 28.0341 21.6159 27.3447C21.5329 25.7745 21.5329 25.1617 22.0515 23.5723C22.1345 22.6915 21.4292 22.1553 20.6202 22.0404C19.251 21.9638 18.359 22.0979 17.7574 23.0362C17.0728 23.917 17.1143 25.5447 17.5499 27.2106C16.2845 27.1723 15.1643 27.2298 13.9404 27.4404C11.7414 27.8617 9.02387 28.6085 7.19834 29.8723C6.28558 30.6 6.22334 31.0021 6.41004 32.2085C5.70472 32.7064 5.43504 33.2617 5.39355 34.066C5.39355 34.8511 5.68398 35.7894 6.45153 35.8851C6.53451 35.9043 6.63824 35.8851 6.7627 36.2106C8.69196 38.1255 15.1436 36.2489 17.4877 36.6702C19.0436 36.9192 20.1223 37.6468 21.4499 38.1255C22.4249 38.6617 23.4829 38.9298 24.5616 39.0255C26.0345 38.9681 26.9888 38.2404 27.7978 37.3979C28.6898 38.8532 28.8558 40.5958 28.3372 42.1277C27.7978 43.6787 26.3457 45.0383 24.7276 45.7851C21.4499 44.0234 19.251 43.2958 15.7866 44.8085C14.5627 45.7468 13.8989 47.0106 13.6292 48.3702" stroke="#6D7777" stroke-width="0.4" stroke-miterlimit="22.926"/>
<path d="M30.5986 24.9511L32.9843 26.0426L35.2869 26.3681H36.9673L38.2119 26.1575C38.2119 26.1575 38.5439 26.3681 38.2534 26.4639C38.1912 26.732 37.8385 27.0767 37.3199 27.383C36.9258 27.7852 35.7433 27.8235 35.7433 27.8235L34.2082 27.5745L32.5071 26.7703C32.5071 26.7703 31.5321 26.1192 31.5321 26.0809C31.5321 26.0235 31.5321 26.2724 30.4949 25.1426C29.4577 24.0128 30.5364 24.9703 30.5364 24.9703L30.5986 24.9511Z" fill="#222220"/>
<path d="M26.1177 25.2C26.1177 25.2 26.823 25.5064 26.8437 25.5255L30.8682 27.8425L33.9592 29.2213C34.9964 29.6808 37.2783 29.6042 38.5437 28.3787C40.1618 26.8085 40.0374 25.8128 40.0996 25.7745L43.8751 23.2851C49.9948 19.2638 47.1113 9.5936 47.8166 7.23828" stroke="#6D7777" stroke-width="0.25" stroke-miterlimit="22.926" stroke-linecap="round"/>
<path d="M38.5024 26.0616C39.0003 25.9851 39.5397 25.8893 40.079 25.7744" stroke="#6D7777" stroke-width="0.25" stroke-miterlimit="22.926" stroke-linecap="round"/>
<path d="M28.5864 22.9978L28.6072 23.017C31.6981 26.4638 34.4364 26.7318 38.5024 26.0616" stroke="#6D7777" stroke-width="0.25" stroke-miterlimit="22.926" stroke-linecap="round"/>
<path d="M26.7607 21.1213L28.5863 22.9979" stroke="#6D7777" stroke-width="0.25" stroke-miterlimit="22.926" stroke-linecap="round"/>
<path d="M29.188 23.6489C29.2088 23.6872 29.2297 23.7255 29.2505 23.7638" stroke="#6D7777" stroke-width="0.25" stroke-miterlimit="22.926" stroke-linecap="round"/>
<path d="M27.1341 18.9766C27.1756 19.8957 27.466 21.4659 25.3293 21.9063L25.1841 21.9255" stroke="#6D7777" stroke-width="0.25" stroke-miterlimit="22.926" stroke-linecap="round"/>
<path d="M29.8726 16.7745C29.9555 16.066 30.0593 14.9362 30.2875 13.7872C30.5779 12.4085 31.1172 11.0107 32.2167 10.7617C33.3992 10.8 33.7518 11.0298 33.814 11.8532C33.8348 12.217 33.7933 12.7149 33.7311 13.3851C32.7976 8.54044 30.246 14.0553 30.246 14.0553" fill="#6D7777"/>
<path d="M29.8726 16.7745C29.9555 16.066 30.0593 14.9362 30.2875 13.7872C30.5779 12.4085 31.1172 11.0107 32.2167 10.7617C33.3992 10.8 33.7518 11.0298 33.814 11.8532C33.8348 12.217 33.7933 12.7149 33.7311 13.3851C32.7976 8.54044 30.246 14.0553 30.246 14.0553" stroke="#6D7777" stroke-width="0.25" stroke-miterlimit="22.926" stroke-linecap="round" stroke-linejoin="bevel"/>
<path d="M45.7627 6.52991C46.385 6.31927 47.8994 9.13416 46.0116 7.18097L45.7627 6.52991Z" fill="#71391A"/>
<path d="M45.7627 6.52991C46.385 6.31927 47.8994 9.13416 46.0116 7.18097L45.7627 6.52991Z" stroke="#6D7777" stroke-width="0.25" stroke-miterlimit="22.926" stroke-linecap="round"/>
<path d="M53.7084 9.28719C54.1026 7.50634 52.7542 7.64038 52.1318 6.97017L52.1526 6.18506" stroke="#6D7777" stroke-width="0.25" stroke-miterlimit="22.926" stroke-linecap="round"/>
<path d="M62.6074 10.7425C60.7611 9.45953 59.3712 9.03825 57.6079 8.65527" stroke="#6D7777" stroke-width="0.25" stroke-miterlimit="22.926" stroke-linecap="round"/>
<path d="M58.1685 12.3701C59.8073 12.6191 61.2802 13.251 62.6078 14.1318" stroke="#6D7777" stroke-width="0.25" stroke-miterlimit="22.926" stroke-linecap="round"/>
<path d="M11.887 30.0256C9.937 30.0639 8.00775 31.1746 6.43115 32.2469" stroke="#6D7777" stroke-width="0.25" stroke-miterlimit="22.926" stroke-linecap="round"/>
<path d="M11.4509 33.9319C9.85358 34.0851 7.90358 34.9085 6.55518 35.9234" stroke="#6D7777" stroke-width="0.25" stroke-miterlimit="22.926" stroke-linecap="round"/>
<path d="M16.2017 30.7533C15.0815 29.3746 19.1682 28.1299 17.5708 27.249" stroke="#6D7777" stroke-width="0.25" stroke-miterlimit="22.926" stroke-linecap="round"/>
<path d="M19.2927 34.3723C19.3964 35.7127 17.9235 36.0766 17.0522 36.6702" stroke="#6D7777" stroke-width="0.25" stroke-miterlimit="22.926" stroke-linecap="round"/>
<path d="M24.8315 45.7468C26.3252 46.7809 26.014 47.7383 26.2422 48.6192" stroke="#6D7777" stroke-width="0.25" stroke-miterlimit="22.926" stroke-linecap="round"/>
<path d="M23.3379 31.4618L23.2754 29.4512" stroke="#6D7777" stroke-width="0.25" stroke-miterlimit="22.926" stroke-linecap="round"/>
<path d="M28.296 35.0808C28.3375 35.9617 28.13 36.6702 27.8604 37.4553" stroke="#6D7777" stroke-width="0.25" stroke-miterlimit="22.926" stroke-linecap="round"/>
<path d="M40.9502 54.3064C42.5683 53.9809 43.73 52.3915 44.7465 51.166" stroke="#6D7777" stroke-width="0.25" stroke-miterlimit="22.926" stroke-linecap="round"/>
<path d="M36.5729 46.2639C35.5979 49.9597 33.5027 53.598 31.3452 56.5469" stroke="#6D7777" stroke-width="0.25" stroke-miterlimit="22.926" stroke-linecap="round"/>
<path d="M36.5732 46.2639C43.4397 45.8617 43.502 44.3298 46.0328 43.0085" stroke="#6D7777" stroke-width="0.25" stroke-miterlimit="22.926" stroke-linecap="round"/>
<path d="M25.3917 61.3533C28.7938 56.0107 18.214 43.5831 13.7124 48.4278V48.4086V48.4278C13.339 50.4575 13.8576 52.7171 14.8741 54.4788C16.181 56.9107 17.6539 58.6341 20.1225 60.5299C21.1805 61.315 22.5289 61.7554 24.1263 61.7171C24.5826 61.6405 24.9975 61.5256 25.3917 61.3916C25.4124 61.3916 25.4332 61.3724 25.4332 61.3724L25.3917 61.3533Z" fill="#CAD1E1"/>
<path d="M25.3917 61.3533C28.7938 56.0107 18.214 43.5831 13.7124 48.4278V48.4086V48.4278C13.339 50.4575 13.8576 52.7171 14.8741 54.4788C16.181 56.9107 17.6539 58.6341 20.1225 60.5299C21.1805 61.315 22.5289 61.7554 24.1263 61.7171C24.5826 61.6405 24.9975 61.5256 25.3917 61.3916C25.4124 61.3916 25.4332 61.3724 25.4332 61.3724L25.3917 61.3533Z" stroke="#6D7777" stroke-width="0.25" stroke-miterlimit="22.926" stroke-linecap="round" stroke-linejoin="round"/>
<path d="M23.6283 13.8254C21.699 9.93816 25.1841 10.4552 25.8894 11.1254C26.5533 11.6233 27.0511 13.2892 26.9474 13.4041C26.2628 14.0935 24.707 13.902 23.6283 13.8254Z" fill="white"/>
<path d="M23.6283 13.8254C21.699 9.93816 25.1841 10.4552 25.8894 11.1254C26.5533 11.6233 27.0511 13.2892 26.9474 13.4041C26.2628 14.0935 24.707 13.902 23.6283 13.8254Z" stroke="#6D7777" stroke-width="0.25" stroke-miterlimit="22.926" stroke-linecap="round" stroke-linejoin="bevel"/>
<path d="M28.7936 11.6043C28.8766 11.6809 27.3829 10.4554 27.8186 9.65115C28.2542 8.8469 29.167 8.57881 29.9138 9.09583L30.6813 9.95754L28.7936 11.6043Z" fill="white"/>
<path d="M28.7936 11.6043C28.8766 11.6809 27.3829 10.4554 27.8186 9.65115C28.2542 8.8469 29.167 8.57881 29.9138 9.09583L30.6813 9.95754L28.7936 11.6043Z" stroke="#6D7777" stroke-width="0.25" stroke-miterlimit="22.926" stroke-linecap="round"/>
<path d="M25.1011 11.7574C25.7027 11.7383 26.2213 12.1787 26.2628 12.7723C26.2836 13.3468 25.8272 13.8447 25.2048 13.8638C24.6032 13.883 24.0846 13.4425 24.0431 12.8489C24.0224 12.2745 24.4995 11.7766 25.1011 11.7574Z" fill="#222220"/>
<path d="M25.1011 11.7574C25.7027 11.7383 26.2213 12.1787 26.2628 12.7723C26.2836 13.3468 25.8272 13.8447 25.2048 13.8638C24.6032 13.883 24.0846 13.4425 24.0431 12.8489C24.0224 12.2745 24.4995 11.7766 25.1011 11.7574Z" stroke="#6D7777" stroke-width="0.25" stroke-miterlimit="22.926" stroke-linecap="round"/>
<path d="M29.105 9.76604C29.5406 9.74689 29.914 10.0341 29.9347 10.398C29.9555 10.7618 29.6028 11.0873 29.1672 11.1065C28.7316 11.1256 28.3581 10.8384 28.3374 10.4746C28.3374 10.0916 28.6693 9.76604 29.105 9.76604Z" fill="#222220"/>
<path d="M29.105 9.76604C29.5406 9.74689 29.914 10.0341 29.9347 10.398C29.9555 10.7618 29.6028 11.0873 29.1672 11.1065C28.7316 11.1256 28.3581 10.8384 28.3374 10.4746C28.3374 10.0916 28.6693 9.76604 29.105 9.76604Z" stroke="#6D7777" stroke-width="0.25" stroke-miterlimit="22.926" stroke-linecap="round"/>
<path d="M16.6791 10.0913C16.6791 10.0913 17.8823 10.4551 18.0482 10.5126C18.2142 10.5509 18.4631 10.9147 18.8573 10.953C19.044 10.9722 18.4631 11.0488 17.903 11.1445C17.2807 11.2785 16.6376 11.3934 16.4924 10.7041L16.3887 10.2636L16.6791 10.0913Z" fill="#6D7777"/>
<path d="M16.6791 10.0913C16.6791 10.0913 17.8823 10.4551 18.0482 10.5126C18.2142 10.5509 18.4631 10.9147 18.8573 10.953C19.044 10.9722 18.4631 11.0488 17.903 11.1445C17.2807 11.2785 16.6376 11.3934 16.4924 10.7041L16.3887 10.2636L16.6791 10.0913Z" stroke="#6D7777" stroke-width="0.25" stroke-miterlimit="22.926" stroke-linecap="round"/>
<path d="M31.1587 6.12777C31.1587 6.12777 31.4699 5.41926 31.5321 5.32351C31.5943 5.22777 31.9055 4.92139 31.9055 4.92139L32.0922 5.11288L32.113 5.45756L31.8433 5.87883L31.1587 6.12777Z" fill="#71391A"/>
<path d="M31.1587 6.12777C31.1587 6.12777 31.4699 5.41926 31.5321 5.32351C31.5943 5.22777 31.9055 4.92139 31.9055 4.92139L32.0922 5.11288L32.113 5.45756L31.8433 5.87883L31.1587 6.12777Z" stroke="#6D7777" stroke-width="0.25" stroke-miterlimit="22.926" stroke-linecap="round"/>
<path d="M44.4146 38.3936L44.9539 39.1978L45.3066 39.7148C45.597 39.734 45.9289 39.6765 46.1778 39.5425L46.1571 38.9489C45.6592 39.3318 45.1406 38.9106 44.8917 39.0829" fill="#6D7777"/>
<path d="M44.4146 38.3936L44.9539 39.1978L45.3066 39.7148C45.597 39.734 45.9289 39.6765 46.1778 39.5425L46.1571 38.9489C45.6592 39.3318 45.1406 38.9106 44.8917 39.0829" stroke="#6D7777" stroke-width="0.25" stroke-miterlimit="22.926" stroke-linecap="round" stroke-linejoin="round"/>
<path d="M31.864 26.3489C32.6731 26.7702 33.5236 27.2872 34.4364 27.6319C35.5358 27.8233 37.0295 27.9957 37.3614 27.0191C37.4443 26.7702 34.2082 26.7702 33.7103 26.5404C32.6731 26.0233 31.7603 26.2914 31.864 26.3489Z" fill="#6D7777"/>
<path d="M29.271 23.7639C30.5572 25.9469 36.3657 30.332 38.5439 26.0618" stroke="#6D7777" stroke-width="0.25" stroke-miterlimit="22.926"/>
<path d="M24.8316 14.0361C24.8316 14.0361 23.2758 14.4191 22.9854 14.8404L24.8316 14.0361Z" fill="#F1CA12"/>
<path d="M24.8316 14.0361C24.8316 14.0361 23.2758 14.4191 22.9854 14.8404" stroke="#6D7777" stroke-width="0.25" stroke-miterlimit="22.926" stroke-linecap="round" stroke-linejoin="bevel"/>
<path d="M22.6323 14.151C24.1882 13.5765 25.4329 14.1893 26.4908 13.7297C27.5073 13.2893 28.5238 11.2786 31.9882 9.01904" stroke="#6D7777" stroke-width="0.25" stroke-miterlimit="22.926" stroke-linecap="round"/>
<path d="M25.039 12.849C25.039 13.0405 24.8731 13.1937 24.6656 13.1937C24.4582 13.1937 24.2715 13.0596 24.2715 12.8873C24.2715 12.6958 24.4374 12.5426 24.6449 12.5426C24.8523 12.5234 25.0183 12.6575 25.039 12.849Z" fill="white"/>
<path d="M29.1878 10.5703C29.1878 10.7043 29.0841 10.8 28.9389 10.8192C28.7936 10.8192 28.6692 10.7234 28.6484 10.6086C28.6484 10.4745 28.7522 10.3788 28.8974 10.3596C29.0633 10.3405 29.1878 10.4362 29.1878 10.5703Z" fill="white"/>
<path d="M34.5607 37.2255C34.3947 37.283 34.1458 37.1872 33.7931 36.9383C33.5649 36.766 33.316 36.5745 33.0878 36.3447C32.9426 36.4404 32.6937 36.5745 32.3618 36.766C32.0506 36.9575 31.8017 37.1106 31.6564 37.2255C31.6979 37.4553 31.7187 37.8383 31.7602 38.3362C31.7602 38.5085 31.6772 38.6426 31.532 38.7192C31.4282 38.7766 31.3038 38.7958 31.1793 38.7958C31.0548 38.7766 30.9511 38.7192 30.8681 38.6234C30.8059 38.5468 30.7229 38.1638 30.6399 37.4936C30.5777 37.4553 30.5155 37.417 30.4947 37.3787C30.4325 37.3021 30.4947 37.1681 30.6399 37.0149C30.6192 36.4404 30.6399 35.8277 30.7022 35.1766C30.7852 34.2383 30.9304 33.7404 31.0756 33.6638C31.3453 33.5298 31.5942 33.5681 31.8431 33.7596C32.0091 33.9319 32.2788 34.1809 32.6107 34.5064C33.0671 34.9468 33.5857 35.4638 34.1458 36.0575C34.1873 36.0958 34.3118 36.1915 34.4985 36.3447C34.6644 36.4787 34.7474 36.5745 34.7889 36.6511C34.8511 36.766 34.8304 36.8617 34.7889 36.9766C34.7474 37.1106 34.6644 37.1872 34.5607 37.2255ZM31.7187 35.0234C31.6979 35.3489 31.6772 35.7702 31.6564 36.3255C31.7394 36.2681 31.8846 36.1723 32.0713 36.0575C32.2995 35.9234 32.4655 35.8468 32.507 35.8085C32.3203 35.5979 32.0506 35.3489 31.7187 35.0234Z" fill="#A0A7B7"/>
<path d="M36.0958 34.0084C36.1165 34.3531 36.1787 34.851 36.2617 35.5212C36.3032 35.751 36.3654 35.9808 36.4069 36.1914C36.4277 36.4978 36.324 36.6701 36.075 36.7659C35.9298 36.8233 35.7846 36.8233 35.6601 36.7659C35.5564 36.7084 35.4734 36.651 35.4319 36.5361C35.2867 36.2297 35.183 35.8467 35.1415 35.3489C35.0585 34.6212 35.017 34.2191 34.9963 34.1425C34.9133 33.8361 34.8511 33.5297 34.7681 33.2233C34.6851 32.8021 34.6644 32.4957 34.7266 32.3233C34.7888 32.151 34.9341 32.0361 35.1415 31.9595C35.3904 31.8829 35.5979 31.9212 35.8053 32.0552C35.992 32.1893 36.2617 32.4957 36.5936 32.9744C36.9256 33.434 37.299 33.9318 37.7346 34.468C37.7968 33.8361 37.8383 33.1276 37.8176 32.3999C37.7968 32.1701 37.7968 31.9212 37.7761 31.6914C37.8176 31.385 37.9835 31.1935 38.2947 31.1361C38.6059 31.0787 38.8756 31.1935 39.1452 31.4999C39.249 31.6148 39.3942 31.8638 39.5809 32.2084C39.9958 33.0127 40.3899 33.7212 40.7633 34.2957C41.1367 34.8701 41.3027 35.1957 41.3234 35.2531C41.3442 35.368 41.3027 35.4829 41.2197 35.5787C41.1367 35.6553 41.0123 35.7127 40.8878 35.7319C40.6389 35.7701 40.4107 35.6361 40.2032 35.3489C40.0787 35.1191 39.9543 34.8893 39.8091 34.6595C39.6016 34.334 39.3112 33.8361 38.9585 33.2042C38.9378 33.4914 38.8756 33.9318 38.8133 34.5446C38.7926 34.7361 38.7926 34.9276 38.7718 35.1382C38.7511 35.368 38.7096 35.5595 38.6681 35.7319C38.6059 35.9425 38.4607 36.0765 38.2532 36.134C38.0458 36.1914 37.8383 36.1148 37.6516 35.9425C37.5271 35.7893 37.3819 35.617 37.2575 35.4638C36.8633 34.9467 36.4692 34.4872 36.0958 34.0084Z" fill="#A0A7B7"/>
<path d="M46.1571 35.2533C45.9496 35.2341 45.7629 35.0426 45.5347 34.6597C45.3895 34.4107 45.2443 34.1426 45.1198 33.8171C44.9331 33.8363 44.6012 33.8554 44.1656 33.8937C43.7507 33.932 43.4395 33.9703 43.232 34.0086C43.1491 34.2384 42.9831 34.5831 42.7757 35.0426C42.6927 35.1958 42.5475 35.2724 42.3608 35.2916C42.2363 35.3107 42.0911 35.2724 41.9874 35.215C41.8629 35.1575 41.8007 35.0618 41.7799 34.9469C41.7592 34.8512 41.8629 34.4873 42.1326 33.8554C42.0911 33.798 42.0496 33.7405 42.0496 33.6831C42.0496 33.5873 42.1533 33.4916 42.3815 33.415C42.6512 32.898 42.9831 32.3426 43.3773 31.7873C43.9374 30.9831 44.3315 30.6001 44.4975 30.6001C44.8294 30.6001 45.0576 30.7341 45.2028 31.0022C45.2858 31.2129 45.431 31.5575 45.5969 31.998C45.8251 32.5916 46.0948 33.2809 46.3645 34.0469C46.3852 34.1044 46.4682 34.2384 46.5719 34.4682C46.6757 34.6405 46.7172 34.7937 46.7172 34.8703C46.7172 34.9852 46.6549 35.0809 46.5512 35.1575C46.406 35.215 46.2815 35.2533 46.1571 35.2533ZM44.3938 32.0746C44.207 32.3426 43.9789 32.7256 43.6884 33.2043C43.8129 33.1852 43.9996 33.1469 44.2485 33.1469C44.539 33.1278 44.7257 33.1086 44.8086 33.1086C44.7049 32.8405 44.5805 32.4958 44.3938 32.0746Z" fill="#A0A7B7"/>
<path d="M67.3376 31.5382C68.2296 28.3978 68.9557 26.368 69.4743 25.468C69.6817 25.1233 69.8892 24.7786 70.1174 24.4531C70.3456 24.1276 70.5738 23.8212 70.8434 23.5531C70.9679 23.419 71.0716 23.3041 71.2168 23.2084C71.3828 23.0744 71.7147 22.9212 72.1711 22.7488C72.5653 22.6339 72.9179 22.5573 73.2083 22.4999C73.5195 22.4424 73.8722 22.4807 74.2663 22.5765C74.5982 22.6531 74.9301 22.8637 75.2206 23.1893C75.6355 23.6488 75.9881 24.2424 76.3408 24.9701C76.7764 25.8127 77.2328 26.9424 77.6892 28.3595C78.1456 29.7573 78.5605 31.2318 78.9546 32.7637C79.3488 34.2956 79.6599 35.8084 79.9089 37.2637C80.1578 38.7382 80.303 39.9446 80.303 40.9212C80.3238 41.419 80.2823 41.9361 80.1993 42.4914C80.1163 43.0467 79.9089 43.4871 79.577 43.8127C79.1828 44.1956 78.436 44.5403 77.3365 44.8276C76.2371 45.1148 75.5732 44.7893 75.3243 43.8127C75.2621 43.5446 75.2413 43.2765 75.2621 42.9893C75.2828 42.702 75.2828 42.4148 75.2621 42.1659C75.2828 40.385 75.0961 38.4127 74.7227 36.268C74.3493 34.1233 73.7684 31.6914 72.9801 28.9531C71.2791 31.8446 70.2626 34.1807 69.9722 35.9999C69.6817 37.7999 69.4536 38.9871 69.3291 39.5425C69.1839 40.0978 68.6238 40.4042 67.6073 40.4999C66.6115 40.5765 66.0099 40.3467 65.8232 39.8105C65.6365 39.2552 65.3461 38.1829 64.9105 36.5744C64.3711 34.5254 63.2924 32.0361 61.6743 29.1446C60.8445 31.9403 60.3051 34.4105 60.0355 36.5744C59.7658 38.7382 59.6828 40.7105 59.7865 42.5105C59.7865 42.7786 59.7865 43.0659 59.828 43.3531C59.8488 43.6403 59.8488 43.9084 59.7865 44.1765C59.5998 45.1722 58.9152 45.5744 57.7328 45.3637C56.5504 45.1531 55.7413 44.885 55.3264 44.5212C54.953 44.2148 54.7041 43.7935 54.6004 43.2382C54.4966 42.702 54.4344 42.1659 54.4137 41.668C54.3722 40.6914 54.4344 39.485 54.6211 37.9914C54.8078 36.5169 55.0567 35.0042 55.3887 33.4339C55.7206 31.8637 56.0732 30.3893 56.4881 28.9531C56.903 27.5361 57.2972 26.368 57.6913 25.5063C58.0232 24.7595 58.3759 24.1467 58.7493 23.668C59.0397 23.3041 59.3716 23.0744 59.7243 22.9786C60.1184 22.8637 60.4711 22.7871 60.7823 22.7871C61.0934 22.7871 61.4254 22.8254 61.8195 22.8829C62.3174 23.0169 62.6493 23.1701 62.836 23.3041C62.9812 23.3807 63.1264 23.4956 63.2509 23.6105C63.4998 23.8786 63.7695 24.185 64.0184 24.4914C64.2674 24.7978 64.5163 25.1233 64.7653 25.4488C65.3876 26.368 66.2381 28.3978 67.3376 31.5382Z" fill="white"/>
<path d="M81.5474 31.3085C81.9001 30.5042 82.315 29.7 82.7713 28.9532C83.2277 28.1872 83.7463 27.4787 84.3687 26.8276C84.6176 26.5404 84.8873 26.2532 85.157 26.0042C86.7958 24.3766 88.6836 23.2468 90.7995 22.5957C92.6251 22.0212 94.3884 21.983 96.0894 22.4617C96.9192 22.6915 97.7283 23.1319 98.558 23.7829C99.3671 24.434 99.9894 25.1617 100.425 25.9468C100.695 26.4638 100.902 27.0383 101.047 27.6319C101.172 28.2255 101.296 28.8191 101.359 29.3936C101.566 31.4234 101.442 33.2808 100.985 34.9468C100.695 35.9425 100.259 36.9191 99.6783 37.8766C99.0974 38.834 98.5165 39.6766 97.8942 40.4425C96.9607 41.5915 95.882 42.5489 94.658 43.334C93.4341 44.1191 92.1272 44.617 90.6958 44.7893C89.2644 44.9425 87.8538 44.7893 86.5054 44.3298C85.4681 43.9659 84.5139 43.4681 83.6011 42.817C82.6884 42.1659 82.0038 41.3234 81.4852 40.2893C81.008 39.2744 80.7176 38.0872 80.6346 36.7468C80.5102 34.7553 80.8213 32.9553 81.5474 31.3085ZM86.2772 33.817C86.132 35.0808 86.6506 36.4787 87.8123 38.0298C88.974 39.5808 90.3017 40.0787 91.7538 39.5617C92.6873 39.217 93.3096 38.6425 93.6001 37.8574C93.8905 37.0723 93.9527 36.1915 93.7868 35.2532C93.6001 34.2 93.1437 33.2808 92.3969 32.5149C91.6501 31.7298 90.8618 31.2319 90.0112 30.9829C89.1607 30.7532 88.3724 30.8298 87.6256 31.251C86.8788 31.6532 86.4224 32.5149 86.2772 33.817Z" fill="white"/>
<path d="M113.017 25.7937C112.188 31.5575 110.777 37.0916 108.786 42.3958C108.557 43.0469 108.205 43.5256 107.748 43.8129C107.292 44.1001 106.753 44.2916 106.109 44.4065C105.466 44.5214 104.948 44.5597 104.533 44.5022C104.118 44.4448 103.786 44.349 103.496 44.215C102.998 44.0044 102.707 43.4107 102.666 42.3958C102.624 41.381 103.143 39.581 104.263 36.9576C105.383 34.3533 106.13 31.6533 106.545 28.8575C106.939 26.0618 107.188 24.1852 107.292 23.2086C107.375 22.3661 107.541 21.6575 107.769 21.0831C107.935 20.681 108.163 20.3746 108.516 20.1639C108.889 19.9341 109.2 19.8001 109.449 19.7235C109.698 19.6469 110.03 19.6086 110.466 19.5895C116.523 19.4171 119.76 19.3022 120.174 19.2639C120.589 19.2256 121.066 19.2831 121.564 19.4363C122.062 19.6086 122.353 19.9341 122.415 20.4512C122.415 20.7384 122.394 21.0448 122.353 21.332C122.29 21.6384 122.249 21.9256 122.207 22.2129C121.751 24.8746 121.668 27.9001 121.958 31.2703C122.249 34.6405 122.767 37.8958 123.494 41.0171C123.701 41.8214 123.639 42.3767 123.307 42.7022C122.996 43.0278 122.519 43.2576 121.896 43.3916C121.461 43.4873 121.087 43.5448 120.776 43.5831C120.465 43.6214 120.091 43.5639 119.656 43.4299C119.282 43.3341 118.971 43.0852 118.702 42.7214C118.349 42.2235 118.017 41.5724 117.747 40.7682C117.353 39.6575 116.731 34.5256 115.922 25.3533L113.017 25.7937Z" fill="white"/>
<path d="M124.696 30.351C125.049 29.5467 125.464 28.7424 125.92 27.9956C126.377 27.2297 126.895 26.5212 127.518 25.8701C127.767 25.5829 128.036 25.2956 128.306 25.0467C129.945 23.419 131.833 22.2893 133.948 21.6382C135.774 21.0637 137.537 21.0254 139.238 21.5042C140.068 21.7339 140.877 22.1744 141.707 22.8254C142.516 23.4765 143.138 24.2042 143.574 24.9893C143.844 25.5063 144.051 26.0807 144.196 26.6744C144.321 27.268 144.445 27.8616 144.508 28.4361C144.715 30.4659 144.591 32.3233 144.134 33.9893C143.844 34.985 143.408 35.9616 142.827 36.919C142.246 37.8765 141.666 38.719 141.043 39.485C140.11 40.6339 139.031 41.5914 137.807 42.3765C136.583 43.1616 135.276 43.6595 133.845 43.8318C132.413 43.985 131.003 43.8318 129.654 43.3722C128.617 43.0084 127.663 42.5105 126.75 41.8595C125.837 41.2084 125.153 40.3658 124.634 39.3318C124.157 38.3169 123.867 37.1297 123.784 35.7893C123.659 33.7978 123.97 31.9978 124.696 30.351ZM129.426 32.8595C129.281 34.1233 129.8 35.5212 130.961 37.0722C132.123 38.6233 133.451 39.1212 134.903 38.6041C135.836 38.2595 136.459 37.685 136.749 36.8999C137.039 36.1148 137.102 35.2339 136.936 34.2956C136.749 33.2424 136.293 32.3233 135.546 31.5573C134.799 30.7722 134.011 30.2744 133.16 30.0254C132.31 29.7956 131.521 29.8722 130.775 30.2935C130.028 30.6956 129.571 31.5573 129.426 32.8595Z" fill="white"/>
<path d="M150.814 27.4021C152.328 24.817 153.449 23.0362 154.175 22.0213C154.901 21.0064 155.71 20.1638 156.623 19.4936C156.996 19.2064 157.411 18.9383 157.888 18.6894C158.365 18.4404 158.801 18.3447 159.236 18.4021C159.734 18.4787 160.46 18.9383 161.415 19.7809C162.348 20.6234 162.514 21.3894 161.871 22.117C161.705 22.3277 161.518 22.5 161.29 22.6532C161.062 22.8064 160.855 22.9596 160.668 23.0936C159.485 23.9553 158.49 24.8745 157.66 25.8702C156.83 26.866 156.021 27.9 155.233 28.9724C155.834 29.4128 156.623 30.0255 157.618 30.8298C158.614 31.6341 159.631 32.4575 160.668 33.3C161.705 34.1426 162.659 34.9468 163.51 35.6936C164.381 36.4404 164.962 36.9958 165.273 37.3213C165.978 38.1447 165.813 39.083 164.817 40.1553C163.8 41.2277 163.053 41.8213 162.514 41.917C161.996 42.0319 161.373 41.783 160.606 41.1894C159.838 40.5958 159.091 39.9447 158.324 39.2745C157.556 38.5851 156.789 37.8383 156.021 37.0149C155.253 36.1915 154.403 35.3872 153.469 34.5638C152.64 33.8745 152.017 33.4915 151.644 33.3958C152.287 36.1341 152.93 38.2596 153.594 39.7724C153.698 40.0404 153.822 40.3085 153.947 40.5958C154.071 40.883 154.154 41.1511 154.196 41.4383C154.278 41.9553 154.071 42.3575 153.635 42.6255C153.179 42.9128 152.64 43.1043 152.017 43.2192C151.374 43.3341 150.876 43.3724 150.503 43.3341C150.13 43.2958 149.798 43.2192 149.528 43.0851C149.03 42.8745 148.615 42.5107 148.304 41.9936C147.993 41.4575 147.744 40.9596 147.578 40.4617C147.163 39.5043 146.81 38.2596 146.478 36.7277C146.147 35.1958 145.877 33.6255 145.669 31.9787C145.462 30.3319 145.317 28.7617 145.234 27.2298C145.151 25.6979 145.172 24.4532 145.275 23.4766C145.379 22.5958 145.545 21.9064 145.752 21.3702C145.939 20.949 146.188 20.6426 146.499 20.4511C146.873 20.2213 147.205 20.0872 147.516 20.0298C147.827 19.9724 148.18 19.9341 148.636 19.9149C149.258 19.9149 149.777 20.0298 150.15 20.2404C150.524 20.4702 150.71 20.9872 150.71 21.8298C150.607 22.9596 150.648 24.817 150.814 27.4021Z" fill="white"/>
<path d="M166.705 29.432C167.057 28.6278 167.472 27.8235 167.929 27.0767C168.385 26.3107 168.904 25.6022 169.526 24.9512C169.775 24.6639 170.045 24.3767 170.314 24.1278C171.953 22.5001 173.841 21.3703 175.957 20.7193C177.782 20.1448 179.546 20.1065 181.247 20.5852C182.076 20.815 182.885 21.2554 183.715 21.9065C184.524 22.5575 185.147 23.2852 185.582 24.0703C185.852 24.5873 186.059 25.1618 186.205 25.7554C186.329 26.349 186.454 26.9427 186.516 27.5171C186.723 29.5469 186.599 31.4044 186.142 33.0703C185.852 34.0661 185.416 35.0427 184.835 36.0001C184.255 36.9575 183.674 37.8001 183.051 38.5661C182.118 39.715 181.039 40.6724 179.815 41.4575C178.591 42.2427 177.284 42.7405 175.853 42.9129C174.422 43.0661 173.011 42.9129 171.663 42.4533C170.625 42.0895 169.671 41.5916 168.758 40.9405C167.846 40.2895 167.161 39.4469 166.642 38.4129C166.165 37.398 165.875 36.2107 165.792 34.8703C165.667 32.8788 165.979 31.0788 166.705 29.432ZM171.434 31.9405C171.289 33.2044 171.808 34.6022 172.97 36.1533C174.131 37.7044 175.459 38.2022 176.911 37.6852C177.845 37.3405 178.467 36.7661 178.757 35.981C179.048 35.1958 179.11 34.315 178.944 33.3767C178.757 32.3235 178.301 31.4044 177.554 30.6384C176.807 29.8533 176.019 29.3554 175.168 29.1065C174.318 28.8767 173.53 28.9533 172.783 29.3746C172.036 29.7767 171.6 30.6384 171.434 31.9405Z" fill="white"/>
</svg>
